<?xml version="1.0" encoding="utf-8" standalone="no"?>
<!DOCTYPE svg PUBLIC "-//W3C//DTD SVG 1.1//EN"
  "http://www.w3.org/Graphics/SVG/1.1/DTD/svg11.dtd">
<svg xmlns:xlink="http://www.w3.org/1999/xlink" width="460.8pt" height="345.6pt" viewBox="0 0 460.8 345.6" xmlns="http://www.w3.org/2000/svg" version="1.1">
 <metadata>
  <rdf:RDF xmlns:dc="http://purl.org/dc/elements/1.1/" xmlns:cc="http://creativecommons.org/ns#" xmlns:rdf="http://www.w3.org/1999/02/22-rdf-syntax-ns#">
   <cc:Work>
    <dc:type rdf:resource="http://purl.org/dc/dcmitype/StillImage"/>
    <dc:date>2025-07-12T14:35:19.222007</dc:date>
    <dc:format>image/svg+xml</dc:format>
    <dc:creator>
     <cc:Agent>
      <dc:title>Matplotlib v3.10.3, https://matplotlib.org/</dc:title>
     </cc:Agent>
    </dc:creator>
   </cc:Work>
  </rdf:RDF>
 </metadata>
 <defs>
  <style type="text/css">*{stroke-linejoin: round; stroke-linecap: butt}</style>
 </defs>
 <g id="figure_1">
  <g id="patch_1">
   <path d="M 0 345.6 
L 460.8 345.6 
L 460.8 0 
L 0 0 
z
" style="fill: #ffffff"/>
  </g>
  <g id="axes_1">
   <g id="patch_2">
    <path d="M 57.6 307.584 
L 414.72 307.584 
L 414.72 41.472 
L 57.6 41.472 
z
" style="fill: #ffffff"/>
   </g>
   <g id="patch_3">
    <path d="M 60.012973 307.584 
L 61.621622 307.584 
L 61.621622 293.411733 
L 60.012973 293.411733 
z
" clip-path="url(#p7f78361af3)" style="fill: #1f77b4"/>
   </g>
   <g id="patch_4">
    <path d="M 69.664865 307.584 
L 71.273514 307.584 
L 71.273514 307.441246 
L 69.664865 307.441246 
z
" clip-path="url(#p7f78361af3)" style="fill: #1f77b4"/>
   </g>
   <g id="patch_5">
    <path d="M 79.316757 307.584 
L 80.925405 307.584 
L 80.925405 307.449991 
L 79.316757 307.449991 
z
" clip-path="url(#p7f78361af3)" style="fill: #1f77b4"/>
   </g>
   <g id="patch_6">
    <path d="M 88.968649 307.584 
L 90.577297 307.584 
L 90.577297 302.547793 
L 88.968649 302.547793 
z
" clip-path="url(#p7f78361af3)" style="fill: #1f77b4"/>
   </g>
   <g id="patch_7">
    <path d="M 98.620541 307.584 
L 100.229189 307.584 
L 100.229189 295.562655 
L 98.620541 295.562655 
z
" clip-path="url(#p7f78361af3)" style="fill: #1f77b4"/>
   </g>
   <g id="patch_8">
    <path d="M 108.272432 307.584 
L 109.881081 307.584 
L 109.881081 290.470836 
L 108.272432 290.470836 
z
" clip-path="url(#p7f78361af3)" style="fill: #1f77b4"/>
   </g>
   <g id="patch_9">
    <path d="M 117.924324 307.584 
L 119.532973 307.584 
L 119.532973 307.186025 
L 117.924324 307.186025 
z
" clip-path="url(#p7f78361af3)" style="fill: #1f77b4"/>
   </g>
   <g id="patch_10">
    <path d="M 127.576216 307.584 
L 129.184865 307.584 
L 129.184865 307.486797 
L 127.576216 307.486797 
z
" clip-path="url(#p7f78361af3)" style="fill: #1f77b4"/>
   </g>
   <g id="patch_11">
    <path d="M 137.228108 307.584 
L 138.836757 307.584 
L 138.836757 293.733653 
L 137.228108 293.733653 
z
" clip-path="url(#p7f78361af3)" style="fill: #1f77b4"/>
   </g>
   <g id="patch_12">
    <path d="M 146.88 307.584 
L 148.488649 307.584 
L 148.488649 285.583415 
L 146.88 285.583415 
z
" clip-path="url(#p7f78361af3)" style="fill: #1f77b4"/>
   </g>
   <g id="patch_13">
    <path d="M 156.531892 307.584 
L 158.140541 307.584 
L 158.140541 304.294169 
L 156.531892 304.294169 
z
" clip-path="url(#p7f78361af3)" style="fill: #1f77b4"/>
   </g>
   <g id="patch_14">
    <path d="M 166.183784 307.584 
L 167.792432 307.584 
L 167.792432 304.294169 
L 166.183784 304.294169 
z
" clip-path="url(#p7f78361af3)" style="fill: #1f77b4"/>
   </g>
   <g id="patch_15">
    <path d="M 175.835676 307.584 
L 177.444324 307.584 
L 177.444324 305.233294 
L 175.835676 305.233294 
z
" clip-path="url(#p7f78361af3)" style="fill: #1f77b4"/>
   </g>
   <g id="patch_16">
    <path d="M 185.487568 307.584 
L 187.096216 307.584 
L 187.096216 294.678472 
L 185.487568 294.678472 
z
" clip-path="url(#p7f78361af3)" style="fill: #1f77b4"/>
   </g>
   <g id="patch_17">
    <path d="M 195.139459 307.584 
L 196.748108 307.584 
L 196.748108 284.523253 
L 195.139459 284.523253 
z
" clip-path="url(#p7f78361af3)" style="fill: #1f77b4"/>
   </g>
   <g id="patch_18">
    <path d="M 204.791351 307.584 
L 206.4 307.584 
L 206.4 295.382253 
L 204.791351 295.382253 
z
" clip-path="url(#p7f78361af3)" style="fill: #1f77b4"/>
   </g>
   <g id="patch_19">
    <path d="M 214.443243 307.584 
L 216.051892 307.584 
L 216.051892 293.719644 
L 214.443243 293.719644 
z
" clip-path="url(#p7f78361af3)" style="fill: #1f77b4"/>
   </g>
   <g id="patch_20">
    <path d="M 224.095135 307.584 
L 225.703784 307.584 
L 225.703784 259.405484 
L 224.095135 259.405484 
z
" clip-path="url(#p7f78361af3)" style="fill: #1f77b4"/>
   </g>
   <g id="patch_21">
    <path d="M 233.747027 307.584 
L 235.355676 307.584 
L 235.355676 267.516773 
L 233.747027 267.516773 
z
" clip-path="url(#p7f78361af3)" style="fill: #1f77b4"/>
   </g>
   <g id="patch_22">
    <path d="M 243.398919 307.584 
L 245.007568 307.584 
L 245.007568 305.961977 
L 243.398919 305.961977 
z
" clip-path="url(#p7f78361af3)" style="fill: #1f77b4"/>
   </g>
   <g id="patch_23">
    <path d="M 253.050811 307.584 
L 254.659459 307.584 
L 254.659459 263.472162 
L 253.050811 263.472162 
z
" clip-path="url(#p7f78361af3)" style="fill: #1f77b4"/>
   </g>
   <g id="patch_24">
    <path d="M 262.702703 307.584 
L 264.311351 307.584 
L 264.311351 284.799934 
L 262.702703 284.799934 
z
" clip-path="url(#p7f78361af3)" style="fill: #1f77b4"/>
   </g>
   <g id="patch_25">
    <path d="M 272.354595 307.584 
L 273.963243 307.584 
L 273.963243 275.046748 
L 272.354595 275.046748 
z
" clip-path="url(#p7f78361af3)" style="fill: #1f77b4"/>
   </g>
   <g id="patch_26">
    <path d="M 282.006486 307.584 
L 283.615135 307.584 
L 283.615135 291.172727 
L 282.006486 291.172727 
z
" clip-path="url(#p7f78361af3)" style="fill: #1f77b4"/>
   </g>
   <g id="patch_27">
    <path d="M 291.658378 307.584 
L 293.267027 307.584 
L 293.267027 290.904058 
L 291.658378 290.904058 
z
" clip-path="url(#p7f78361af3)" style="fill: #1f77b4"/>
   </g>
   <g id="patch_28">
    <path d="M 301.31027 307.584 
L 302.918919 307.584 
L 302.918919 247.605246 
L 301.31027 247.605246 
z
" clip-path="url(#p7f78361af3)" style="fill: #1f77b4"/>
   </g>
   <g id="patch_29">
    <path d="M 310.962162 307.584 
L 312.570811 307.584 
L 312.570811 293.258809 
L 310.962162 293.258809 
z
" clip-path="url(#p7f78361af3)" style="fill: #1f77b4"/>
   </g>
   <g id="patch_30">
    <path d="M 320.614054 307.584 
L 322.222703 307.584 
L 322.222703 292.754835 
L 320.614054 292.754835 
z
" clip-path="url(#p7f78361af3)" style="fill: #1f77b4"/>
   </g>
   <g id="patch_31">
    <path d="M 330.265946 307.584 
L 331.874595 307.584 
L 331.874595 287.358183 
L 330.265946 287.358183 
z
" clip-path="url(#p7f78361af3)" style="fill: #1f77b4"/>
   </g>
   <g id="patch_32">
    <path d="M 339.917838 307.584 
L 341.526486 307.584 
L 341.526486 285.273392 
L 339.917838 285.273392 
z
" clip-path="url(#p7f78361af3)" style="fill: #1f77b4"/>
   </g>
   <g id="patch_33">
    <path d="M 349.56973 307.584 
L 351.178378 307.584 
L 351.178378 304.576115 
L 349.56973 304.576115 
z
" clip-path="url(#p7f78361af3)" style="fill: #1f77b4"/>
   </g>
   <g id="patch_34">
    <path d="M 359.221622 307.584 
L 360.83027 307.584 
L 360.83027 306.661328 
L 359.221622 306.661328 
z
" clip-path="url(#p7f78361af3)" style="fill: #1f77b4"/>
   </g>
   <g id="patch_35">
    <path d="M 368.873514 307.584 
L 370.482162 307.584 
L 370.482162 306.996559 
L 368.873514 306.996559 
z
" clip-path="url(#p7f78361af3)" style="fill: #1f77b4"/>
   </g>
   <g id="patch_36">
    <path d="M 378.525405 307.584 
L 380.134054 307.584 
L 380.134054 304.824014 
L 378.525405 304.824014 
z
" clip-path="url(#p7f78361af3)" style="fill: #1f77b4"/>
   </g>
   <g id="patch_37">
    <path d="M 388.177297 307.584 
L 389.785946 307.584 
L 389.785946 306.015372 
L 388.177297 306.015372 
z
" clip-path="url(#p7f78361af3)" style="fill: #1f77b4"/>
   </g>
   <g id="patch_38">
    <path d="M 397.829189 307.584 
L 399.437838 307.584 
L 399.437838 307.351447 
L 397.829189 307.351447 
z
" clip-path="url(#p7f78361af3)" style="fill: #1f77b4"/>
   </g>
   <g id="patch_39">
    <path d="M 407.481081 307.584 
L 409.08973 307.584 
L 409.08973 307.278455 
L 407.481081 307.278455 
z
" clip-path="url(#p7f78361af3)" style="fill: #1f77b4"/>
   </g>
   <g id="patch_40">
    <path d="M 61.621622 307.584 
L 63.23027 307.584 
L 63.23027 306.462642 
L 61.621622 306.462642 
z
" clip-path="url(#p7f78361af3)" style="fill: #ff7f0e"/>
   </g>
   <g id="patch_41">
    <path d="M 71.273514 307.584 
L 72.882162 307.584 
L 72.882162 306.326832 
L 71.273514 306.326832 
z
" clip-path="url(#p7f78361af3)" style="fill: #ff7f0e"/>
   </g>
   <g id="patch_42">
    <path d="M 80.925405 307.584 
L 82.534054 307.584 
L 82.534054 305.137435 
L 80.925405 305.137435 
z
" clip-path="url(#p7f78361af3)" style="fill: #ff7f0e"/>
   </g>
   <g id="patch_43">
    <path d="M 90.577297 307.584 
L 92.185946 307.584 
L 92.185946 303.796847 
L 90.577297 303.796847 
z
" clip-path="url(#p7f78361af3)" style="fill: #ff7f0e"/>
   </g>
   <g id="patch_44">
    <path d="M 100.229189 307.584 
L 101.837838 307.584 
L 101.837838 291.109867 
L 100.229189 291.109867 
z
" clip-path="url(#p7f78361af3)" style="fill: #ff7f0e"/>
   </g>
   <g id="patch_45">
    <path d="M 109.881081 307.584 
L 111.48973 307.584 
L 111.48973 292.733051 
L 109.881081 292.733051 
z
" clip-path="url(#p7f78361af3)" style="fill: #ff7f0e"/>
   </g>
   <g id="patch_46">
    <path d="M 119.532973 307.584 
L 121.141622 307.584 
L 121.141622 307.571491 
L 119.532973 307.571491 
z
" clip-path="url(#p7f78361af3)" style="fill: #ff7f0e"/>
   </g>
   <g id="patch_47">
    <path d="M 129.184865 307.584 
L 130.793514 307.584 
L 130.793514 306.91575 
L 129.184865 306.91575 
z
" clip-path="url(#p7f78361af3)" style="fill: #ff7f0e"/>
   </g>
   <g id="patch_48">
    <path d="M 138.836757 307.584 
L 140.445405 307.584 
L 140.445405 292.996024 
L 138.836757 292.996024 
z
" clip-path="url(#p7f78361af3)" style="fill: #ff7f0e"/>
   </g>
   <g id="patch_49">
    <path d="M 148.488649 307.584 
L 150.097297 307.584 
L 150.097297 289.248557 
L 148.488649 289.248557 
z
" clip-path="url(#p7f78361af3)" style="fill: #ff7f0e"/>
   </g>
   <g id="patch_50">
    <path d="M 158.140541 307.584 
L 159.749189 307.584 
L 159.749189 303.540504 
L 158.140541 303.540504 
z
" clip-path="url(#p7f78361af3)" style="fill: #ff7f0e"/>
   </g>
   <g id="patch_51">
    <path d="M 167.792432 307.584 
L 169.401081 307.584 
L 169.401081 303.540504 
L 167.792432 303.540504 
z
" clip-path="url(#p7f78361af3)" style="fill: #ff7f0e"/>
   </g>
   <g id="patch_52">
    <path d="M 177.444324 307.584 
L 179.052973 307.584 
L 179.052973 303.36329 
L 177.444324 303.36329 
z
" clip-path="url(#p7f78361af3)" style="fill: #ff7f0e"/>
   </g>
   <g id="patch_53">
    <path d="M 187.096216 307.584 
L 188.704865 307.584 
L 188.704865 290.832281 
L 187.096216 290.832281 
z
" clip-path="url(#p7f78361af3)" style="fill: #ff7f0e"/>
   </g>
   <g id="patch_54">
    <path d="M 196.748108 307.584 
L 198.356757 307.584 
L 198.356757 280.129195 
L 196.748108 280.129195 
z
" clip-path="url(#p7f78361af3)" style="fill: #ff7f0e"/>
   </g>
   <g id="patch_55">
    <path d="M 206.4 307.584 
L 208.008649 307.584 
L 208.008649 294.674516 
L 206.4 294.674516 
z
" clip-path="url(#p7f78361af3)" style="fill: #ff7f0e"/>
   </g>
   <g id="patch_56">
    <path d="M 216.051892 307.584 
L 217.660541 307.584 
L 217.660541 289.356496 
L 216.051892 289.356496 
z
" clip-path="url(#p7f78361af3)" style="fill: #ff7f0e"/>
   </g>
   <g id="patch_57">
    <path d="M 225.703784 307.584 
L 227.312432 307.584 
L 227.312432 267.626743 
L 225.703784 267.626743 
z
" clip-path="url(#p7f78361af3)" style="fill: #ff7f0e"/>
   </g>
   <g id="patch_58">
    <path d="M 235.355676 307.584 
L 236.964324 307.584 
L 236.964324 272.087944 
L 235.355676 272.087944 
z
" clip-path="url(#p7f78361af3)" style="fill: #ff7f0e"/>
   </g>
   <g id="patch_59">
    <path d="M 245.007568 307.584 
L 246.616216 307.584 
L 246.616216 305.896124 
L 245.007568 305.896124 
z
" clip-path="url(#p7f78361af3)" style="fill: #ff7f0e"/>
   </g>
   <g id="patch_60">
    <path d="M 254.659459 307.584 
L 256.268108 307.584 
L 256.268108 283.112105 
L 254.659459 283.112105 
z
" clip-path="url(#p7f78361af3)" style="fill: #ff7f0e"/>
   </g>
   <g id="patch_61">
    <path d="M 264.311351 307.584 
L 265.92 307.584 
L 265.92 282.243864 
L 264.311351 282.243864 
z
" clip-path="url(#p7f78361af3)" style="fill: #ff7f0e"/>
   </g>
   <g id="patch_62">
    <path d="M 273.963243 307.584 
L 275.571892 307.584 
L 275.571892 296.891045 
L 273.963243 296.891045 
z
" clip-path="url(#p7f78361af3)" style="fill: #ff7f0e"/>
   </g>
   <g id="patch_63">
    <path d="M 283.615135 307.584 
L 285.223784 307.584 
L 285.223784 300.445579 
L 283.615135 300.445579 
z
" clip-path="url(#p7f78361af3)" style="fill: #ff7f0e"/>
   </g>
   <g id="patch_64">
    <path d="M 293.267027 307.584 
L 294.875676 307.584 
L 294.875676 296.667669 
L 293.267027 296.667669 
z
" clip-path="url(#p7f78361af3)" style="fill: #ff7f0e"/>
   </g>
   <g id="patch_65">
    <path d="M 302.918919 307.584 
L 304.527568 307.584 
L 304.527568 271.453776 
L 302.918919 271.453776 
z
" clip-path="url(#p7f78361af3)" style="fill: #ff7f0e"/>
   </g>
   <g id="patch_66">
    <path d="M 312.570811 307.584 
L 314.179459 307.584 
L 314.179459 295.969635 
L 312.570811 295.969635 
z
" clip-path="url(#p7f78361af3)" style="fill: #ff7f0e"/>
   </g>
   <g id="patch_67">
    <path d="M 322.222703 307.584 
L 323.831351 307.584 
L 323.831351 291.812912 
L 322.222703 291.812912 
z
" clip-path="url(#p7f78361af3)" style="fill: #ff7f0e"/>
   </g>
   <g id="patch_68">
    <path d="M 331.874595 307.584 
L 333.483243 307.584 
L 333.483243 287.827078 
L 331.874595 287.827078 
z
" clip-path="url(#p7f78361af3)" style="fill: #ff7f0e"/>
   </g>
   <g id="patch_69">
    <path d="M 341.526486 307.584 
L 343.135135 307.584 
L 343.135135 277.510182 
L 341.526486 277.510182 
z
" clip-path="url(#p7f78361af3)" style="fill: #ff7f0e"/>
   </g>
   <g id="patch_70">
    <path d="M 351.178378 307.584 
L 352.787027 307.584 
L 352.787027 305.575423 
L 351.178378 305.575423 
z
" clip-path="url(#p7f78361af3)" style="fill: #ff7f0e"/>
   </g>
   <g id="patch_71">
    <path d="M 360.83027 307.584 
L 362.438919 307.584 
L 362.438919 305.827231 
L 360.83027 305.827231 
z
" clip-path="url(#p7f78361af3)" style="fill: #ff7f0e"/>
   </g>
   <g id="patch_72">
    <path d="M 370.482162 307.584 
L 372.090811 307.584 
L 372.090811 305.985545 
L 370.482162 305.985545 
z
" clip-path="url(#p7f78361af3)" style="fill: #ff7f0e"/>
   </g>
   <g id="patch_73">
    <path d="M 380.134054 307.584 
L 381.742703 307.584 
L 381.742703 304.998001 
L 380.134054 304.998001 
z
" clip-path="url(#p7f78361af3)" style="fill: #ff7f0e"/>
   </g>
   <g id="patch_74">
    <path d="M 389.785946 307.584 
L 391.394595 307.584 
L 391.394595 306.216033 
L 389.785946 306.216033 
z
" clip-path="url(#p7f78361af3)" style="fill: #ff7f0e"/>
   </g>
   <g id="patch_75">
    <path d="M 399.437838 307.584 
L 401.046486 307.584 
L 401.046486 306.500874 
L 399.437838 306.500874 
z
" clip-path="url(#p7f78361af3)" style="fill: #ff7f0e"/>
   </g>
   <g id="patch_76">
    <path d="M 409.08973 307.584 
L 410.698378 307.584 
L 410.698378 306.588402 
L 409.08973 306.588402 
z
" clip-path="url(#p7f78361af3)" style="fill: #ff7f0e"/>
   </g>
   <g id="patch_77">
    <path d="M 63.23027 307.584 
L 64.838919 307.584 
L 64.838919 302.359469 
L 63.23027 302.359469 
z
" clip-path="url(#p7f78361af3)" style="fill: #2ca02c"/>
   </g>
   <g id="patch_78">
    <path d="M 72.882162 307.584 
L 74.490811 307.584 
L 74.490811 301.257942 
L 72.882162 301.257942 
z
" clip-path="url(#p7f78361af3)" style="fill: #2ca02c"/>
   </g>
   <g id="patch_79">
    <path d="M 82.534054 307.584 
L 84.142703 307.584 
L 84.142703 288.385148 
L 82.534054 288.385148 
z
" clip-path="url(#p7f78361af3)" style="fill: #2ca02c"/>
   </g>
   <g id="patch_80">
    <path d="M 92.185946 307.584 
L 93.794595 307.584 
L 93.794595 293.73552 
L 92.185946 293.73552 
z
" clip-path="url(#p7f78361af3)" style="fill: #2ca02c"/>
   </g>
   <g id="patch_81">
    <path d="M 101.837838 307.584 
L 103.446486 307.584 
L 103.446486 54.144 
L 101.837838 54.144 
z
" clip-path="url(#p7f78361af3)" style="fill: #2ca02c"/>
   </g>
   <g id="patch_82">
    <path d="M 111.48973 307.584 
L 113.098378 307.584 
L 113.098378 257.35348 
L 111.48973 257.35348 
z
" clip-path="url(#p7f78361af3)" style="fill: #2ca02c"/>
   </g>
   <g id="patch_83">
    <path d="M 121.141622 307.584 
L 122.75027 307.584 
L 122.75027 301.588381 
L 121.141622 301.588381 
z
" clip-path="url(#p7f78361af3)" style="fill: #2ca02c"/>
   </g>
   <g id="patch_84">
    <path d="M 130.793514 307.584 
L 132.402162 307.584 
L 132.402162 304.117403 
L 130.793514 304.117403 
z
" clip-path="url(#p7f78361af3)" style="fill: #2ca02c"/>
   </g>
   <g id="patch_85">
    <path d="M 140.445405 307.584 
L 142.054054 307.584 
L 142.054054 210.819827 
L 140.445405 210.819827 
z
" clip-path="url(#p7f78361af3)" style="fill: #2ca02c"/>
   </g>
   <g id="patch_86">
    <path d="M 150.097297 307.584 
L 151.705946 307.584 
L 151.705946 223.768868 
L 150.097297 223.768868 
z
" clip-path="url(#p7f78361af3)" style="fill: #2ca02c"/>
   </g>
   <g id="patch_87">
    <path d="M 159.749189 307.584 
L 161.357838 307.584 
L 161.357838 277.484385 
L 159.749189 277.484385 
z
" clip-path="url(#p7f78361af3)" style="fill: #2ca02c"/>
   </g>
   <g id="patch_88">
    <path d="M 169.401081 307.584 
L 171.00973 307.584 
L 171.00973 287.97835 
L 169.401081 287.97835 
z
" clip-path="url(#p7f78361af3)" style="fill: #2ca02c"/>
   </g>
   <g id="patch_89">
    <path d="M 179.052973 307.584 
L 180.661622 307.584 
L 180.661622 292.024773 
L 179.052973 292.024773 
z
" clip-path="url(#p7f78361af3)" style="fill: #2ca02c"/>
   </g>
   <g id="patch_90">
    <path d="M 188.704865 307.584 
L 190.313514 307.584 
L 190.313514 237.944162 
L 188.704865 237.944162 
z
" clip-path="url(#p7f78361af3)" style="fill: #2ca02c"/>
   </g>
   <g id="patch_91">
    <path d="M 198.356757 307.584 
L 199.965405 307.584 
L 199.965405 136.42542 
L 198.356757 136.42542 
z
" clip-path="url(#p7f78361af3)" style="fill: #2ca02c"/>
   </g>
   <g id="patch_92">
    <path d="M 208.008649 307.584 
L 209.617297 307.584 
L 209.617297 207.424917 
L 208.008649 207.424917 
z
" clip-path="url(#p7f78361af3)" style="fill: #2ca02c"/>
   </g>
   <g id="patch_93">
    <path d="M 217.660541 307.584 
L 219.269189 307.584 
L 219.269189 210.102726 
L 217.660541 210.102726 
z
" clip-path="url(#p7f78361af3)" style="fill: #2ca02c"/>
   </g>
   <g id="patch_94">
    <path d="M 227.312432 307.584 
L 228.921081 307.584 
L 228.921081 152.509313 
L 227.312432 152.509313 
z
" clip-path="url(#p7f78361af3)" style="fill: #2ca02c"/>
   </g>
   <g id="patch_95">
    <path d="M 236.964324 307.584 
L 238.572973 307.584 
L 238.572973 289.560469 
L 236.964324 289.560469 
z
" clip-path="url(#p7f78361af3)" style="fill: #2ca02c"/>
   </g>
   <g id="patch_96">
    <path d="M 246.616216 307.584 
L 248.224865 307.584 
L 248.224865 306.25096 
L 246.616216 306.25096 
z
" clip-path="url(#p7f78361af3)" style="fill: #2ca02c"/>
   </g>
   <g id="patch_97">
    <path d="M 256.268108 307.584 
L 257.876757 307.584 
L 257.876757 277.214605 
L 256.268108 277.214605 
z
" clip-path="url(#p7f78361af3)" style="fill: #2ca02c"/>
   </g>
   <g id="patch_98">
    <path d="M 265.92 307.584 
L 267.528649 307.584 
L 267.528649 277.903384 
L 265.92 277.903384 
z
" clip-path="url(#p7f78361af3)" style="fill: #2ca02c"/>
   </g>
   <g id="patch_99">
    <path d="M 275.571892 307.584 
L 277.180541 307.584 
L 277.180541 304.503458 
L 275.571892 304.503458 
z
" clip-path="url(#p7f78361af3)" style="fill: #2ca02c"/>
   </g>
   <g id="patch_100">
    <path d="M 285.223784 307.584 
L 286.832432 307.584 
L 286.832432 301.975008 
L 285.223784 301.975008 
z
" clip-path="url(#p7f78361af3)" style="fill: #2ca02c"/>
   </g>
   <g id="patch_101">
    <path d="M 294.875676 307.584 
L 296.484324 307.584 
L 296.484324 305.423746 
L 294.875676 305.423746 
z
" clip-path="url(#p7f78361af3)" style="fill: #2ca02c"/>
   </g>
   <g id="patch_102">
    <path d="M 304.527568 307.584 
L 306.136216 307.584 
L 306.136216 287.377188 
L 304.527568 287.377188 
z
" clip-path="url(#p7f78361af3)" style="fill: #2ca02c"/>
   </g>
   <g id="patch_103">
    <path d="M 314.179459 307.584 
L 315.788108 307.584 
L 315.788108 305.853188 
L 314.179459 305.853188 
z
" clip-path="url(#p7f78361af3)" style="fill: #2ca02c"/>
   </g>
   <g id="patch_104">
    <path d="M 323.831351 307.584 
L 325.44 307.584 
L 325.44 294.741055 
L 323.831351 294.741055 
z
" clip-path="url(#p7f78361af3)" style="fill: #2ca02c"/>
   </g>
   <g id="patch_105">
    <path d="M 333.483243 307.584 
L 335.091892 307.584 
L 335.091892 288.500966 
L 333.483243 288.500966 
z
" clip-path="url(#p7f78361af3)" style="fill: #2ca02c"/>
   </g>
   <g id="patch_106">
    <path d="M 343.135135 307.584 
L 344.743784 307.584 
L 344.743784 296.190237 
L 343.135135 296.190237 
z
" clip-path="url(#p7f78361af3)" style="fill: #2ca02c"/>
   </g>
   <g id="patch_107">
    <path d="M 352.787027 307.584 
L 354.395676 307.584 
L 354.395676 305.63727 
L 352.787027 305.63727 
z
" clip-path="url(#p7f78361af3)" style="fill: #2ca02c"/>
   </g>
   <g id="patch_108">
    <path d="M 362.438919 307.584 
L 364.047568 307.584 
L 364.047568 306.093258 
L 362.438919 306.093258 
z
" clip-path="url(#p7f78361af3)" style="fill: #2ca02c"/>
   </g>
   <g id="patch_109">
    <path d="M 372.090811 307.584 
L 373.699459 307.584 
L 373.699459 306.622803 
L 372.090811 306.622803 
z
" clip-path="url(#p7f78361af3)" style="fill: #2ca02c"/>
   </g>
   <g id="patch_110">
    <path d="M 381.742703 307.584 
L 383.351351 307.584 
L 383.351351 304.776562 
L 381.742703 304.776562 
z
" clip-path="url(#p7f78361af3)" style="fill: #2ca02c"/>
   </g>
   <g id="patch_111">
    <path d="M 391.394595 307.584 
L 393.003243 307.584 
L 393.003243 306.739682 
L 391.394595 306.739682 
z
" clip-path="url(#p7f78361af3)" style="fill: #2ca02c"/>
   </g>
   <g id="patch_112">
    <path d="M 401.046486 307.584 
L 402.655135 307.584 
L 402.655135 306.780038 
L 401.046486 306.780038 
z
" clip-path="url(#p7f78361af3)" style="fill: #2ca02c"/>
   </g>
   <g id="patch_113">
    <path d="M 410.698378 307.584 
L 412.307027 307.584 
L 412.307027 307.584 
L 410.698378 307.584 
z
" clip-path="url(#p7f78361af3)" style="fill: #2ca02c"/>
   </g>
   <g id="matplotlib.axis_1">
    <g id="xtick_1">
     <g id="line2d_1">
      <defs>
       <path id="md012149504" d="M 0 0 
L 0 3.5 
" style="stroke: #000000; stroke-width: 0.8"/>
      </defs>
      <g>
       <use xlink:href="#md012149504" x="62.425946" y="307.584" style="stroke: #000000; stroke-width: 0.8"/>
      </g>
     </g>
     <g id="text_1">
      <!-- q0 -->
      <g transform="translate(61.154535 321.764448) rotate(-45) scale(0.05 -0.05)">
       <defs>
        <path id="DejaVuSans-71" d="M 947 1747 
Q 947 1113 1208 752 
Q 1469 391 1925 391 
Q 2381 391 2643 752 
Q 2906 1113 2906 1747 
Q 2906 2381 2643 2742 
Q 2381 3103 1925 3103 
Q 1469 3103 1208 2742 
Q 947 2381 947 1747 
z
M 2906 525 
Q 2725 213 2448 61 
Q 2172 -91 1784 -91 
Q 1150 -91 751 415 
Q 353 922 353 1747 
Q 353 2572 751 3078 
Q 1150 3584 1784 3584 
Q 2172 3584 2448 3432 
Q 2725 3281 2906 2969 
L 2906 3500 
L 3481 3500 
L 3481 -1331 
L 2906 -1331 
L 2906 525 
z
" transform="scale(0.015625)"/>
        <path id="DejaVuSans-30" d="M 2034 4250 
Q 1547 4250 1301 3770 
Q 1056 3291 1056 2328 
Q 1056 1369 1301 889 
Q 1547 409 2034 409 
Q 2525 409 2770 889 
Q 3016 1369 3016 2328 
Q 3016 3291 2770 3770 
Q 2525 4250 2034 4250 
z
M 2034 4750 
Q 2819 4750 3233 4129 
Q 3647 3509 3647 2328 
Q 3647 1150 3233 529 
Q 2819 -91 2034 -91 
Q 1250 -91 836 529 
Q 422 1150 422 2328 
Q 422 3509 836 4129 
Q 1250 4750 2034 4750 
z
" transform="scale(0.015625)"/>
       </defs>
       <use xlink:href="#DejaVuSans-71"/>
       <use xlink:href="#DejaVuSans-30" transform="translate(63.476562 0)"/>
      </g>
     </g>
    </g>
    <g id="xtick_2">
     <g id="line2d_2">
      <g>
       <use xlink:href="#md012149504" x="72.077838" y="307.584" style="stroke: #000000; stroke-width: 0.8"/>
      </g>
     </g>
     <g id="text_2">
      <!-- q1 -->
      <g transform="translate(70.806427 321.764448) rotate(-45) scale(0.05 -0.05)">
       <defs>
        <path id="DejaVuSans-31" d="M 794 531 
L 1825 531 
L 1825 4091 
L 703 3866 
L 703 4441 
L 1819 4666 
L 2450 4666 
L 2450 531 
L 3481 531 
L 3481 0 
L 794 0 
L 794 531 
z
" transform="scale(0.015625)"/>
       </defs>
       <use xlink:href="#DejaVuSans-71"/>
       <use xlink:href="#DejaVuSans-31" transform="translate(63.476562 0)"/>
      </g>
     </g>
    </g>
    <g id="xtick_3">
     <g id="line2d_3">
      <g>
       <use xlink:href="#md012149504" x="81.72973" y="307.584" style="stroke: #000000; stroke-width: 0.8"/>
      </g>
     </g>
     <g id="text_3">
      <!-- q2 -->
      <g transform="translate(80.458319 321.764448) rotate(-45) scale(0.05 -0.05)">
       <defs>
        <path id="DejaVuSans-32" d="M 1228 531 
L 3431 531 
L 3431 0 
L 469 0 
L 469 531 
Q 828 903 1448 1529 
Q 2069 2156 2228 2338 
Q 2531 2678 2651 2914 
Q 2772 3150 2772 3378 
Q 2772 3750 2511 3984 
Q 2250 4219 1831 4219 
Q 1534 4219 1204 4116 
Q 875 4013 500 3803 
L 500 4441 
Q 881 4594 1212 4672 
Q 1544 4750 1819 4750 
Q 2544 4750 2975 4387 
Q 3406 4025 3406 3419 
Q 3406 3131 3298 2873 
Q 3191 2616 2906 2266 
Q 2828 2175 2409 1742 
Q 1991 1309 1228 531 
z
" transform="scale(0.015625)"/>
       </defs>
       <use xlink:href="#DejaVuSans-71"/>
       <use xlink:href="#DejaVuSans-32" transform="translate(63.476562 0)"/>
      </g>
     </g>
    </g>
    <g id="xtick_4">
     <g id="line2d_4">
      <g>
       <use xlink:href="#md012149504" x="91.381622" y="307.584" style="stroke: #000000; stroke-width: 0.8"/>
      </g>
     </g>
     <g id="text_4">
      <!-- q3 -->
      <g transform="translate(90.11021 321.764448) rotate(-45) scale(0.05 -0.05)">
       <defs>
        <path id="DejaVuSans-33" d="M 2597 2516 
Q 3050 2419 3304 2112 
Q 3559 1806 3559 1356 
Q 3559 666 3084 287 
Q 2609 -91 1734 -91 
Q 1441 -91 1130 -33 
Q 819 25 488 141 
L 488 750 
Q 750 597 1062 519 
Q 1375 441 1716 441 
Q 2309 441 2620 675 
Q 2931 909 2931 1356 
Q 2931 1769 2642 2001 
Q 2353 2234 1838 2234 
L 1294 2234 
L 1294 2753 
L 1863 2753 
Q 2328 2753 2575 2939 
Q 2822 3125 2822 3475 
Q 2822 3834 2567 4026 
Q 2313 4219 1838 4219 
Q 1578 4219 1281 4162 
Q 984 4106 628 3988 
L 628 4550 
Q 988 4650 1302 4700 
Q 1616 4750 1894 4750 
Q 2613 4750 3031 4423 
Q 3450 4097 3450 3541 
Q 3450 3153 3228 2886 
Q 3006 2619 2597 2516 
z
" transform="scale(0.015625)"/>
       </defs>
       <use xlink:href="#DejaVuSans-71"/>
       <use xlink:href="#DejaVuSans-33" transform="translate(63.476562 0)"/>
      </g>
     </g>
    </g>
    <g id="xtick_5">
     <g id="line2d_5">
      <g>
       <use xlink:href="#md012149504" x="101.033514" y="307.584" style="stroke: #000000; stroke-width: 0.8"/>
      </g>
     </g>
     <g id="text_5">
      <!-- q4 -->
      <g transform="translate(99.762102 321.764448) rotate(-45) scale(0.05 -0.05)">
       <defs>
        <path id="DejaVuSans-34" d="M 2419 4116 
L 825 1625 
L 2419 1625 
L 2419 4116 
z
M 2253 4666 
L 3047 4666 
L 3047 1625 
L 3713 1625 
L 3713 1100 
L 3047 1100 
L 3047 0 
L 2419 0 
L 2419 1100 
L 313 1100 
L 313 1709 
L 2253 4666 
z
" transform="scale(0.015625)"/>
       </defs>
       <use xlink:href="#DejaVuSans-71"/>
       <use xlink:href="#DejaVuSans-34" transform="translate(63.476562 0)"/>
      </g>
     </g>
    </g>
    <g id="xtick_6">
     <g id="line2d_6">
      <g>
       <use xlink:href="#md012149504" x="110.685405" y="307.584" style="stroke: #000000; stroke-width: 0.8"/>
      </g>
     </g>
     <g id="text_6">
      <!-- q5 -->
      <g transform="translate(109.413994 321.764448) rotate(-45) scale(0.05 -0.05)">
       <defs>
        <path id="DejaVuSans-35" d="M 691 4666 
L 3169 4666 
L 3169 4134 
L 1269 4134 
L 1269 2991 
Q 1406 3038 1543 3061 
Q 1681 3084 1819 3084 
Q 2600 3084 3056 2656 
Q 3513 2228 3513 1497 
Q 3513 744 3044 326 
Q 2575 -91 1722 -91 
Q 1428 -91 1123 -41 
Q 819 9 494 109 
L 494 744 
Q 775 591 1075 516 
Q 1375 441 1709 441 
Q 2250 441 2565 725 
Q 2881 1009 2881 1497 
Q 2881 1984 2565 2268 
Q 2250 2553 1709 2553 
Q 1456 2553 1204 2497 
Q 953 2441 691 2322 
L 691 4666 
z
" transform="scale(0.015625)"/>
       </defs>
       <use xlink:href="#DejaVuSans-71"/>
       <use xlink:href="#DejaVuSans-35" transform="translate(63.476562 0)"/>
      </g>
     </g>
    </g>
    <g id="xtick_7">
     <g id="line2d_7">
      <g>
       <use xlink:href="#md012149504" x="120.337297" y="307.584" style="stroke: #000000; stroke-width: 0.8"/>
      </g>
     </g>
     <g id="text_7">
      <!-- q6 -->
      <g transform="translate(119.065886 321.764448) rotate(-45) scale(0.05 -0.05)">
       <defs>
        <path id="DejaVuSans-36" d="M 2113 2584 
Q 1688 2584 1439 2293 
Q 1191 2003 1191 1497 
Q 1191 994 1439 701 
Q 1688 409 2113 409 
Q 2538 409 2786 701 
Q 3034 994 3034 1497 
Q 3034 2003 2786 2293 
Q 2538 2584 2113 2584 
z
M 3366 4563 
L 3366 3988 
Q 3128 4100 2886 4159 
Q 2644 4219 2406 4219 
Q 1781 4219 1451 3797 
Q 1122 3375 1075 2522 
Q 1259 2794 1537 2939 
Q 1816 3084 2150 3084 
Q 2853 3084 3261 2657 
Q 3669 2231 3669 1497 
Q 3669 778 3244 343 
Q 2819 -91 2113 -91 
Q 1303 -91 875 529 
Q 447 1150 447 2328 
Q 447 3434 972 4092 
Q 1497 4750 2381 4750 
Q 2619 4750 2861 4703 
Q 3103 4656 3366 4563 
z
" transform="scale(0.015625)"/>
       </defs>
       <use xlink:href="#DejaVuSans-71"/>
       <use xlink:href="#DejaVuSans-36" transform="translate(63.476562 0)"/>
      </g>
     </g>
    </g>
    <g id="xtick_8">
     <g id="line2d_8">
      <g>
       <use xlink:href="#md012149504" x="129.989189" y="307.584" style="stroke: #000000; stroke-width: 0.8"/>
      </g>
     </g>
     <g id="text_8">
      <!-- q7 -->
      <g transform="translate(128.717778 321.764448) rotate(-45) scale(0.05 -0.05)">
       <defs>
        <path id="DejaVuSans-37" d="M 525 4666 
L 3525 4666 
L 3525 4397 
L 1831 0 
L 1172 0 
L 2766 4134 
L 525 4134 
L 525 4666 
z
" transform="scale(0.015625)"/>
       </defs>
       <use xlink:href="#DejaVuSans-71"/>
       <use xlink:href="#DejaVuSans-37" transform="translate(63.476562 0)"/>
      </g>
     </g>
    </g>
    <g id="xtick_9">
     <g id="line2d_9">
      <g>
       <use xlink:href="#md012149504" x="139.641081" y="307.584" style="stroke: #000000; stroke-width: 0.8"/>
      </g>
     </g>
     <g id="text_9">
      <!-- q8 -->
      <g transform="translate(138.36967 321.764448) rotate(-45) scale(0.05 -0.05)">
       <defs>
        <path id="DejaVuSans-38" d="M 2034 2216 
Q 1584 2216 1326 1975 
Q 1069 1734 1069 1313 
Q 1069 891 1326 650 
Q 1584 409 2034 409 
Q 2484 409 2743 651 
Q 3003 894 3003 1313 
Q 3003 1734 2745 1975 
Q 2488 2216 2034 2216 
z
M 1403 2484 
Q 997 2584 770 2862 
Q 544 3141 544 3541 
Q 544 4100 942 4425 
Q 1341 4750 2034 4750 
Q 2731 4750 3128 4425 
Q 3525 4100 3525 3541 
Q 3525 3141 3298 2862 
Q 3072 2584 2669 2484 
Q 3125 2378 3379 2068 
Q 3634 1759 3634 1313 
Q 3634 634 3220 271 
Q 2806 -91 2034 -91 
Q 1263 -91 848 271 
Q 434 634 434 1313 
Q 434 1759 690 2068 
Q 947 2378 1403 2484 
z
M 1172 3481 
Q 1172 3119 1398 2916 
Q 1625 2713 2034 2713 
Q 2441 2713 2670 2916 
Q 2900 3119 2900 3481 
Q 2900 3844 2670 4047 
Q 2441 4250 2034 4250 
Q 1625 4250 1398 4047 
Q 1172 3844 1172 3481 
z
" transform="scale(0.015625)"/>
       </defs>
       <use xlink:href="#DejaVuSans-71"/>
       <use xlink:href="#DejaVuSans-38" transform="translate(63.476562 0)"/>
      </g>
     </g>
    </g>
    <g id="xtick_10">
     <g id="line2d_10">
      <g>
       <use xlink:href="#md012149504" x="149.292973" y="307.584" style="stroke: #000000; stroke-width: 0.8"/>
      </g>
     </g>
     <g id="text_10">
      <!-- q9 -->
      <g transform="translate(148.021562 321.764448) rotate(-45) scale(0.05 -0.05)">
       <defs>
        <path id="DejaVuSans-39" d="M 703 97 
L 703 672 
Q 941 559 1184 500 
Q 1428 441 1663 441 
Q 2288 441 2617 861 
Q 2947 1281 2994 2138 
Q 2813 1869 2534 1725 
Q 2256 1581 1919 1581 
Q 1219 1581 811 2004 
Q 403 2428 403 3163 
Q 403 3881 828 4315 
Q 1253 4750 1959 4750 
Q 2769 4750 3195 4129 
Q 3622 3509 3622 2328 
Q 3622 1225 3098 567 
Q 2575 -91 1691 -91 
Q 1453 -91 1209 -44 
Q 966 3 703 97 
z
M 1959 2075 
Q 2384 2075 2632 2365 
Q 2881 2656 2881 3163 
Q 2881 3666 2632 3958 
Q 2384 4250 1959 4250 
Q 1534 4250 1286 3958 
Q 1038 3666 1038 3163 
Q 1038 2656 1286 2365 
Q 1534 2075 1959 2075 
z
" transform="scale(0.015625)"/>
       </defs>
       <use xlink:href="#DejaVuSans-71"/>
       <use xlink:href="#DejaVuSans-39" transform="translate(63.476562 0)"/>
      </g>
     </g>
    </g>
    <g id="xtick_11">
     <g id="line2d_11">
      <g>
       <use xlink:href="#md012149504" x="158.944865" y="307.584" style="stroke: #000000; stroke-width: 0.8"/>
      </g>
     </g>
     <g id="text_11">
      <!-- q10 -->
      <g transform="translate(156.548712 324.013932) rotate(-45) scale(0.05 -0.05)">
       <use xlink:href="#DejaVuSans-71"/>
       <use xlink:href="#DejaVuSans-31" transform="translate(63.476562 0)"/>
       <use xlink:href="#DejaVuSans-30" transform="translate(127.099609 0)"/>
      </g>
     </g>
    </g>
    <g id="xtick_12">
     <g id="line2d_12">
      <g>
       <use xlink:href="#md012149504" x="168.596757" y="307.584" style="stroke: #000000; stroke-width: 0.8"/>
      </g>
     </g>
     <g id="text_12">
      <!-- q10 -->
      <g transform="translate(166.200604 324.013932) rotate(-45) scale(0.05 -0.05)">
       <use xlink:href="#DejaVuSans-71"/>
       <use xlink:href="#DejaVuSans-31" transform="translate(63.476562 0)"/>
       <use xlink:href="#DejaVuSans-30" transform="translate(127.099609 0)"/>
      </g>
     </g>
    </g>
    <g id="xtick_13">
     <g id="line2d_13">
      <g>
       <use xlink:href="#md012149504" x="178.248649" y="307.584" style="stroke: #000000; stroke-width: 0.8"/>
      </g>
     </g>
     <g id="text_13">
      <!-- q11 -->
      <g transform="translate(175.852496 324.013932) rotate(-45) scale(0.05 -0.05)">
       <use xlink:href="#DejaVuSans-71"/>
       <use xlink:href="#DejaVuSans-31" transform="translate(63.476562 0)"/>
       <use xlink:href="#DejaVuSans-31" transform="translate(127.099609 0)"/>
      </g>
     </g>
    </g>
    <g id="xtick_14">
     <g id="line2d_14">
      <g>
       <use xlink:href="#md012149504" x="187.900541" y="307.584" style="stroke: #000000; stroke-width: 0.8"/>
      </g>
     </g>
     <g id="text_14">
      <!-- q12 -->
      <g transform="translate(185.504388 324.013932) rotate(-45) scale(0.05 -0.05)">
       <use xlink:href="#DejaVuSans-71"/>
       <use xlink:href="#DejaVuSans-31" transform="translate(63.476562 0)"/>
       <use xlink:href="#DejaVuSans-32" transform="translate(127.099609 0)"/>
      </g>
     </g>
    </g>
    <g id="xtick_15">
     <g id="line2d_15">
      <g>
       <use xlink:href="#md012149504" x="197.552432" y="307.584" style="stroke: #000000; stroke-width: 0.8"/>
      </g>
     </g>
     <g id="text_15">
      <!-- q13 -->
      <g transform="translate(195.15628 324.013932) rotate(-45) scale(0.05 -0.05)">
       <use xlink:href="#DejaVuSans-71"/>
       <use xlink:href="#DejaVuSans-31" transform="translate(63.476562 0)"/>
       <use xlink:href="#DejaVuSans-33" transform="translate(127.099609 0)"/>
      </g>
     </g>
    </g>
    <g id="xtick_16">
     <g id="line2d_16">
      <g>
       <use xlink:href="#md012149504" x="207.204324" y="307.584" style="stroke: #000000; stroke-width: 0.8"/>
      </g>
     </g>
     <g id="text_16">
      <!-- q14 -->
      <g transform="translate(204.808171 324.013932) rotate(-45) scale(0.05 -0.05)">
       <use xlink:href="#DejaVuSans-71"/>
       <use xlink:href="#DejaVuSans-31" transform="translate(63.476562 0)"/>
       <use xlink:href="#DejaVuSans-34" transform="translate(127.099609 0)"/>
      </g>
     </g>
    </g>
    <g id="xtick_17">
     <g id="line2d_17">
      <g>
       <use xlink:href="#md012149504" x="216.856216" y="307.584" style="stroke: #000000; stroke-width: 0.8"/>
      </g>
     </g>
     <g id="text_17">
      <!-- q15 -->
      <g transform="translate(214.460063 324.013932) rotate(-45) scale(0.05 -0.05)">
       <use xlink:href="#DejaVuSans-71"/>
       <use xlink:href="#DejaVuSans-31" transform="translate(63.476562 0)"/>
       <use xlink:href="#DejaVuSans-35" transform="translate(127.099609 0)"/>
      </g>
     </g>
    </g>
    <g id="xtick_18">
     <g id="line2d_18">
      <g>
       <use xlink:href="#md012149504" x="226.508108" y="307.584" style="stroke: #000000; stroke-width: 0.8"/>
      </g>
     </g>
     <g id="text_18">
      <!-- q16 -->
      <g transform="translate(224.111955 324.013932) rotate(-45) scale(0.05 -0.05)">
       <use xlink:href="#DejaVuSans-71"/>
       <use xlink:href="#DejaVuSans-31" transform="translate(63.476562 0)"/>
       <use xlink:href="#DejaVuSans-36" transform="translate(127.099609 0)"/>
      </g>
     </g>
    </g>
    <g id="xtick_19">
     <g id="line2d_19">
      <g>
       <use xlink:href="#md012149504" x="236.16" y="307.584" style="stroke: #000000; stroke-width: 0.8"/>
      </g>
     </g>
     <g id="text_19">
      <!-- q17 -->
      <g transform="translate(233.763847 324.013932) rotate(-45) scale(0.05 -0.05)">
       <use xlink:href="#DejaVuSans-71"/>
       <use xlink:href="#DejaVuSans-31" transform="translate(63.476562 0)"/>
       <use xlink:href="#DejaVuSans-37" transform="translate(127.099609 0)"/>
      </g>
     </g>
    </g>
    <g id="xtick_20">
     <g id="line2d_20">
      <g>
       <use xlink:href="#md012149504" x="245.811892" y="307.584" style="stroke: #000000; stroke-width: 0.8"/>
      </g>
     </g>
     <g id="text_20">
      <!-- q19 -->
      <g transform="translate(243.415739 324.013932) rotate(-45) scale(0.05 -0.05)">
       <use xlink:href="#DejaVuSans-71"/>
       <use xlink:href="#DejaVuSans-31" transform="translate(63.476562 0)"/>
       <use xlink:href="#DejaVuSans-39" transform="translate(127.099609 0)"/>
      </g>
     </g>
    </g>
    <g id="xtick_21">
     <g id="line2d_21">
      <g>
       <use xlink:href="#md012149504" x="255.463784" y="307.584" style="stroke: #000000; stroke-width: 0.8"/>
      </g>
     </g>
     <g id="text_21">
      <!-- q20 -->
      <g transform="translate(253.067631 324.013932) rotate(-45) scale(0.05 -0.05)">
       <use xlink:href="#DejaVuSans-71"/>
       <use xlink:href="#DejaVuSans-32" transform="translate(63.476562 0)"/>
       <use xlink:href="#DejaVuSans-30" transform="translate(127.099609 0)"/>
      </g>
     </g>
    </g>
    <g id="xtick_22">
     <g id="line2d_22">
      <g>
       <use xlink:href="#md012149504" x="265.115676" y="307.584" style="stroke: #000000; stroke-width: 0.8"/>
      </g>
     </g>
     <g id="text_22">
      <!-- q21 -->
      <g transform="translate(262.719523 324.013932) rotate(-45) scale(0.05 -0.05)">
       <use xlink:href="#DejaVuSans-71"/>
       <use xlink:href="#DejaVuSans-32" transform="translate(63.476562 0)"/>
       <use xlink:href="#DejaVuSans-31" transform="translate(127.099609 0)"/>
      </g>
     </g>
    </g>
    <g id="xtick_23">
     <g id="line2d_23">
      <g>
       <use xlink:href="#md012149504" x="274.767568" y="307.584" style="stroke: #000000; stroke-width: 0.8"/>
      </g>
     </g>
     <g id="text_23">
      <!-- q24 -->
      <g transform="translate(272.371415 324.013932) rotate(-45) scale(0.05 -0.05)">
       <use xlink:href="#DejaVuSans-71"/>
       <use xlink:href="#DejaVuSans-32" transform="translate(63.476562 0)"/>
       <use xlink:href="#DejaVuSans-34" transform="translate(127.099609 0)"/>
      </g>
     </g>
    </g>
    <g id="xtick_24">
     <g id="line2d_24">
      <g>
       <use xlink:href="#md012149504" x="284.419459" y="307.584" style="stroke: #000000; stroke-width: 0.8"/>
      </g>
     </g>
     <g id="text_24">
      <!-- q25 -->
      <g transform="translate(282.023307 324.013932) rotate(-45) scale(0.05 -0.05)">
       <use xlink:href="#DejaVuSans-71"/>
       <use xlink:href="#DejaVuSans-32" transform="translate(63.476562 0)"/>
       <use xlink:href="#DejaVuSans-35" transform="translate(127.099609 0)"/>
      </g>
     </g>
    </g>
    <g id="xtick_25">
     <g id="line2d_25">
      <g>
       <use xlink:href="#md012149504" x="294.071351" y="307.584" style="stroke: #000000; stroke-width: 0.8"/>
      </g>
     </g>
     <g id="text_25">
      <!-- q26 -->
      <g transform="translate(291.675198 324.013932) rotate(-45) scale(0.05 -0.05)">
       <use xlink:href="#DejaVuSans-71"/>
       <use xlink:href="#DejaVuSans-32" transform="translate(63.476562 0)"/>
       <use xlink:href="#DejaVuSans-36" transform="translate(127.099609 0)"/>
      </g>
     </g>
    </g>
    <g id="xtick_26">
     <g id="line2d_26">
      <g>
       <use xlink:href="#md012149504" x="303.723243" y="307.584" style="stroke: #000000; stroke-width: 0.8"/>
      </g>
     </g>
     <g id="text_26">
      <!-- q27 -->
      <g transform="translate(301.32709 324.013932) rotate(-45) scale(0.05 -0.05)">
       <use xlink:href="#DejaVuSans-71"/>
       <use xlink:href="#DejaVuSans-32" transform="translate(63.476562 0)"/>
       <use xlink:href="#DejaVuSans-37" transform="translate(127.099609 0)"/>
      </g>
     </g>
    </g>
    <g id="xtick_27">
     <g id="line2d_27">
      <g>
       <use xlink:href="#md012149504" x="313.375135" y="307.584" style="stroke: #000000; stroke-width: 0.8"/>
      </g>
     </g>
     <g id="text_27">
      <!-- q29 -->
      <g transform="translate(310.978982 324.013932) rotate(-45) scale(0.05 -0.05)">
       <use xlink:href="#DejaVuSans-71"/>
       <use xlink:href="#DejaVuSans-32" transform="translate(63.476562 0)"/>
       <use xlink:href="#DejaVuSans-39" transform="translate(127.099609 0)"/>
      </g>
     </g>
    </g>
    <g id="xtick_28">
     <g id="line2d_28">
      <g>
       <use xlink:href="#md012149504" x="323.027027" y="307.584" style="stroke: #000000; stroke-width: 0.8"/>
      </g>
     </g>
     <g id="text_28">
      <!-- q30 -->
      <g transform="translate(320.630874 324.013932) rotate(-45) scale(0.05 -0.05)">
       <use xlink:href="#DejaVuSans-71"/>
       <use xlink:href="#DejaVuSans-33" transform="translate(63.476562 0)"/>
       <use xlink:href="#DejaVuSans-30" transform="translate(127.099609 0)"/>
      </g>
     </g>
    </g>
    <g id="xtick_29">
     <g id="line2d_29">
      <g>
       <use xlink:href="#md012149504" x="332.678919" y="307.584" style="stroke: #000000; stroke-width: 0.8"/>
      </g>
     </g>
     <g id="text_29">
      <!-- q31 -->
      <g transform="translate(330.282766 324.013932) rotate(-45) scale(0.05 -0.05)">
       <use xlink:href="#DejaVuSans-71"/>
       <use xlink:href="#DejaVuSans-33" transform="translate(63.476562 0)"/>
       <use xlink:href="#DejaVuSans-31" transform="translate(127.099609 0)"/>
      </g>
     </g>
    </g>
    <g id="xtick_30">
     <g id="line2d_30">
      <g>
       <use xlink:href="#md012149504" x="342.330811" y="307.584" style="stroke: #000000; stroke-width: 0.8"/>
      </g>
     </g>
     <g id="text_30">
      <!-- q35 -->
      <g transform="translate(339.934658 324.013932) rotate(-45) scale(0.05 -0.05)">
       <use xlink:href="#DejaVuSans-71"/>
       <use xlink:href="#DejaVuSans-33" transform="translate(63.476562 0)"/>
       <use xlink:href="#DejaVuSans-35" transform="translate(127.099609 0)"/>
      </g>
     </g>
    </g>
    <g id="xtick_31">
     <g id="line2d_31">
      <g>
       <use xlink:href="#md012149504" x="351.982703" y="307.584" style="stroke: #000000; stroke-width: 0.8"/>
      </g>
     </g>
     <g id="text_31">
      <!-- q36 -->
      <g transform="translate(349.58655 324.013932) rotate(-45) scale(0.05 -0.05)">
       <use xlink:href="#DejaVuSans-71"/>
       <use xlink:href="#DejaVuSans-33" transform="translate(63.476562 0)"/>
       <use xlink:href="#DejaVuSans-36" transform="translate(127.099609 0)"/>
      </g>
     </g>
    </g>
    <g id="xtick_32">
     <g id="line2d_32">
      <g>
       <use xlink:href="#md012149504" x="361.634595" y="307.584" style="stroke: #000000; stroke-width: 0.8"/>
      </g>
     </g>
     <g id="text_32">
      <!-- q37 -->
      <g transform="translate(359.238442 324.013932) rotate(-45) scale(0.05 -0.05)">
       <use xlink:href="#DejaVuSans-71"/>
       <use xlink:href="#DejaVuSans-33" transform="translate(63.476562 0)"/>
       <use xlink:href="#DejaVuSans-37" transform="translate(127.099609 0)"/>
      </g>
     </g>
    </g>
    <g id="xtick_33">
     <g id="line2d_33">
      <g>
       <use xlink:href="#md012149504" x="371.286486" y="307.584" style="stroke: #000000; stroke-width: 0.8"/>
      </g>
     </g>
     <g id="text_33">
      <!-- q38 -->
      <g transform="translate(368.890334 324.013932) rotate(-45) scale(0.05 -0.05)">
       <use xlink:href="#DejaVuSans-71"/>
       <use xlink:href="#DejaVuSans-33" transform="translate(63.476562 0)"/>
       <use xlink:href="#DejaVuSans-38" transform="translate(127.099609 0)"/>
      </g>
     </g>
    </g>
    <g id="xtick_34">
     <g id="line2d_34">
      <g>
       <use xlink:href="#md012149504" x="380.938378" y="307.584" style="stroke: #000000; stroke-width: 0.8"/>
      </g>
     </g>
     <g id="text_34">
      <!-- q39 -->
      <g transform="translate(378.542226 324.013932) rotate(-45) scale(0.05 -0.05)">
       <use xlink:href="#DejaVuSans-71"/>
       <use xlink:href="#DejaVuSans-33" transform="translate(63.476562 0)"/>
       <use xlink:href="#DejaVuSans-39" transform="translate(127.099609 0)"/>
      </g>
     </g>
    </g>
    <g id="xtick_35">
     <g id="line2d_35">
      <g>
       <use xlink:href="#md012149504" x="390.59027" y="307.584" style="stroke: #000000; stroke-width: 0.8"/>
      </g>
     </g>
     <g id="text_35">
      <!-- q40 -->
      <g transform="translate(388.194117 324.013932) rotate(-45) scale(0.05 -0.05)">
       <use xlink:href="#DejaVuSans-71"/>
       <use xlink:href="#DejaVuSans-34" transform="translate(63.476562 0)"/>
       <use xlink:href="#DejaVuSans-30" transform="translate(127.099609 0)"/>
      </g>
     </g>
    </g>
    <g id="xtick_36">
     <g id="line2d_36">
      <g>
       <use xlink:href="#md012149504" x="400.242162" y="307.584" style="stroke: #000000; stroke-width: 0.8"/>
      </g>
     </g>
     <g id="text_36">
      <!-- q41 -->
      <g transform="translate(397.846009 324.013932) rotate(-45) scale(0.05 -0.05)">
       <use xlink:href="#DejaVuSans-71"/>
       <use xlink:href="#DejaVuSans-34" transform="translate(63.476562 0)"/>
       <use xlink:href="#DejaVuSans-31" transform="translate(127.099609 0)"/>
      </g>
     </g>
    </g>
    <g id="xtick_37">
     <g id="line2d_37">
      <g>
       <use xlink:href="#md012149504" x="409.894054" y="307.584" style="stroke: #000000; stroke-width: 0.8"/>
      </g>
     </g>
     <g id="text_37">
      <!-- q42 -->
      <g transform="translate(407.497901 324.013932) rotate(-45) scale(0.05 -0.05)">
       <use xlink:href="#DejaVuSans-71"/>
       <use xlink:href="#DejaVuSans-34" transform="translate(63.476562 0)"/>
       <use xlink:href="#DejaVuSans-32" transform="translate(127.099609 0)"/>
      </g>
     </g>
    </g>
    <g id="text_38">
     <!-- Queries -->
     <g transform="translate(216.852969 336.34765) scale(0.1 -0.1)">
      <defs>
       <path id="DejaVuSans-51" d="M 2522 4238 
Q 1834 4238 1429 3725 
Q 1025 3213 1025 2328 
Q 1025 1447 1429 934 
Q 1834 422 2522 422 
Q 3209 422 3611 934 
Q 4013 1447 4013 2328 
Q 4013 3213 3611 3725 
Q 3209 4238 2522 4238 
z
M 3406 84 
L 4238 -825 
L 3475 -825 
L 2784 -78 
Q 2681 -84 2626 -87 
Q 2572 -91 2522 -91 
Q 1538 -91 948 567 
Q 359 1225 359 2328 
Q 359 3434 948 4092 
Q 1538 4750 2522 4750 
Q 3503 4750 4090 4092 
Q 4678 3434 4678 2328 
Q 4678 1516 4351 937 
Q 4025 359 3406 84 
z
" transform="scale(0.015625)"/>
       <path id="DejaVuSans-75" d="M 544 1381 
L 544 3500 
L 1119 3500 
L 1119 1403 
Q 1119 906 1312 657 
Q 1506 409 1894 409 
Q 2359 409 2629 706 
Q 2900 1003 2900 1516 
L 2900 3500 
L 3475 3500 
L 3475 0 
L 2900 0 
L 2900 538 
Q 2691 219 2414 64 
Q 2138 -91 1772 -91 
Q 1169 -91 856 284 
Q 544 659 544 1381 
z
M 1991 3584 
L 1991 3584 
z
" transform="scale(0.015625)"/>
       <path id="DejaVuSans-65" d="M 3597 1894 
L 3597 1613 
L 953 1613 
Q 991 1019 1311 708 
Q 1631 397 2203 397 
Q 2534 397 2845 478 
Q 3156 559 3463 722 
L 3463 178 
Q 3153 47 2828 -22 
Q 2503 -91 2169 -91 
Q 1331 -91 842 396 
Q 353 884 353 1716 
Q 353 2575 817 3079 
Q 1281 3584 2069 3584 
Q 2775 3584 3186 3129 
Q 3597 2675 3597 1894 
z
M 3022 2063 
Q 3016 2534 2758 2815 
Q 2500 3097 2075 3097 
Q 1594 3097 1305 2825 
Q 1016 2553 972 2059 
L 3022 2063 
z
" transform="scale(0.015625)"/>
       <path id="DejaVuSans-72" d="M 2631 2963 
Q 2534 3019 2420 3045 
Q 2306 3072 2169 3072 
Q 1681 3072 1420 2755 
Q 1159 2438 1159 1844 
L 1159 0 
L 581 0 
L 581 3500 
L 1159 3500 
L 1159 2956 
Q 1341 3275 1631 3429 
Q 1922 3584 2338 3584 
Q 2397 3584 2469 3576 
Q 2541 3569 2628 3553 
L 2631 2963 
z
" transform="scale(0.015625)"/>
       <path id="DejaVuSans-69" d="M 603 3500 
L 1178 3500 
L 1178 0 
L 603 0 
L 603 3500 
z
M 603 4863 
L 1178 4863 
L 1178 4134 
L 603 4134 
L 603 4863 
z
" transform="scale(0.015625)"/>
       <path id="DejaVuSans-73" d="M 2834 3397 
L 2834 2853 
Q 2591 2978 2328 3040 
Q 2066 3103 1784 3103 
Q 1356 3103 1142 2972 
Q 928 2841 928 2578 
Q 928 2378 1081 2264 
Q 1234 2150 1697 2047 
L 1894 2003 
Q 2506 1872 2764 1633 
Q 3022 1394 3022 966 
Q 3022 478 2636 193 
Q 2250 -91 1575 -91 
Q 1294 -91 989 -36 
Q 684 19 347 128 
L 347 722 
Q 666 556 975 473 
Q 1284 391 1588 391 
Q 1994 391 2212 530 
Q 2431 669 2431 922 
Q 2431 1156 2273 1281 
Q 2116 1406 1581 1522 
L 1381 1569 
Q 847 1681 609 1914 
Q 372 2147 372 2553 
Q 372 3047 722 3315 
Q 1072 3584 1716 3584 
Q 2034 3584 2315 3537 
Q 2597 3491 2834 3397 
z
" transform="scale(0.015625)"/>
      </defs>
      <use xlink:href="#DejaVuSans-51"/>
      <use xlink:href="#DejaVuSans-75" transform="translate(78.710938 0)"/>
      <use xlink:href="#DejaVuSans-65" transform="translate(142.089844 0)"/>
      <use xlink:href="#DejaVuSans-72" transform="translate(203.613281 0)"/>
      <use xlink:href="#DejaVuSans-69" transform="translate(244.726562 0)"/>
      <use xlink:href="#DejaVuSans-65" transform="translate(272.509766 0)"/>
      <use xlink:href="#DejaVuSans-73" transform="translate(334.033203 0)"/>
     </g>
    </g>
   </g>
   <g id="matplotlib.axis_2">
    <g id="ytick_1">
     <g id="line2d_38">
      <defs>
       <path id="m672700e2e6" d="M 0 0 
L -3.5 0 
" style="stroke: #000000; stroke-width: 0.8"/>
      </defs>
      <g>
       <use xlink:href="#m672700e2e6" x="57.6" y="307.584" style="stroke: #000000; stroke-width: 0.8"/>
      </g>
     </g>
     <g id="text_39">
      <!-- 0 -->
      <g transform="translate(44.2375 311.383219) scale(0.1 -0.1)">
       <use xlink:href="#DejaVuSans-30"/>
      </g>
     </g>
    </g>
    <g id="ytick_2">
     <g id="line2d_39">
      <g>
       <use xlink:href="#m672700e2e6" x="57.6" y="274.894727" style="stroke: #000000; stroke-width: 0.8"/>
      </g>
     </g>
     <g id="text_40">
      <!-- 2 -->
      <g transform="translate(44.2375 278.693946) scale(0.1 -0.1)">
       <use xlink:href="#DejaVuSans-32"/>
      </g>
     </g>
    </g>
    <g id="ytick_3">
     <g id="line2d_40">
      <g>
       <use xlink:href="#m672700e2e6" x="57.6" y="242.205454" style="stroke: #000000; stroke-width: 0.8"/>
      </g>
     </g>
     <g id="text_41">
      <!-- 4 -->
      <g transform="translate(44.2375 246.004673) scale(0.1 -0.1)">
       <use xlink:href="#DejaVuSans-34"/>
      </g>
     </g>
    </g>
    <g id="ytick_4">
     <g id="line2d_41">
      <g>
       <use xlink:href="#m672700e2e6" x="57.6" y="209.516181" style="stroke: #000000; stroke-width: 0.8"/>
      </g>
     </g>
     <g id="text_42">
      <!-- 6 -->
      <g transform="translate(44.2375 213.3154) scale(0.1 -0.1)">
       <use xlink:href="#DejaVuSans-36"/>
      </g>
     </g>
    </g>
    <g id="ytick_5">
     <g id="line2d_42">
      <g>
       <use xlink:href="#m672700e2e6" x="57.6" y="176.826908" style="stroke: #000000; stroke-width: 0.8"/>
      </g>
     </g>
     <g id="text_43">
      <!-- 8 -->
      <g transform="translate(44.2375 180.626127) scale(0.1 -0.1)">
       <use xlink:href="#DejaVuSans-38"/>
      </g>
     </g>
    </g>
    <g id="ytick_6">
     <g id="line2d_43">
      <g>
       <use xlink:href="#m672700e2e6" x="57.6" y="144.137635" style="stroke: #000000; stroke-width: 0.8"/>
      </g>
     </g>
     <g id="text_44">
      <!-- 10 -->
      <g transform="translate(37.875 147.936854) scale(0.1 -0.1)">
       <use xlink:href="#DejaVuSans-31"/>
       <use xlink:href="#DejaVuSans-30" transform="translate(63.623047 0)"/>
      </g>
     </g>
    </g>
    <g id="ytick_7">
     <g id="line2d_44">
      <g>
       <use xlink:href="#m672700e2e6" x="57.6" y="111.448362" style="stroke: #000000; stroke-width: 0.8"/>
      </g>
     </g>
     <g id="text_45">
      <!-- 12 -->
      <g transform="translate(37.875 115.247581) scale(0.1 -0.1)">
       <use xlink:href="#DejaVuSans-31"/>
       <use xlink:href="#DejaVuSans-32" transform="translate(63.623047 0)"/>
      </g>
     </g>
    </g>
    <g id="ytick_8">
     <g id="line2d_45">
      <g>
       <use xlink:href="#m672700e2e6" x="57.6" y="78.759089" style="stroke: #000000; stroke-width: 0.8"/>
      </g>
     </g>
     <g id="text_46">
      <!-- 14 -->
      <g transform="translate(37.875 82.558308) scale(0.1 -0.1)">
       <use xlink:href="#DejaVuSans-31"/>
       <use xlink:href="#DejaVuSans-34" transform="translate(63.623047 0)"/>
      </g>
     </g>
    </g>
    <g id="ytick_9">
     <g id="line2d_46">
      <g>
       <use xlink:href="#m672700e2e6" x="57.6" y="46.069817" style="stroke: #000000; stroke-width: 0.8"/>
      </g>
     </g>
     <g id="text_47">
      <!-- 16 -->
      <g transform="translate(37.875 49.869035) scale(0.1 -0.1)">
       <use xlink:href="#DejaVuSans-31"/>
       <use xlink:href="#DejaVuSans-36" transform="translate(63.623047 0)"/>
      </g>
     </g>
    </g>
    <g id="text_48">
     <!-- Seconds -->
     <g transform="translate(31.795312 195.535031) rotate(-90) scale(0.1 -0.1)">
      <defs>
       <path id="DejaVuSans-53" d="M 3425 4513 
L 3425 3897 
Q 3066 4069 2747 4153 
Q 2428 4238 2131 4238 
Q 1616 4238 1336 4038 
Q 1056 3838 1056 3469 
Q 1056 3159 1242 3001 
Q 1428 2844 1947 2747 
L 2328 2669 
Q 3034 2534 3370 2195 
Q 3706 1856 3706 1288 
Q 3706 609 3251 259 
Q 2797 -91 1919 -91 
Q 1588 -91 1214 -16 
Q 841 59 441 206 
L 441 856 
Q 825 641 1194 531 
Q 1563 422 1919 422 
Q 2459 422 2753 634 
Q 3047 847 3047 1241 
Q 3047 1584 2836 1778 
Q 2625 1972 2144 2069 
L 1759 2144 
Q 1053 2284 737 2584 
Q 422 2884 422 3419 
Q 422 4038 858 4394 
Q 1294 4750 2059 4750 
Q 2388 4750 2728 4690 
Q 3069 4631 3425 4513 
z
" transform="scale(0.015625)"/>
       <path id="DejaVuSans-63" d="M 3122 3366 
L 3122 2828 
Q 2878 2963 2633 3030 
Q 2388 3097 2138 3097 
Q 1578 3097 1268 2742 
Q 959 2388 959 1747 
Q 959 1106 1268 751 
Q 1578 397 2138 397 
Q 2388 397 2633 464 
Q 2878 531 3122 666 
L 3122 134 
Q 2881 22 2623 -34 
Q 2366 -91 2075 -91 
Q 1284 -91 818 406 
Q 353 903 353 1747 
Q 353 2603 823 3093 
Q 1294 3584 2113 3584 
Q 2378 3584 2631 3529 
Q 2884 3475 3122 3366 
z
" transform="scale(0.015625)"/>
       <path id="DejaVuSans-6f" d="M 1959 3097 
Q 1497 3097 1228 2736 
Q 959 2375 959 1747 
Q 959 1119 1226 758 
Q 1494 397 1959 397 
Q 2419 397 2687 759 
Q 2956 1122 2956 1747 
Q 2956 2369 2687 2733 
Q 2419 3097 1959 3097 
z
M 1959 3584 
Q 2709 3584 3137 3096 
Q 3566 2609 3566 1747 
Q 3566 888 3137 398 
Q 2709 -91 1959 -91 
Q 1206 -91 779 398 
Q 353 888 353 1747 
Q 353 2609 779 3096 
Q 1206 3584 1959 3584 
z
" transform="scale(0.015625)"/>
       <path id="DejaVuSans-6e" d="M 3513 2113 
L 3513 0 
L 2938 0 
L 2938 2094 
Q 2938 2591 2744 2837 
Q 2550 3084 2163 3084 
Q 1697 3084 1428 2787 
Q 1159 2491 1159 1978 
L 1159 0 
L 581 0 
L 581 3500 
L 1159 3500 
L 1159 2956 
Q 1366 3272 1645 3428 
Q 1925 3584 2291 3584 
Q 2894 3584 3203 3211 
Q 3513 2838 3513 2113 
z
" transform="scale(0.015625)"/>
       <path id="DejaVuSans-64" d="M 2906 2969 
L 2906 4863 
L 3481 4863 
L 3481 0 
L 2906 0 
L 2906 525 
Q 2725 213 2448 61 
Q 2172 -91 1784 -91 
Q 1150 -91 751 415 
Q 353 922 353 1747 
Q 353 2572 751 3078 
Q 1150 3584 1784 3584 
Q 2172 3584 2448 3432 
Q 2725 3281 2906 2969 
z
M 947 1747 
Q 947 1113 1208 752 
Q 1469 391 1925 391 
Q 2381 391 2643 752 
Q 2906 1113 2906 1747 
Q 2906 2381 2643 2742 
Q 2381 3103 1925 3103 
Q 1469 3103 1208 2742 
Q 947 2381 947 1747 
z
" transform="scale(0.015625)"/>
      </defs>
      <use xlink:href="#DejaVuSans-53"/>
      <use xlink:href="#DejaVuSans-65" transform="translate(63.476562 0)"/>
      <use xlink:href="#DejaVuSans-63" transform="translate(125 0)"/>
      <use xlink:href="#DejaVuSans-6f" transform="translate(179.980469 0)"/>
      <use xlink:href="#DejaVuSans-6e" transform="translate(241.162109 0)"/>
      <use xlink:href="#DejaVuSans-64" transform="translate(304.541016 0)"/>
      <use xlink:href="#DejaVuSans-73" transform="translate(368.017578 0)"/>
     </g>
    </g>
   </g>
   <g id="patch_114">
    <path d="M 57.6 307.584 
L 57.6 41.472 
" style="fill: none; stroke: #000000; stroke-width: 0.8; stroke-linejoin: miter; stroke-linecap: square"/>
   </g>
   <g id="patch_115">
    <path d="M 414.72 307.584 
L 414.72 41.472 
" style="fill: none; stroke: #000000; stroke-width: 0.8; stroke-linejoin: miter; stroke-linecap: square"/>
   </g>
   <g id="patch_116">
    <path d="M 57.6 307.584 
L 414.72 307.584 
" style="fill: none; stroke: #000000; stroke-width: 0.8; stroke-linejoin: miter; stroke-linecap: square"/>
   </g>
   <g id="patch_117">
    <path d="M 57.6 41.472 
L 414.72 41.472 
" style="fill: none; stroke: #000000; stroke-width: 0.8; stroke-linejoin: miter; stroke-linecap: square"/>
   </g>
   <g id="text_49">
    <!-- ClickBench Fast Queries -->
    <g transform="translate(164.110313 35.472) scale(0.12 -0.12)">
     <defs>
      <path id="DejaVuSans-43" d="M 4122 4306 
L 4122 3641 
Q 3803 3938 3442 4084 
Q 3081 4231 2675 4231 
Q 1875 4231 1450 3742 
Q 1025 3253 1025 2328 
Q 1025 1406 1450 917 
Q 1875 428 2675 428 
Q 3081 428 3442 575 
Q 3803 722 4122 1019 
L 4122 359 
Q 3791 134 3420 21 
Q 3050 -91 2638 -91 
Q 1578 -91 968 557 
Q 359 1206 359 2328 
Q 359 3453 968 4101 
Q 1578 4750 2638 4750 
Q 3056 4750 3426 4639 
Q 3797 4528 4122 4306 
z
" transform="scale(0.015625)"/>
      <path id="DejaVuSans-6c" d="M 603 4863 
L 1178 4863 
L 1178 0 
L 603 0 
L 603 4863 
z
" transform="scale(0.015625)"/>
      <path id="DejaVuSans-6b" d="M 581 4863 
L 1159 4863 
L 1159 1991 
L 2875 3500 
L 3609 3500 
L 1753 1863 
L 3688 0 
L 2938 0 
L 1159 1709 
L 1159 0 
L 581 0 
L 581 4863 
z
" transform="scale(0.015625)"/>
      <path id="DejaVuSans-42" d="M 1259 2228 
L 1259 519 
L 2272 519 
Q 2781 519 3026 730 
Q 3272 941 3272 1375 
Q 3272 1813 3026 2020 
Q 2781 2228 2272 2228 
L 1259 2228 
z
M 1259 4147 
L 1259 2741 
L 2194 2741 
Q 2656 2741 2882 2914 
Q 3109 3088 3109 3444 
Q 3109 3797 2882 3972 
Q 2656 4147 2194 4147 
L 1259 4147 
z
M 628 4666 
L 2241 4666 
Q 2963 4666 3353 4366 
Q 3744 4066 3744 3513 
Q 3744 3084 3544 2831 
Q 3344 2578 2956 2516 
Q 3422 2416 3680 2098 
Q 3938 1781 3938 1306 
Q 3938 681 3513 340 
Q 3088 0 2303 0 
L 628 0 
L 628 4666 
z
" transform="scale(0.015625)"/>
      <path id="DejaVuSans-68" d="M 3513 2113 
L 3513 0 
L 2938 0 
L 2938 2094 
Q 2938 2591 2744 2837 
Q 2550 3084 2163 3084 
Q 1697 3084 1428 2787 
Q 1159 2491 1159 1978 
L 1159 0 
L 581 0 
L 581 4863 
L 1159 4863 
L 1159 2956 
Q 1366 3272 1645 3428 
Q 1925 3584 2291 3584 
Q 2894 3584 3203 3211 
Q 3513 2838 3513 2113 
z
" transform="scale(0.015625)"/>
      <path id="DejaVuSans-20" transform="scale(0.015625)"/>
      <path id="DejaVuSans-46" d="M 628 4666 
L 3309 4666 
L 3309 4134 
L 1259 4134 
L 1259 2759 
L 3109 2759 
L 3109 2228 
L 1259 2228 
L 1259 0 
L 628 0 
L 628 4666 
z
" transform="scale(0.015625)"/>
      <path id="DejaVuSans-61" d="M 2194 1759 
Q 1497 1759 1228 1600 
Q 959 1441 959 1056 
Q 959 750 1161 570 
Q 1363 391 1709 391 
Q 2188 391 2477 730 
Q 2766 1069 2766 1631 
L 2766 1759 
L 2194 1759 
z
M 3341 1997 
L 3341 0 
L 2766 0 
L 2766 531 
Q 2569 213 2275 61 
Q 1981 -91 1556 -91 
Q 1019 -91 701 211 
Q 384 513 384 1019 
Q 384 1609 779 1909 
Q 1175 2209 1959 2209 
L 2766 2209 
L 2766 2266 
Q 2766 2663 2505 2880 
Q 2244 3097 1772 3097 
Q 1472 3097 1187 3025 
Q 903 2953 641 2809 
L 641 3341 
Q 956 3463 1253 3523 
Q 1550 3584 1831 3584 
Q 2591 3584 2966 3190 
Q 3341 2797 3341 1997 
z
" transform="scale(0.015625)"/>
      <path id="DejaVuSans-74" d="M 1172 4494 
L 1172 3500 
L 2356 3500 
L 2356 3053 
L 1172 3053 
L 1172 1153 
Q 1172 725 1289 603 
Q 1406 481 1766 481 
L 2356 481 
L 2356 0 
L 1766 0 
Q 1100 0 847 248 
Q 594 497 594 1153 
L 594 3053 
L 172 3053 
L 172 3500 
L 594 3500 
L 594 4494 
L 1172 4494 
z
" transform="scale(0.015625)"/>
     </defs>
     <use xlink:href="#DejaVuSans-43"/>
     <use xlink:href="#DejaVuSans-6c" transform="translate(69.824219 0)"/>
     <use xlink:href="#DejaVuSans-69" transform="translate(97.607422 0)"/>
     <use xlink:href="#DejaVuSans-63" transform="translate(125.390625 0)"/>
     <use xlink:href="#DejaVuSans-6b" transform="translate(180.371094 0)"/>
     <use xlink:href="#DejaVuSans-42" transform="translate(238.28125 0)"/>
     <use xlink:href="#DejaVuSans-65" transform="translate(306.884766 0)"/>
     <use xlink:href="#DejaVuSans-6e" transform="translate(368.408203 0)"/>
     <use xlink:href="#DejaVuSans-63" transform="translate(431.787109 0)"/>
     <use xlink:href="#DejaVuSans-68" transform="translate(486.767578 0)"/>
     <use xlink:href="#DejaVuSans-20" transform="translate(550.146484 0)"/>
     <use xlink:href="#DejaVuSans-46" transform="translate(581.933594 0)"/>
     <use xlink:href="#DejaVuSans-61" transform="translate(630.328125 0)"/>
     <use xlink:href="#DejaVuSans-73" transform="translate(691.607422 0)"/>
     <use xlink:href="#DejaVuSans-74" transform="translate(743.707031 0)"/>
     <use xlink:href="#DejaVuSans-20" transform="translate(782.916016 0)"/>
     <use xlink:href="#DejaVuSans-51" transform="translate(814.703125 0)"/>
     <use xlink:href="#DejaVuSans-75" transform="translate(893.414062 0)"/>
     <use xlink:href="#DejaVuSans-65" transform="translate(956.792969 0)"/>
     <use xlink:href="#DejaVuSans-72" transform="translate(1018.316406 0)"/>
     <use xlink:href="#DejaVuSans-69" transform="translate(1059.429688 0)"/>
     <use xlink:href="#DejaVuSans-65" transform="translate(1087.212891 0)"/>
     <use xlink:href="#DejaVuSans-73" transform="translate(1148.736328 0)"/>
    </g>
   </g>
   <g id="legend_1">
    <g id="patch_118">
     <path d="M 322.893438 93.506375 
L 407.72 93.506375 
Q 409.72 93.506375 409.72 91.506375 
L 409.72 48.472 
Q 409.72 46.472 407.72 46.472 
L 322.893438 46.472 
Q 320.893438 46.472 320.893438 48.472 
L 320.893438 91.506375 
Q 320.893438 93.506375 322.893438 93.506375 
z
" style="fill: #ffffff; opacity: 0.8; stroke: #cccccc; stroke-linejoin: miter"/>
    </g>
    <g id="patch_119">
     <path d="M 324.893438 58.070438 
L 344.893438 58.070438 
L 344.893438 51.070438 
L 324.893438 51.070438 
z
" style="fill: #1f77b4"/>
    </g>
    <g id="text_50">
     <!-- polars -->
     <g transform="translate(352.893438 58.070438) scale(0.1 -0.1)">
      <defs>
       <path id="DejaVuSans-70" d="M 1159 525 
L 1159 -1331 
L 581 -1331 
L 581 3500 
L 1159 3500 
L 1159 2969 
Q 1341 3281 1617 3432 
Q 1894 3584 2278 3584 
Q 2916 3584 3314 3078 
Q 3713 2572 3713 1747 
Q 3713 922 3314 415 
Q 2916 -91 2278 -91 
Q 1894 -91 1617 61 
Q 1341 213 1159 525 
z
M 3116 1747 
Q 3116 2381 2855 2742 
Q 2594 3103 2138 3103 
Q 1681 3103 1420 2742 
Q 1159 2381 1159 1747 
Q 1159 1113 1420 752 
Q 1681 391 2138 391 
Q 2594 391 2855 752 
Q 3116 1113 3116 1747 
z
" transform="scale(0.015625)"/>
      </defs>
      <use xlink:href="#DejaVuSans-70"/>
      <use xlink:href="#DejaVuSans-6f" transform="translate(63.476562 0)"/>
      <use xlink:href="#DejaVuSans-6c" transform="translate(124.658203 0)"/>
      <use xlink:href="#DejaVuSans-61" transform="translate(152.441406 0)"/>
      <use xlink:href="#DejaVuSans-72" transform="translate(213.720703 0)"/>
      <use xlink:href="#DejaVuSans-73" transform="translate(254.833984 0)"/>
     </g>
    </g>
    <g id="patch_120">
     <path d="M 324.893438 72.748563 
L 344.893438 72.748563 
L 344.893438 65.748563 
L 324.893438 65.748563 
z
" style="fill: #ff7f0e"/>
    </g>
    <g id="text_51">
     <!-- datafusion -->
     <g transform="translate(352.893438 72.748563) scale(0.1 -0.1)">
      <defs>
       <path id="DejaVuSans-66" d="M 2375 4863 
L 2375 4384 
L 1825 4384 
Q 1516 4384 1395 4259 
Q 1275 4134 1275 3809 
L 1275 3500 
L 2222 3500 
L 2222 3053 
L 1275 3053 
L 1275 0 
L 697 0 
L 697 3053 
L 147 3053 
L 147 3500 
L 697 3500 
L 697 3744 
Q 697 4328 969 4595 
Q 1241 4863 1831 4863 
L 2375 4863 
z
" transform="scale(0.015625)"/>
      </defs>
      <use xlink:href="#DejaVuSans-64"/>
      <use xlink:href="#DejaVuSans-61" transform="translate(63.476562 0)"/>
      <use xlink:href="#DejaVuSans-74" transform="translate(124.755859 0)"/>
      <use xlink:href="#DejaVuSans-61" transform="translate(163.964844 0)"/>
      <use xlink:href="#DejaVuSans-66" transform="translate(225.244141 0)"/>
      <use xlink:href="#DejaVuSans-75" transform="translate(260.449219 0)"/>
      <use xlink:href="#DejaVuSans-73" transform="translate(323.828125 0)"/>
      <use xlink:href="#DejaVuSans-69" transform="translate(375.927734 0)"/>
      <use xlink:href="#DejaVuSans-6f" transform="translate(403.710938 0)"/>
      <use xlink:href="#DejaVuSans-6e" transform="translate(464.892578 0)"/>
     </g>
    </g>
    <g id="patch_121">
     <path d="M 324.893438 87.426688 
L 344.893438 87.426688 
L 344.893438 80.426688 
L 324.893438 80.426688 
z
" style="fill: #2ca02c"/>
    </g>
    <g id="text_52">
     <!-- duckdb -->
     <g transform="translate(352.893438 87.426688) scale(0.1 -0.1)">
      <defs>
       <path id="DejaVuSans-62" d="M 3116 1747 
Q 3116 2381 2855 2742 
Q 2594 3103 2138 3103 
Q 1681 3103 1420 2742 
Q 1159 2381 1159 1747 
Q 1159 1113 1420 752 
Q 1681 391 2138 391 
Q 2594 391 2855 752 
Q 3116 1113 3116 1747 
z
M 1159 2969 
Q 1341 3281 1617 3432 
Q 1894 3584 2278 3584 
Q 2916 3584 3314 3078 
Q 3713 2572 3713 1747 
Q 3713 922 3314 415 
Q 2916 -91 2278 -91 
Q 1894 -91 1617 61 
Q 1341 213 1159 525 
L 1159 0 
L 581 0 
L 581 4863 
L 1159 4863 
L 1159 2969 
z
" transform="scale(0.015625)"/>
      </defs>
      <use xlink:href="#DejaVuSans-64"/>
      <use xlink:href="#DejaVuSans-75" transform="translate(63.476562 0)"/>
      <use xlink:href="#DejaVuSans-63" transform="translate(126.855469 0)"/>
      <use xlink:href="#DejaVuSans-6b" transform="translate(181.835938 0)"/>
      <use xlink:href="#DejaVuSans-64" transform="translate(239.746094 0)"/>
      <use xlink:href="#DejaVuSans-62" transform="translate(303.222656 0)"/>
     </g>
    </g>
   </g>
  </g>
 </g>
 <defs>
  <clipPath id="p7f78361af3">
   <rect x="57.6" y="41.472" width="357.12" height="266.112"/>
  </clipPath>
 </defs>
</svg>
