<?xml version="1.0" encoding="utf-8" standalone="no"?>
<!DOCTYPE svg PUBLIC "-//W3C//DTD SVG 1.1//EN"
  "http://www.w3.org/Graphics/SVG/1.1/DTD/svg11.dtd">
<svg xmlns:xlink="http://www.w3.org/1999/xlink" width="460.8pt" height="345.6pt" viewBox="0 0 460.8 345.6" xmlns="http://www.w3.org/2000/svg" version="1.1">
 <metadata>
  <rdf:RDF xmlns:dc="http://purl.org/dc/elements/1.1/" xmlns:cc="http://creativecommons.org/ns#" xmlns:rdf="http://www.w3.org/1999/02/22-rdf-syntax-ns#">
   <cc:Work>
    <dc:type rdf:resource="http://purl.org/dc/dcmitype/StillImage"/>
    <dc:date>2025-07-16T16:28:43.571423</dc:date>
    <dc:format>image/svg+xml</dc:format>
    <dc:creator>
     <cc:Agent>
      <dc:title>Matplotlib v3.10.3, https://matplotlib.org/</dc:title>
     </cc:Agent>
    </dc:creator>
   </cc:Work>
  </rdf:RDF>
 </metadata>
 <defs>
  <style type="text/css">*{stroke-linejoin: round; stroke-linecap: butt}</style>
 </defs>
 <g id="figure_1">
  <g id="patch_1">
   <path d="M 0 345.6 
L 460.8 345.6 
L 460.8 0 
L 0 0 
z
" style="fill: #ffffff"/>
  </g>
  <g id="axes_1">
   <g id="patch_2">
    <path d="M 57.6 307.584 
L 414.72 307.584 
L 414.72 41.472 
L 57.6 41.472 
z
" style="fill: #ffffff"/>
   </g>
   <g id="patch_3">
    <path d="M 62.851765 307.584 
L 65.477647 307.584 
L 65.477647 297.045346 
L 62.851765 297.045346 
z
" clip-path="url(#p2f1eea3c67)" style="fill: #1f77b4"/>
   </g>
   <g id="patch_4">
    <path d="M 83.858824 307.584 
L 86.484706 307.584 
L 86.484706 296.452581 
L 83.858824 296.452581 
z
" clip-path="url(#p2f1eea3c67)" style="fill: #1f77b4"/>
   </g>
   <g id="patch_5">
    <path d="M 104.865882 307.584 
L 107.491765 307.584 
L 107.491765 281.670798 
L 104.865882 281.670798 
z
" clip-path="url(#p2f1eea3c67)" style="fill: #1f77b4"/>
   </g>
   <g id="patch_6">
    <path d="M 125.872941 307.584 
L 128.498824 307.584 
L 128.498824 264.350749 
L 125.872941 264.350749 
z
" clip-path="url(#p2f1eea3c67)" style="fill: #1f77b4"/>
   </g>
   <g id="patch_7">
    <path d="M 146.88 307.584 
L 149.505882 307.584 
L 149.505882 307.330776 
L 146.88 307.330776 
z
" clip-path="url(#p2f1eea3c67)" style="fill: #1f77b4"/>
   </g>
   <g id="patch_8">
    <path d="M 167.887059 307.584 
L 170.512941 307.584 
L 170.512941 297.493991 
L 167.887059 297.493991 
z
" clip-path="url(#p2f1eea3c67)" style="fill: #1f77b4"/>
   </g>
   <g id="patch_9">
    <path d="M 188.894118 307.584 
L 191.52 307.584 
L 191.52 245.699798 
L 188.894118 245.699798 
z
" clip-path="url(#p2f1eea3c67)" style="fill: #1f77b4"/>
   </g>
   <g id="patch_10">
    <path d="M 209.901176 307.584 
L 212.527059 307.584 
L 212.527059 245.699798 
L 209.901176 245.699798 
z
" clip-path="url(#p2f1eea3c67)" style="fill: #1f77b4"/>
   </g>
   <g id="patch_11">
    <path d="M 230.908235 307.584 
L 233.534118 307.584 
L 233.534118 244.236587 
L 230.908235 244.236587 
z
" clip-path="url(#p2f1eea3c67)" style="fill: #1f77b4"/>
   </g>
   <g id="patch_12">
    <path d="M 251.915294 307.584 
L 254.541176 307.584 
L 254.541176 276.954805 
L 251.915294 276.954805 
z
" clip-path="url(#p2f1eea3c67)" style="fill: #1f77b4"/>
   </g>
   <g id="patch_13">
    <path d="M 272.922353 307.584 
L 275.548235 307.584 
L 275.548235 265.144065 
L 272.922353 265.144065 
z
" clip-path="url(#p2f1eea3c67)" style="fill: #1f77b4"/>
   </g>
   <g id="patch_14">
    <path d="M 293.929412 307.584 
L 296.555294 307.584 
L 296.555294 251.361101 
L 293.929412 251.361101 
z
" clip-path="url(#p2f1eea3c67)" style="fill: #1f77b4"/>
   </g>
   <g id="patch_15">
    <path d="M 314.936471 307.584 
L 317.562353 307.584 
L 317.562353 240.301741 
L 314.936471 240.301741 
z
" clip-path="url(#p2f1eea3c67)" style="fill: #1f77b4"/>
   </g>
   <g id="patch_16">
    <path d="M 335.943529 307.584 
L 338.569412 307.584 
L 338.569412 230.101614 
L 335.943529 230.101614 
z
" clip-path="url(#p2f1eea3c67)" style="fill: #1f77b4"/>
   </g>
   <g id="patch_17">
    <path d="M 356.950588 307.584 
L 359.576471 307.584 
L 359.576471 291.516948 
L 356.950588 291.516948 
z
" clip-path="url(#p2f1eea3c67)" style="fill: #1f77b4"/>
   </g>
   <g id="patch_18">
    <path d="M 377.957647 307.584 
L 380.583529 307.584 
L 380.583529 289.657407 
L 377.957647 289.657407 
z
" clip-path="url(#p2f1eea3c67)" style="fill: #1f77b4"/>
   </g>
   <g id="patch_19">
    <path d="M 398.964706 307.584 
L 401.590588 307.584 
L 401.590588 294.262386 
L 398.964706 294.262386 
z
" clip-path="url(#p2f1eea3c67)" style="fill: #1f77b4"/>
   </g>
   <g id="patch_20">
    <path d="M 65.477647 307.584 
L 68.103529 307.584 
L 68.103529 54.144 
L 65.477647 54.144 
z
" clip-path="url(#p2f1eea3c67)" style="fill: #ff7f0e"/>
   </g>
   <g id="patch_21">
    <path d="M 86.484706 307.584 
L 89.110588 307.584 
L 89.110588 227.471185 
L 86.484706 227.471185 
z
" clip-path="url(#p2f1eea3c67)" style="fill: #ff7f0e"/>
   </g>
   <g id="patch_22">
    <path d="M 107.491765 307.584 
L 110.117647 307.584 
L 110.117647 209.441036 
L 107.491765 209.441036 
z
" clip-path="url(#p2f1eea3c67)" style="fill: #ff7f0e"/>
   </g>
   <g id="patch_23">
    <path d="M 128.498824 307.584 
L 131.124706 307.584 
L 131.124706 207.372652 
L 128.498824 207.372652 
z
" clip-path="url(#p2f1eea3c67)" style="fill: #ff7f0e"/>
   </g>
   <g id="patch_24">
    <path d="M 149.505882 307.584 
L 152.131765 307.584 
L 152.131765 287.329535 
L 149.505882 287.329535 
z
" clip-path="url(#p2f1eea3c67)" style="fill: #ff7f0e"/>
   </g>
   <g id="patch_25">
    <path d="M 170.512941 307.584 
L 173.138824 307.584 
L 173.138824 89.886114 
L 170.512941 89.886114 
z
" clip-path="url(#p2f1eea3c67)" style="fill: #ff7f0e"/>
   </g>
   <g id="patch_26">
    <path d="M 191.52 307.584 
L 194.145882 307.584 
L 194.145882 201.304043 
L 191.52 201.304043 
z
" clip-path="url(#p2f1eea3c67)" style="fill: #ff7f0e"/>
   </g>
   <g id="patch_27">
    <path d="M 212.527059 307.584 
L 215.152941 307.584 
L 215.152941 201.304043 
L 212.527059 201.304043 
z
" clip-path="url(#p2f1eea3c67)" style="fill: #ff7f0e"/>
   </g>
   <g id="patch_28">
    <path d="M 233.534118 307.584 
L 236.16 307.584 
L 236.16 191.393468 
L 233.534118 191.393468 
z
" clip-path="url(#p2f1eea3c67)" style="fill: #ff7f0e"/>
   </g>
   <g id="patch_29">
    <path d="M 254.541176 307.584 
L 257.167059 307.584 
L 257.167059 241.019299 
L 254.541176 241.019299 
z
" clip-path="url(#p2f1eea3c67)" style="fill: #ff7f0e"/>
   </g>
   <g id="patch_30">
    <path d="M 275.548235 307.584 
L 278.174118 307.584 
L 278.174118 307.584 
L 275.548235 307.584 
z
" clip-path="url(#p2f1eea3c67)" style="fill: #ff7f0e"/>
   </g>
   <g id="patch_31">
    <path d="M 296.555294 307.584 
L 299.181176 307.584 
L 299.181176 307.584 
L 296.555294 307.584 
z
" clip-path="url(#p2f1eea3c67)" style="fill: #ff7f0e"/>
   </g>
   <g id="patch_32">
    <path d="M 317.562353 307.584 
L 320.188235 307.584 
L 320.188235 307.584 
L 317.562353 307.584 
z
" clip-path="url(#p2f1eea3c67)" style="fill: #ff7f0e"/>
   </g>
   <g id="patch_33">
    <path d="M 338.569412 307.584 
L 341.195294 307.584 
L 341.195294 307.584 
L 338.569412 307.584 
z
" clip-path="url(#p2f1eea3c67)" style="fill: #ff7f0e"/>
   </g>
   <g id="patch_34">
    <path d="M 359.576471 307.584 
L 362.202353 307.584 
L 362.202353 307.584 
L 359.576471 307.584 
z
" clip-path="url(#p2f1eea3c67)" style="fill: #ff7f0e"/>
   </g>
   <g id="patch_35">
    <path d="M 380.583529 307.584 
L 383.209412 307.584 
L 383.209412 307.584 
L 380.583529 307.584 
z
" clip-path="url(#p2f1eea3c67)" style="fill: #ff7f0e"/>
   </g>
   <g id="patch_36">
    <path d="M 401.590588 307.584 
L 404.216471 307.584 
L 404.216471 307.584 
L 401.590588 307.584 
z
" clip-path="url(#p2f1eea3c67)" style="fill: #ff7f0e"/>
   </g>
   <g id="patch_37">
    <path d="M 68.103529 307.584 
L 70.729412 307.584 
L 70.729412 274.619417 
L 68.103529 274.619417 
z
" clip-path="url(#p2f1eea3c67)" style="fill: #2ca02c"/>
   </g>
   <g id="patch_38">
    <path d="M 89.110588 307.584 
L 91.736471 307.584 
L 91.736471 293.537611 
L 89.110588 293.537611 
z
" clip-path="url(#p2f1eea3c67)" style="fill: #2ca02c"/>
   </g>
   <g id="patch_39">
    <path d="M 110.117647 307.584 
L 112.743529 307.584 
L 112.743529 273.862072 
L 110.117647 273.862072 
z
" clip-path="url(#p2f1eea3c67)" style="fill: #2ca02c"/>
   </g>
   <g id="patch_40">
    <path d="M 131.124706 307.584 
L 133.750588 307.584 
L 133.750588 267.507669 
L 131.124706 267.507669 
z
" clip-path="url(#p2f1eea3c67)" style="fill: #2ca02c"/>
   </g>
   <g id="patch_41">
    <path d="M 152.131765 307.584 
L 154.757647 307.584 
L 154.757647 291.431825 
L 152.131765 291.431825 
z
" clip-path="url(#p2f1eea3c67)" style="fill: #2ca02c"/>
   </g>
   <g id="patch_42">
    <path d="M 173.138824 307.584 
L 175.764706 307.584 
L 175.764706 294.508035 
L 173.138824 294.508035 
z
" clip-path="url(#p2f1eea3c67)" style="fill: #2ca02c"/>
   </g>
   <g id="patch_43">
    <path d="M 194.145882 307.584 
L 196.771765 307.584 
L 196.771765 262.271568 
L 194.145882 262.271568 
z
" clip-path="url(#p2f1eea3c67)" style="fill: #2ca02c"/>
   </g>
   <g id="patch_44">
    <path d="M 215.152941 307.584 
L 217.778824 307.584 
L 217.778824 265.814319 
L 215.152941 265.814319 
z
" clip-path="url(#p2f1eea3c67)" style="fill: #2ca02c"/>
   </g>
   <g id="patch_45">
    <path d="M 236.16 307.584 
L 238.785882 307.584 
L 238.785882 261.671525 
L 236.16 261.671525 
z
" clip-path="url(#p2f1eea3c67)" style="fill: #2ca02c"/>
   </g>
   <g id="patch_46">
    <path d="M 257.167059 307.584 
L 259.792941 307.584 
L 259.792941 285.972206 
L 257.167059 285.972206 
z
" clip-path="url(#p2f1eea3c67)" style="fill: #2ca02c"/>
   </g>
   <g id="patch_47">
    <path d="M 278.174118 307.584 
L 280.8 307.584 
L 280.8 281.701161 
L 278.174118 281.701161 
z
" clip-path="url(#p2f1eea3c67)" style="fill: #2ca02c"/>
   </g>
   <g id="patch_48">
    <path d="M 299.181176 307.584 
L 301.807059 307.584 
L 301.807059 283.3827 
L 299.181176 283.3827 
z
" clip-path="url(#p2f1eea3c67)" style="fill: #2ca02c"/>
   </g>
   <g id="patch_49">
    <path d="M 320.188235 307.584 
L 322.814118 307.584 
L 322.814118 290.85266 
L 320.188235 290.85266 
z
" clip-path="url(#p2f1eea3c67)" style="fill: #2ca02c"/>
   </g>
   <g id="patch_50">
    <path d="M 341.195294 307.584 
L 343.821176 307.584 
L 343.821176 267.188469 
L 341.195294 267.188469 
z
" clip-path="url(#p2f1eea3c67)" style="fill: #2ca02c"/>
   </g>
   <g id="patch_51">
    <path d="M 362.202353 307.584 
L 364.828235 307.584 
L 364.828235 294.926317 
L 362.202353 294.926317 
z
" clip-path="url(#p2f1eea3c67)" style="fill: #2ca02c"/>
   </g>
   <g id="patch_52">
    <path d="M 383.209412 307.584 
L 385.835294 307.584 
L 385.835294 296.267539 
L 383.209412 296.267539 
z
" clip-path="url(#p2f1eea3c67)" style="fill: #2ca02c"/>
   </g>
   <g id="patch_53">
    <path d="M 404.216471 307.584 
L 406.842353 307.584 
L 406.842353 307.584 
L 404.216471 307.584 
z
" clip-path="url(#p2f1eea3c67)" style="fill: #2ca02c"/>
   </g>
   <g id="patch_54">
    <path d="M 70.729412 307.584 
L 73.355294 307.584 
L 73.355294 145.517023 
L 70.729412 145.517023 
z
" clip-path="url(#p2f1eea3c67)" style="fill: #d62728"/>
   </g>
   <g id="patch_55">
    <path d="M 91.736471 307.584 
L 94.362353 307.584 
L 94.362353 304.720212 
L 91.736471 304.720212 
z
" clip-path="url(#p2f1eea3c67)" style="fill: #d62728"/>
   </g>
   <g id="patch_56">
    <path d="M 112.743529 307.584 
L 115.369412 307.584 
L 115.369412 304.57633 
L 112.743529 304.57633 
z
" clip-path="url(#p2f1eea3c67)" style="fill: #d62728"/>
   </g>
   <g id="patch_57">
    <path d="M 133.750588 307.584 
L 136.376471 307.584 
L 136.376471 240.976826 
L 133.750588 240.976826 
z
" clip-path="url(#p2f1eea3c67)" style="fill: #d62728"/>
   </g>
   <g id="patch_58">
    <path d="M 154.757647 307.584 
L 157.383529 307.584 
L 157.383529 300.916363 
L 154.757647 300.916363 
z
" clip-path="url(#p2f1eea3c67)" style="fill: #d62728"/>
   </g>
   <g id="patch_59">
    <path d="M 175.764706 307.584 
L 178.390588 307.584 
L 178.390588 304.982086 
L 175.764706 304.982086 
z
" clip-path="url(#p2f1eea3c67)" style="fill: #d62728"/>
   </g>
   <g id="patch_60">
    <path d="M 196.771765 307.584 
L 199.397647 307.584 
L 199.397647 276.363532 
L 196.771765 276.363532 
z
" clip-path="url(#p2f1eea3c67)" style="fill: #d62728"/>
   </g>
   <g id="patch_61">
    <path d="M 217.778824 307.584 
L 220.404706 307.584 
L 220.404706 276.363532 
L 217.778824 276.363532 
z
" clip-path="url(#p2f1eea3c67)" style="fill: #d62728"/>
   </g>
   <g id="patch_62">
    <path d="M 238.785882 307.584 
L 241.411765 307.584 
L 241.411765 272.310575 
L 238.785882 272.310575 
z
" clip-path="url(#p2f1eea3c67)" style="fill: #d62728"/>
   </g>
   <g id="patch_63">
    <path d="M 259.792941 307.584 
L 262.418824 307.584 
L 262.418824 286.815153 
L 259.792941 286.815153 
z
" clip-path="url(#p2f1eea3c67)" style="fill: #d62728"/>
   </g>
   <g id="patch_64">
    <path d="M 280.8 307.584 
L 283.425882 307.584 
L 283.425882 273.712165 
L 280.8 273.712165 
z
" clip-path="url(#p2f1eea3c67)" style="fill: #d62728"/>
   </g>
   <g id="patch_65">
    <path d="M 301.807059 307.584 
L 304.432941 307.584 
L 304.432941 294.770743 
L 301.807059 294.770743 
z
" clip-path="url(#p2f1eea3c67)" style="fill: #d62728"/>
   </g>
   <g id="patch_66">
    <path d="M 322.814118 307.584 
L 325.44 307.584 
L 325.44 300.876873 
L 322.814118 300.876873 
z
" clip-path="url(#p2f1eea3c67)" style="fill: #d62728"/>
   </g>
   <g id="patch_67">
    <path d="M 343.821176 307.584 
L 346.447059 307.584 
L 346.447059 272.555507 
L 343.821176 272.555507 
z
" clip-path="url(#p2f1eea3c67)" style="fill: #d62728"/>
   </g>
   <g id="patch_68">
    <path d="M 364.828235 307.584 
L 367.454118 307.584 
L 367.454118 297.719894 
L 364.828235 297.719894 
z
" clip-path="url(#p2f1eea3c67)" style="fill: #d62728"/>
   </g>
   <g id="patch_69">
    <path d="M 385.835294 307.584 
L 388.461176 307.584 
L 388.461176 305.633727 
L 385.835294 305.633727 
z
" clip-path="url(#p2f1eea3c67)" style="fill: #d62728"/>
   </g>
   <g id="patch_70">
    <path d="M 406.842353 307.584 
L 409.468235 307.584 
L 409.468235 305.081943 
L 406.842353 305.081943 
z
" clip-path="url(#p2f1eea3c67)" style="fill: #d62728"/>
   </g>
   <g id="matplotlib.axis_1">
    <g id="xtick_1">
     <g id="line2d_1">
      <defs>
       <path id="mb0b22f162e" d="M 0 0 
L 0 3.5 
" style="stroke: #000000; stroke-width: 0.8"/>
      </defs>
      <g>
       <use xlink:href="#mb0b22f162e" x="68.103529" y="307.584" style="stroke: #000000; stroke-width: 0.8"/>
      </g>
     </g>
     <g id="text_1">
      <!-- q0 -->
      <g transform="translate(66.832118 321.764448) rotate(-45) scale(0.05 -0.05)">
       <defs>
        <path id="DejaVuSans-71" d="M 947 1747 
Q 947 1113 1208 752 
Q 1469 391 1925 391 
Q 2381 391 2643 752 
Q 2906 1113 2906 1747 
Q 2906 2381 2643 2742 
Q 2381 3103 1925 3103 
Q 1469 3103 1208 2742 
Q 947 2381 947 1747 
z
M 2906 525 
Q 2725 213 2448 61 
Q 2172 -91 1784 -91 
Q 1150 -91 751 415 
Q 353 922 353 1747 
Q 353 2572 751 3078 
Q 1150 3584 1784 3584 
Q 2172 3584 2448 3432 
Q 2725 3281 2906 2969 
L 2906 3500 
L 3481 3500 
L 3481 -1331 
L 2906 -1331 
L 2906 525 
z
" transform="scale(0.015625)"/>
        <path id="DejaVuSans-30" d="M 2034 4250 
Q 1547 4250 1301 3770 
Q 1056 3291 1056 2328 
Q 1056 1369 1301 889 
Q 1547 409 2034 409 
Q 2525 409 2770 889 
Q 3016 1369 3016 2328 
Q 3016 3291 2770 3770 
Q 2525 4250 2034 4250 
z
M 2034 4750 
Q 2819 4750 3233 4129 
Q 3647 3509 3647 2328 
Q 3647 1150 3233 529 
Q 2819 -91 2034 -91 
Q 1250 -91 836 529 
Q 422 1150 422 2328 
Q 422 3509 836 4129 
Q 1250 4750 2034 4750 
z
" transform="scale(0.015625)"/>
       </defs>
       <use xlink:href="#DejaVuSans-71"/>
       <use xlink:href="#DejaVuSans-30" transform="translate(63.476562 0)"/>
      </g>
     </g>
    </g>
    <g id="xtick_2">
     <g id="line2d_2">
      <g>
       <use xlink:href="#mb0b22f162e" x="89.110588" y="307.584" style="stroke: #000000; stroke-width: 0.8"/>
      </g>
     </g>
     <g id="text_2">
      <!-- q1 -->
      <g transform="translate(87.839177 321.764448) rotate(-45) scale(0.05 -0.05)">
       <defs>
        <path id="DejaVuSans-31" d="M 794 531 
L 1825 531 
L 1825 4091 
L 703 3866 
L 703 4441 
L 1819 4666 
L 2450 4666 
L 2450 531 
L 3481 531 
L 3481 0 
L 794 0 
L 794 531 
z
" transform="scale(0.015625)"/>
       </defs>
       <use xlink:href="#DejaVuSans-71"/>
       <use xlink:href="#DejaVuSans-31" transform="translate(63.476562 0)"/>
      </g>
     </g>
    </g>
    <g id="xtick_3">
     <g id="line2d_3">
      <g>
       <use xlink:href="#mb0b22f162e" x="110.117647" y="307.584" style="stroke: #000000; stroke-width: 0.8"/>
      </g>
     </g>
     <g id="text_3">
      <!-- q2 -->
      <g transform="translate(108.846236 321.764448) rotate(-45) scale(0.05 -0.05)">
       <defs>
        <path id="DejaVuSans-32" d="M 1228 531 
L 3431 531 
L 3431 0 
L 469 0 
L 469 531 
Q 828 903 1448 1529 
Q 2069 2156 2228 2338 
Q 2531 2678 2651 2914 
Q 2772 3150 2772 3378 
Q 2772 3750 2511 3984 
Q 2250 4219 1831 4219 
Q 1534 4219 1204 4116 
Q 875 4013 500 3803 
L 500 4441 
Q 881 4594 1212 4672 
Q 1544 4750 1819 4750 
Q 2544 4750 2975 4387 
Q 3406 4025 3406 3419 
Q 3406 3131 3298 2873 
Q 3191 2616 2906 2266 
Q 2828 2175 2409 1742 
Q 1991 1309 1228 531 
z
" transform="scale(0.015625)"/>
       </defs>
       <use xlink:href="#DejaVuSans-71"/>
       <use xlink:href="#DejaVuSans-32" transform="translate(63.476562 0)"/>
      </g>
     </g>
    </g>
    <g id="xtick_4">
     <g id="line2d_4">
      <g>
       <use xlink:href="#mb0b22f162e" x="131.124706" y="307.584" style="stroke: #000000; stroke-width: 0.8"/>
      </g>
     </g>
     <g id="text_4">
      <!-- q3 -->
      <g transform="translate(129.853295 321.764448) rotate(-45) scale(0.05 -0.05)">
       <defs>
        <path id="DejaVuSans-33" d="M 2597 2516 
Q 3050 2419 3304 2112 
Q 3559 1806 3559 1356 
Q 3559 666 3084 287 
Q 2609 -91 1734 -91 
Q 1441 -91 1130 -33 
Q 819 25 488 141 
L 488 750 
Q 750 597 1062 519 
Q 1375 441 1716 441 
Q 2309 441 2620 675 
Q 2931 909 2931 1356 
Q 2931 1769 2642 2001 
Q 2353 2234 1838 2234 
L 1294 2234 
L 1294 2753 
L 1863 2753 
Q 2328 2753 2575 2939 
Q 2822 3125 2822 3475 
Q 2822 3834 2567 4026 
Q 2313 4219 1838 4219 
Q 1578 4219 1281 4162 
Q 984 4106 628 3988 
L 628 4550 
Q 988 4650 1302 4700 
Q 1616 4750 1894 4750 
Q 2613 4750 3031 4423 
Q 3450 4097 3450 3541 
Q 3450 3153 3228 2886 
Q 3006 2619 2597 2516 
z
" transform="scale(0.015625)"/>
       </defs>
       <use xlink:href="#DejaVuSans-71"/>
       <use xlink:href="#DejaVuSans-33" transform="translate(63.476562 0)"/>
      </g>
     </g>
    </g>
    <g id="xtick_5">
     <g id="line2d_5">
      <g>
       <use xlink:href="#mb0b22f162e" x="152.131765" y="307.584" style="stroke: #000000; stroke-width: 0.8"/>
      </g>
     </g>
     <g id="text_5">
      <!-- q6 -->
      <g transform="translate(150.860354 321.764448) rotate(-45) scale(0.05 -0.05)">
       <defs>
        <path id="DejaVuSans-36" d="M 2113 2584 
Q 1688 2584 1439 2293 
Q 1191 2003 1191 1497 
Q 1191 994 1439 701 
Q 1688 409 2113 409 
Q 2538 409 2786 701 
Q 3034 994 3034 1497 
Q 3034 2003 2786 2293 
Q 2538 2584 2113 2584 
z
M 3366 4563 
L 3366 3988 
Q 3128 4100 2886 4159 
Q 2644 4219 2406 4219 
Q 1781 4219 1451 3797 
Q 1122 3375 1075 2522 
Q 1259 2794 1537 2939 
Q 1816 3084 2150 3084 
Q 2853 3084 3261 2657 
Q 3669 2231 3669 1497 
Q 3669 778 3244 343 
Q 2819 -91 2113 -91 
Q 1303 -91 875 529 
Q 447 1150 447 2328 
Q 447 3434 972 4092 
Q 1497 4750 2381 4750 
Q 2619 4750 2861 4703 
Q 3103 4656 3366 4563 
z
" transform="scale(0.015625)"/>
       </defs>
       <use xlink:href="#DejaVuSans-71"/>
       <use xlink:href="#DejaVuSans-36" transform="translate(63.476562 0)"/>
      </g>
     </g>
    </g>
    <g id="xtick_6">
     <g id="line2d_6">
      <g>
       <use xlink:href="#mb0b22f162e" x="173.138824" y="307.584" style="stroke: #000000; stroke-width: 0.8"/>
      </g>
     </g>
     <g id="text_6">
      <!-- q7 -->
      <g transform="translate(171.867412 321.764448) rotate(-45) scale(0.05 -0.05)">
       <defs>
        <path id="DejaVuSans-37" d="M 525 4666 
L 3525 4666 
L 3525 4397 
L 1831 0 
L 1172 0 
L 2766 4134 
L 525 4134 
L 525 4666 
z
" transform="scale(0.015625)"/>
       </defs>
       <use xlink:href="#DejaVuSans-71"/>
       <use xlink:href="#DejaVuSans-37" transform="translate(63.476562 0)"/>
      </g>
     </g>
    </g>
    <g id="xtick_7">
     <g id="line2d_7">
      <g>
       <use xlink:href="#mb0b22f162e" x="194.145882" y="307.584" style="stroke: #000000; stroke-width: 0.8"/>
      </g>
     </g>
     <g id="text_7">
      <!-- q10 -->
      <g transform="translate(191.749729 324.013932) rotate(-45) scale(0.05 -0.05)">
       <use xlink:href="#DejaVuSans-71"/>
       <use xlink:href="#DejaVuSans-31" transform="translate(63.476562 0)"/>
       <use xlink:href="#DejaVuSans-30" transform="translate(127.099609 0)"/>
      </g>
     </g>
    </g>
    <g id="xtick_8">
     <g id="line2d_8">
      <g>
       <use xlink:href="#mb0b22f162e" x="215.152941" y="307.584" style="stroke: #000000; stroke-width: 0.8"/>
      </g>
     </g>
     <g id="text_8">
      <!-- q10 -->
      <g transform="translate(212.756788 324.013932) rotate(-45) scale(0.05 -0.05)">
       <use xlink:href="#DejaVuSans-71"/>
       <use xlink:href="#DejaVuSans-31" transform="translate(63.476562 0)"/>
       <use xlink:href="#DejaVuSans-30" transform="translate(127.099609 0)"/>
      </g>
     </g>
    </g>
    <g id="xtick_9">
     <g id="line2d_9">
      <g>
       <use xlink:href="#mb0b22f162e" x="236.16" y="307.584" style="stroke: #000000; stroke-width: 0.8"/>
      </g>
     </g>
     <g id="text_9">
      <!-- q11 -->
      <g transform="translate(233.763847 324.013932) rotate(-45) scale(0.05 -0.05)">
       <use xlink:href="#DejaVuSans-71"/>
       <use xlink:href="#DejaVuSans-31" transform="translate(63.476562 0)"/>
       <use xlink:href="#DejaVuSans-31" transform="translate(127.099609 0)"/>
      </g>
     </g>
    </g>
    <g id="xtick_10">
     <g id="line2d_10">
      <g>
       <use xlink:href="#mb0b22f162e" x="257.167059" y="307.584" style="stroke: #000000; stroke-width: 0.8"/>
      </g>
     </g>
     <g id="text_10">
      <!-- q19 -->
      <g transform="translate(254.770906 324.013932) rotate(-45) scale(0.05 -0.05)">
       <defs>
        <path id="DejaVuSans-39" d="M 703 97 
L 703 672 
Q 941 559 1184 500 
Q 1428 441 1663 441 
Q 2288 441 2617 861 
Q 2947 1281 2994 2138 
Q 2813 1869 2534 1725 
Q 2256 1581 1919 1581 
Q 1219 1581 811 2004 
Q 403 2428 403 3163 
Q 403 3881 828 4315 
Q 1253 4750 1959 4750 
Q 2769 4750 3195 4129 
Q 3622 3509 3622 2328 
Q 3622 1225 3098 567 
Q 2575 -91 1691 -91 
Q 1453 -91 1209 -44 
Q 966 3 703 97 
z
M 1959 2075 
Q 2384 2075 2632 2365 
Q 2881 2656 2881 3163 
Q 2881 3666 2632 3958 
Q 2384 4250 1959 4250 
Q 1534 4250 1286 3958 
Q 1038 3666 1038 3163 
Q 1038 2656 1286 2365 
Q 1534 2075 1959 2075 
z
" transform="scale(0.015625)"/>
       </defs>
       <use xlink:href="#DejaVuSans-71"/>
       <use xlink:href="#DejaVuSans-31" transform="translate(63.476562 0)"/>
       <use xlink:href="#DejaVuSans-39" transform="translate(127.099609 0)"/>
      </g>
     </g>
    </g>
    <g id="xtick_11">
     <g id="line2d_11">
      <g>
       <use xlink:href="#mb0b22f162e" x="278.174118" y="307.584" style="stroke: #000000; stroke-width: 0.8"/>
      </g>
     </g>
     <g id="text_11">
      <!-- q36 -->
      <g transform="translate(275.777965 324.013932) rotate(-45) scale(0.05 -0.05)">
       <use xlink:href="#DejaVuSans-71"/>
       <use xlink:href="#DejaVuSans-33" transform="translate(63.476562 0)"/>
       <use xlink:href="#DejaVuSans-36" transform="translate(127.099609 0)"/>
      </g>
     </g>
    </g>
    <g id="xtick_12">
     <g id="line2d_12">
      <g>
       <use xlink:href="#mb0b22f162e" x="299.181176" y="307.584" style="stroke: #000000; stroke-width: 0.8"/>
      </g>
     </g>
     <g id="text_12">
      <!-- q37 -->
      <g transform="translate(296.785024 324.013932) rotate(-45) scale(0.05 -0.05)">
       <use xlink:href="#DejaVuSans-71"/>
       <use xlink:href="#DejaVuSans-33" transform="translate(63.476562 0)"/>
       <use xlink:href="#DejaVuSans-37" transform="translate(127.099609 0)"/>
      </g>
     </g>
    </g>
    <g id="xtick_13">
     <g id="line2d_13">
      <g>
       <use xlink:href="#mb0b22f162e" x="320.188235" y="307.584" style="stroke: #000000; stroke-width: 0.8"/>
      </g>
     </g>
     <g id="text_13">
      <!-- q38 -->
      <g transform="translate(317.792082 324.013932) rotate(-45) scale(0.05 -0.05)">
       <defs>
        <path id="DejaVuSans-38" d="M 2034 2216 
Q 1584 2216 1326 1975 
Q 1069 1734 1069 1313 
Q 1069 891 1326 650 
Q 1584 409 2034 409 
Q 2484 409 2743 651 
Q 3003 894 3003 1313 
Q 3003 1734 2745 1975 
Q 2488 2216 2034 2216 
z
M 1403 2484 
Q 997 2584 770 2862 
Q 544 3141 544 3541 
Q 544 4100 942 4425 
Q 1341 4750 2034 4750 
Q 2731 4750 3128 4425 
Q 3525 4100 3525 3541 
Q 3525 3141 3298 2862 
Q 3072 2584 2669 2484 
Q 3125 2378 3379 2068 
Q 3634 1759 3634 1313 
Q 3634 634 3220 271 
Q 2806 -91 2034 -91 
Q 1263 -91 848 271 
Q 434 634 434 1313 
Q 434 1759 690 2068 
Q 947 2378 1403 2484 
z
M 1172 3481 
Q 1172 3119 1398 2916 
Q 1625 2713 2034 2713 
Q 2441 2713 2670 2916 
Q 2900 3119 2900 3481 
Q 2900 3844 2670 4047 
Q 2441 4250 2034 4250 
Q 1625 4250 1398 4047 
Q 1172 3844 1172 3481 
z
" transform="scale(0.015625)"/>
       </defs>
       <use xlink:href="#DejaVuSans-71"/>
       <use xlink:href="#DejaVuSans-33" transform="translate(63.476562 0)"/>
       <use xlink:href="#DejaVuSans-38" transform="translate(127.099609 0)"/>
      </g>
     </g>
    </g>
    <g id="xtick_14">
     <g id="line2d_14">
      <g>
       <use xlink:href="#mb0b22f162e" x="341.195294" y="307.584" style="stroke: #000000; stroke-width: 0.8"/>
      </g>
     </g>
     <g id="text_14">
      <!-- q39 -->
      <g transform="translate(338.799141 324.013932) rotate(-45) scale(0.05 -0.05)">
       <use xlink:href="#DejaVuSans-71"/>
       <use xlink:href="#DejaVuSans-33" transform="translate(63.476562 0)"/>
       <use xlink:href="#DejaVuSans-39" transform="translate(127.099609 0)"/>
      </g>
     </g>
    </g>
    <g id="xtick_15">
     <g id="line2d_15">
      <g>
       <use xlink:href="#mb0b22f162e" x="362.202353" y="307.584" style="stroke: #000000; stroke-width: 0.8"/>
      </g>
     </g>
     <g id="text_15">
      <!-- q40 -->
      <g transform="translate(359.8062 324.013932) rotate(-45) scale(0.05 -0.05)">
       <defs>
        <path id="DejaVuSans-34" d="M 2419 4116 
L 825 1625 
L 2419 1625 
L 2419 4116 
z
M 2253 4666 
L 3047 4666 
L 3047 1625 
L 3713 1625 
L 3713 1100 
L 3047 1100 
L 3047 0 
L 2419 0 
L 2419 1100 
L 313 1100 
L 313 1709 
L 2253 4666 
z
" transform="scale(0.015625)"/>
       </defs>
       <use xlink:href="#DejaVuSans-71"/>
       <use xlink:href="#DejaVuSans-34" transform="translate(63.476562 0)"/>
       <use xlink:href="#DejaVuSans-30" transform="translate(127.099609 0)"/>
      </g>
     </g>
    </g>
    <g id="xtick_16">
     <g id="line2d_16">
      <g>
       <use xlink:href="#mb0b22f162e" x="383.209412" y="307.584" style="stroke: #000000; stroke-width: 0.8"/>
      </g>
     </g>
     <g id="text_16">
      <!-- q41 -->
      <g transform="translate(380.813259 324.013932) rotate(-45) scale(0.05 -0.05)">
       <use xlink:href="#DejaVuSans-71"/>
       <use xlink:href="#DejaVuSans-34" transform="translate(63.476562 0)"/>
       <use xlink:href="#DejaVuSans-31" transform="translate(127.099609 0)"/>
      </g>
     </g>
    </g>
    <g id="xtick_17">
     <g id="line2d_17">
      <g>
       <use xlink:href="#mb0b22f162e" x="404.216471" y="307.584" style="stroke: #000000; stroke-width: 0.8"/>
      </g>
     </g>
     <g id="text_17">
      <!-- q42 -->
      <g transform="translate(401.820318 324.013932) rotate(-45) scale(0.05 -0.05)">
       <use xlink:href="#DejaVuSans-71"/>
       <use xlink:href="#DejaVuSans-34" transform="translate(63.476562 0)"/>
       <use xlink:href="#DejaVuSans-32" transform="translate(127.099609 0)"/>
      </g>
     </g>
    </g>
    <g id="text_18">
     <!-- Queries -->
     <g transform="translate(216.852969 336.34765) scale(0.1 -0.1)">
      <defs>
       <path id="DejaVuSans-51" d="M 2522 4238 
Q 1834 4238 1429 3725 
Q 1025 3213 1025 2328 
Q 1025 1447 1429 934 
Q 1834 422 2522 422 
Q 3209 422 3611 934 
Q 4013 1447 4013 2328 
Q 4013 3213 3611 3725 
Q 3209 4238 2522 4238 
z
M 3406 84 
L 4238 -825 
L 3475 -825 
L 2784 -78 
Q 2681 -84 2626 -87 
Q 2572 -91 2522 -91 
Q 1538 -91 948 567 
Q 359 1225 359 2328 
Q 359 3434 948 4092 
Q 1538 4750 2522 4750 
Q 3503 4750 4090 4092 
Q 4678 3434 4678 2328 
Q 4678 1516 4351 937 
Q 4025 359 3406 84 
z
" transform="scale(0.015625)"/>
       <path id="DejaVuSans-75" d="M 544 1381 
L 544 3500 
L 1119 3500 
L 1119 1403 
Q 1119 906 1312 657 
Q 1506 409 1894 409 
Q 2359 409 2629 706 
Q 2900 1003 2900 1516 
L 2900 3500 
L 3475 3500 
L 3475 0 
L 2900 0 
L 2900 538 
Q 2691 219 2414 64 
Q 2138 -91 1772 -91 
Q 1169 -91 856 284 
Q 544 659 544 1381 
z
M 1991 3584 
L 1991 3584 
z
" transform="scale(0.015625)"/>
       <path id="DejaVuSans-65" d="M 3597 1894 
L 3597 1613 
L 953 1613 
Q 991 1019 1311 708 
Q 1631 397 2203 397 
Q 2534 397 2845 478 
Q 3156 559 3463 722 
L 3463 178 
Q 3153 47 2828 -22 
Q 2503 -91 2169 -91 
Q 1331 -91 842 396 
Q 353 884 353 1716 
Q 353 2575 817 3079 
Q 1281 3584 2069 3584 
Q 2775 3584 3186 3129 
Q 3597 2675 3597 1894 
z
M 3022 2063 
Q 3016 2534 2758 2815 
Q 2500 3097 2075 3097 
Q 1594 3097 1305 2825 
Q 1016 2553 972 2059 
L 3022 2063 
z
" transform="scale(0.015625)"/>
       <path id="DejaVuSans-72" d="M 2631 2963 
Q 2534 3019 2420 3045 
Q 2306 3072 2169 3072 
Q 1681 3072 1420 2755 
Q 1159 2438 1159 1844 
L 1159 0 
L 581 0 
L 581 3500 
L 1159 3500 
L 1159 2956 
Q 1341 3275 1631 3429 
Q 1922 3584 2338 3584 
Q 2397 3584 2469 3576 
Q 2541 3569 2628 3553 
L 2631 2963 
z
" transform="scale(0.015625)"/>
       <path id="DejaVuSans-69" d="M 603 3500 
L 1178 3500 
L 1178 0 
L 603 0 
L 603 3500 
z
M 603 4863 
L 1178 4863 
L 1178 4134 
L 603 4134 
L 603 4863 
z
" transform="scale(0.015625)"/>
       <path id="DejaVuSans-73" d="M 2834 3397 
L 2834 2853 
Q 2591 2978 2328 3040 
Q 2066 3103 1784 3103 
Q 1356 3103 1142 2972 
Q 928 2841 928 2578 
Q 928 2378 1081 2264 
Q 1234 2150 1697 2047 
L 1894 2003 
Q 2506 1872 2764 1633 
Q 3022 1394 3022 966 
Q 3022 478 2636 193 
Q 2250 -91 1575 -91 
Q 1294 -91 989 -36 
Q 684 19 347 128 
L 347 722 
Q 666 556 975 473 
Q 1284 391 1588 391 
Q 1994 391 2212 530 
Q 2431 669 2431 922 
Q 2431 1156 2273 1281 
Q 2116 1406 1581 1522 
L 1381 1569 
Q 847 1681 609 1914 
Q 372 2147 372 2553 
Q 372 3047 722 3315 
Q 1072 3584 1716 3584 
Q 2034 3584 2315 3537 
Q 2597 3491 2834 3397 
z
" transform="scale(0.015625)"/>
      </defs>
      <use xlink:href="#DejaVuSans-51"/>
      <use xlink:href="#DejaVuSans-75" transform="translate(78.710938 0)"/>
      <use xlink:href="#DejaVuSans-65" transform="translate(142.089844 0)"/>
      <use xlink:href="#DejaVuSans-72" transform="translate(203.613281 0)"/>
      <use xlink:href="#DejaVuSans-69" transform="translate(244.726562 0)"/>
      <use xlink:href="#DejaVuSans-65" transform="translate(272.509766 0)"/>
      <use xlink:href="#DejaVuSans-73" transform="translate(334.033203 0)"/>
     </g>
    </g>
   </g>
   <g id="matplotlib.axis_2">
    <g id="ytick_1">
     <g id="line2d_18">
      <defs>
       <path id="md422918514" d="M 0 0 
L -3.5 0 
" style="stroke: #000000; stroke-width: 0.8"/>
      </defs>
      <g>
       <use xlink:href="#md422918514" x="57.6" y="307.584" style="stroke: #000000; stroke-width: 0.8"/>
      </g>
     </g>
     <g id="text_19">
      <!-- 0.0 -->
      <g transform="translate(34.696875 311.383219) scale(0.1 -0.1)">
       <defs>
        <path id="DejaVuSans-2e" d="M 684 794 
L 1344 794 
L 1344 0 
L 684 0 
L 684 794 
z
" transform="scale(0.015625)"/>
       </defs>
       <use xlink:href="#DejaVuSans-30"/>
       <use xlink:href="#DejaVuSans-2e" transform="translate(63.623047 0)"/>
       <use xlink:href="#DejaVuSans-30" transform="translate(95.410156 0)"/>
      </g>
     </g>
    </g>
    <g id="ytick_2">
     <g id="line2d_19">
      <g>
       <use xlink:href="#md422918514" x="57.6" y="257.544015" style="stroke: #000000; stroke-width: 0.8"/>
      </g>
     </g>
     <g id="text_20">
      <!-- 0.2 -->
      <g transform="translate(34.696875 261.343234) scale(0.1 -0.1)">
       <use xlink:href="#DejaVuSans-30"/>
       <use xlink:href="#DejaVuSans-2e" transform="translate(63.623047 0)"/>
       <use xlink:href="#DejaVuSans-32" transform="translate(95.410156 0)"/>
      </g>
     </g>
    </g>
    <g id="ytick_3">
     <g id="line2d_20">
      <g>
       <use xlink:href="#md422918514" x="57.6" y="207.50403" style="stroke: #000000; stroke-width: 0.8"/>
      </g>
     </g>
     <g id="text_21">
      <!-- 0.4 -->
      <g transform="translate(34.696875 211.303249) scale(0.1 -0.1)">
       <use xlink:href="#DejaVuSans-30"/>
       <use xlink:href="#DejaVuSans-2e" transform="translate(63.623047 0)"/>
       <use xlink:href="#DejaVuSans-34" transform="translate(95.410156 0)"/>
      </g>
     </g>
    </g>
    <g id="ytick_4">
     <g id="line2d_21">
      <g>
       <use xlink:href="#md422918514" x="57.6" y="157.464045" style="stroke: #000000; stroke-width: 0.8"/>
      </g>
     </g>
     <g id="text_22">
      <!-- 0.6 -->
      <g transform="translate(34.696875 161.263264) scale(0.1 -0.1)">
       <use xlink:href="#DejaVuSans-30"/>
       <use xlink:href="#DejaVuSans-2e" transform="translate(63.623047 0)"/>
       <use xlink:href="#DejaVuSans-36" transform="translate(95.410156 0)"/>
      </g>
     </g>
    </g>
    <g id="ytick_5">
     <g id="line2d_22">
      <g>
       <use xlink:href="#md422918514" x="57.6" y="107.42406" style="stroke: #000000; stroke-width: 0.8"/>
      </g>
     </g>
     <g id="text_23">
      <!-- 0.8 -->
      <g transform="translate(34.696875 111.223279) scale(0.1 -0.1)">
       <use xlink:href="#DejaVuSans-30"/>
       <use xlink:href="#DejaVuSans-2e" transform="translate(63.623047 0)"/>
       <use xlink:href="#DejaVuSans-38" transform="translate(95.410156 0)"/>
      </g>
     </g>
    </g>
    <g id="ytick_6">
     <g id="line2d_23">
      <g>
       <use xlink:href="#md422918514" x="57.6" y="57.384075" style="stroke: #000000; stroke-width: 0.8"/>
      </g>
     </g>
     <g id="text_24">
      <!-- 1.0 -->
      <g transform="translate(34.696875 61.183294) scale(0.1 -0.1)">
       <use xlink:href="#DejaVuSans-31"/>
       <use xlink:href="#DejaVuSans-2e" transform="translate(63.623047 0)"/>
       <use xlink:href="#DejaVuSans-30" transform="translate(95.410156 0)"/>
      </g>
     </g>
    </g>
    <g id="text_25">
     <!-- Seconds -->
     <g transform="translate(28.617187 195.535031) rotate(-90) scale(0.1 -0.1)">
      <defs>
       <path id="DejaVuSans-53" d="M 3425 4513 
L 3425 3897 
Q 3066 4069 2747 4153 
Q 2428 4238 2131 4238 
Q 1616 4238 1336 4038 
Q 1056 3838 1056 3469 
Q 1056 3159 1242 3001 
Q 1428 2844 1947 2747 
L 2328 2669 
Q 3034 2534 3370 2195 
Q 3706 1856 3706 1288 
Q 3706 609 3251 259 
Q 2797 -91 1919 -91 
Q 1588 -91 1214 -16 
Q 841 59 441 206 
L 441 856 
Q 825 641 1194 531 
Q 1563 422 1919 422 
Q 2459 422 2753 634 
Q 3047 847 3047 1241 
Q 3047 1584 2836 1778 
Q 2625 1972 2144 2069 
L 1759 2144 
Q 1053 2284 737 2584 
Q 422 2884 422 3419 
Q 422 4038 858 4394 
Q 1294 4750 2059 4750 
Q 2388 4750 2728 4690 
Q 3069 4631 3425 4513 
z
" transform="scale(0.015625)"/>
       <path id="DejaVuSans-63" d="M 3122 3366 
L 3122 2828 
Q 2878 2963 2633 3030 
Q 2388 3097 2138 3097 
Q 1578 3097 1268 2742 
Q 959 2388 959 1747 
Q 959 1106 1268 751 
Q 1578 397 2138 397 
Q 2388 397 2633 464 
Q 2878 531 3122 666 
L 3122 134 
Q 2881 22 2623 -34 
Q 2366 -91 2075 -91 
Q 1284 -91 818 406 
Q 353 903 353 1747 
Q 353 2603 823 3093 
Q 1294 3584 2113 3584 
Q 2378 3584 2631 3529 
Q 2884 3475 3122 3366 
z
" transform="scale(0.015625)"/>
       <path id="DejaVuSans-6f" d="M 1959 3097 
Q 1497 3097 1228 2736 
Q 959 2375 959 1747 
Q 959 1119 1226 758 
Q 1494 397 1959 397 
Q 2419 397 2687 759 
Q 2956 1122 2956 1747 
Q 2956 2369 2687 2733 
Q 2419 3097 1959 3097 
z
M 1959 3584 
Q 2709 3584 3137 3096 
Q 3566 2609 3566 1747 
Q 3566 888 3137 398 
Q 2709 -91 1959 -91 
Q 1206 -91 779 398 
Q 353 888 353 1747 
Q 353 2609 779 3096 
Q 1206 3584 1959 3584 
z
" transform="scale(0.015625)"/>
       <path id="DejaVuSans-6e" d="M 3513 2113 
L 3513 0 
L 2938 0 
L 2938 2094 
Q 2938 2591 2744 2837 
Q 2550 3084 2163 3084 
Q 1697 3084 1428 2787 
Q 1159 2491 1159 1978 
L 1159 0 
L 581 0 
L 581 3500 
L 1159 3500 
L 1159 2956 
Q 1366 3272 1645 3428 
Q 1925 3584 2291 3584 
Q 2894 3584 3203 3211 
Q 3513 2838 3513 2113 
z
" transform="scale(0.015625)"/>
       <path id="DejaVuSans-64" d="M 2906 2969 
L 2906 4863 
L 3481 4863 
L 3481 0 
L 2906 0 
L 2906 525 
Q 2725 213 2448 61 
Q 2172 -91 1784 -91 
Q 1150 -91 751 415 
Q 353 922 353 1747 
Q 353 2572 751 3078 
Q 1150 3584 1784 3584 
Q 2172 3584 2448 3432 
Q 2725 3281 2906 2969 
z
M 947 1747 
Q 947 1113 1208 752 
Q 1469 391 1925 391 
Q 2381 391 2643 752 
Q 2906 1113 2906 1747 
Q 2906 2381 2643 2742 
Q 2381 3103 1925 3103 
Q 1469 3103 1208 2742 
Q 947 2381 947 1747 
z
" transform="scale(0.015625)"/>
      </defs>
      <use xlink:href="#DejaVuSans-53"/>
      <use xlink:href="#DejaVuSans-65" transform="translate(63.476562 0)"/>
      <use xlink:href="#DejaVuSans-63" transform="translate(125 0)"/>
      <use xlink:href="#DejaVuSans-6f" transform="translate(179.980469 0)"/>
      <use xlink:href="#DejaVuSans-6e" transform="translate(241.162109 0)"/>
      <use xlink:href="#DejaVuSans-64" transform="translate(304.541016 0)"/>
      <use xlink:href="#DejaVuSans-73" transform="translate(368.017578 0)"/>
     </g>
    </g>
   </g>
   <g id="patch_71">
    <path d="M 57.6 307.584 
L 57.6 41.472 
" style="fill: none; stroke: #000000; stroke-width: 0.8; stroke-linejoin: miter; stroke-linecap: square"/>
   </g>
   <g id="patch_72">
    <path d="M 414.72 307.584 
L 414.72 41.472 
" style="fill: none; stroke: #000000; stroke-width: 0.8; stroke-linejoin: miter; stroke-linecap: square"/>
   </g>
   <g id="patch_73">
    <path d="M 57.6 307.584 
L 414.72 307.584 
" style="fill: none; stroke: #000000; stroke-width: 0.8; stroke-linejoin: miter; stroke-linecap: square"/>
   </g>
   <g id="patch_74">
    <path d="M 57.6 41.472 
L 414.72 41.472 
" style="fill: none; stroke: #000000; stroke-width: 0.8; stroke-linejoin: miter; stroke-linecap: square"/>
   </g>
   <g id="text_26">
    <!-- ClickBench Very Fast Queries -->
    <g transform="translate(148.854375 35.472) scale(0.12 -0.12)">
     <defs>
      <path id="DejaVuSans-43" d="M 4122 4306 
L 4122 3641 
Q 3803 3938 3442 4084 
Q 3081 4231 2675 4231 
Q 1875 4231 1450 3742 
Q 1025 3253 1025 2328 
Q 1025 1406 1450 917 
Q 1875 428 2675 428 
Q 3081 428 3442 575 
Q 3803 722 4122 1019 
L 4122 359 
Q 3791 134 3420 21 
Q 3050 -91 2638 -91 
Q 1578 -91 968 557 
Q 359 1206 359 2328 
Q 359 3453 968 4101 
Q 1578 4750 2638 4750 
Q 3056 4750 3426 4639 
Q 3797 4528 4122 4306 
z
" transform="scale(0.015625)"/>
      <path id="DejaVuSans-6c" d="M 603 4863 
L 1178 4863 
L 1178 0 
L 603 0 
L 603 4863 
z
" transform="scale(0.015625)"/>
      <path id="DejaVuSans-6b" d="M 581 4863 
L 1159 4863 
L 1159 1991 
L 2875 3500 
L 3609 3500 
L 1753 1863 
L 3688 0 
L 2938 0 
L 1159 1709 
L 1159 0 
L 581 0 
L 581 4863 
z
" transform="scale(0.015625)"/>
      <path id="DejaVuSans-42" d="M 1259 2228 
L 1259 519 
L 2272 519 
Q 2781 519 3026 730 
Q 3272 941 3272 1375 
Q 3272 1813 3026 2020 
Q 2781 2228 2272 2228 
L 1259 2228 
z
M 1259 4147 
L 1259 2741 
L 2194 2741 
Q 2656 2741 2882 2914 
Q 3109 3088 3109 3444 
Q 3109 3797 2882 3972 
Q 2656 4147 2194 4147 
L 1259 4147 
z
M 628 4666 
L 2241 4666 
Q 2963 4666 3353 4366 
Q 3744 4066 3744 3513 
Q 3744 3084 3544 2831 
Q 3344 2578 2956 2516 
Q 3422 2416 3680 2098 
Q 3938 1781 3938 1306 
Q 3938 681 3513 340 
Q 3088 0 2303 0 
L 628 0 
L 628 4666 
z
" transform="scale(0.015625)"/>
      <path id="DejaVuSans-68" d="M 3513 2113 
L 3513 0 
L 2938 0 
L 2938 2094 
Q 2938 2591 2744 2837 
Q 2550 3084 2163 3084 
Q 1697 3084 1428 2787 
Q 1159 2491 1159 1978 
L 1159 0 
L 581 0 
L 581 4863 
L 1159 4863 
L 1159 2956 
Q 1366 3272 1645 3428 
Q 1925 3584 2291 3584 
Q 2894 3584 3203 3211 
Q 3513 2838 3513 2113 
z
" transform="scale(0.015625)"/>
      <path id="DejaVuSans-20" transform="scale(0.015625)"/>
      <path id="DejaVuSans-56" d="M 1831 0 
L 50 4666 
L 709 4666 
L 2188 738 
L 3669 4666 
L 4325 4666 
L 2547 0 
L 1831 0 
z
" transform="scale(0.015625)"/>
      <path id="DejaVuSans-79" d="M 2059 -325 
Q 1816 -950 1584 -1140 
Q 1353 -1331 966 -1331 
L 506 -1331 
L 506 -850 
L 844 -850 
Q 1081 -850 1212 -737 
Q 1344 -625 1503 -206 
L 1606 56 
L 191 3500 
L 800 3500 
L 1894 763 
L 2988 3500 
L 3597 3500 
L 2059 -325 
z
" transform="scale(0.015625)"/>
      <path id="DejaVuSans-46" d="M 628 4666 
L 3309 4666 
L 3309 4134 
L 1259 4134 
L 1259 2759 
L 3109 2759 
L 3109 2228 
L 1259 2228 
L 1259 0 
L 628 0 
L 628 4666 
z
" transform="scale(0.015625)"/>
      <path id="DejaVuSans-61" d="M 2194 1759 
Q 1497 1759 1228 1600 
Q 959 1441 959 1056 
Q 959 750 1161 570 
Q 1363 391 1709 391 
Q 2188 391 2477 730 
Q 2766 1069 2766 1631 
L 2766 1759 
L 2194 1759 
z
M 3341 1997 
L 3341 0 
L 2766 0 
L 2766 531 
Q 2569 213 2275 61 
Q 1981 -91 1556 -91 
Q 1019 -91 701 211 
Q 384 513 384 1019 
Q 384 1609 779 1909 
Q 1175 2209 1959 2209 
L 2766 2209 
L 2766 2266 
Q 2766 2663 2505 2880 
Q 2244 3097 1772 3097 
Q 1472 3097 1187 3025 
Q 903 2953 641 2809 
L 641 3341 
Q 956 3463 1253 3523 
Q 1550 3584 1831 3584 
Q 2591 3584 2966 3190 
Q 3341 2797 3341 1997 
z
" transform="scale(0.015625)"/>
      <path id="DejaVuSans-74" d="M 1172 4494 
L 1172 3500 
L 2356 3500 
L 2356 3053 
L 1172 3053 
L 1172 1153 
Q 1172 725 1289 603 
Q 1406 481 1766 481 
L 2356 481 
L 2356 0 
L 1766 0 
Q 1100 0 847 248 
Q 594 497 594 1153 
L 594 3053 
L 172 3053 
L 172 3500 
L 594 3500 
L 594 4494 
L 1172 4494 
z
" transform="scale(0.015625)"/>
     </defs>
     <use xlink:href="#DejaVuSans-43"/>
     <use xlink:href="#DejaVuSans-6c" transform="translate(69.824219 0)"/>
     <use xlink:href="#DejaVuSans-69" transform="translate(97.607422 0)"/>
     <use xlink:href="#DejaVuSans-63" transform="translate(125.390625 0)"/>
     <use xlink:href="#DejaVuSans-6b" transform="translate(180.371094 0)"/>
     <use xlink:href="#DejaVuSans-42" transform="translate(238.28125 0)"/>
     <use xlink:href="#DejaVuSans-65" transform="translate(306.884766 0)"/>
     <use xlink:href="#DejaVuSans-6e" transform="translate(368.408203 0)"/>
     <use xlink:href="#DejaVuSans-63" transform="translate(431.787109 0)"/>
     <use xlink:href="#DejaVuSans-68" transform="translate(486.767578 0)"/>
     <use xlink:href="#DejaVuSans-20" transform="translate(550.146484 0)"/>
     <use xlink:href="#DejaVuSans-56" transform="translate(581.933594 0)"/>
     <use xlink:href="#DejaVuSans-65" transform="translate(642.591797 0)"/>
     <use xlink:href="#DejaVuSans-72" transform="translate(704.115234 0)"/>
     <use xlink:href="#DejaVuSans-79" transform="translate(745.228516 0)"/>
     <use xlink:href="#DejaVuSans-20" transform="translate(804.408203 0)"/>
     <use xlink:href="#DejaVuSans-46" transform="translate(836.195312 0)"/>
     <use xlink:href="#DejaVuSans-61" transform="translate(884.589844 0)"/>
     <use xlink:href="#DejaVuSans-73" transform="translate(945.869141 0)"/>
     <use xlink:href="#DejaVuSans-74" transform="translate(997.96875 0)"/>
     <use xlink:href="#DejaVuSans-20" transform="translate(1037.177734 0)"/>
     <use xlink:href="#DejaVuSans-51" transform="translate(1068.964844 0)"/>
     <use xlink:href="#DejaVuSans-75" transform="translate(1147.675781 0)"/>
     <use xlink:href="#DejaVuSans-65" transform="translate(1211.054688 0)"/>
     <use xlink:href="#DejaVuSans-72" transform="translate(1272.578125 0)"/>
     <use xlink:href="#DejaVuSans-69" transform="translate(1313.691406 0)"/>
     <use xlink:href="#DejaVuSans-65" transform="translate(1341.474609 0)"/>
     <use xlink:href="#DejaVuSans-73" transform="translate(1402.998047 0)"/>
    </g>
   </g>
   <g id="legend_1">
    <g id="patch_75">
     <path d="M 322.893438 108.1845 
L 407.72 108.1845 
Q 409.72 108.1845 409.72 106.1845 
L 409.72 48.472 
Q 409.72 46.472 407.72 46.472 
L 322.893438 46.472 
Q 320.893438 46.472 320.893438 48.472 
L 320.893438 106.1845 
Q 320.893438 108.1845 322.893438 108.1845 
z
" style="fill: #ffffff; opacity: 0.8; stroke: #cccccc; stroke-linejoin: miter"/>
    </g>
    <g id="patch_76">
     <path d="M 324.893438 58.070438 
L 344.893438 58.070438 
L 344.893438 51.070438 
L 324.893438 51.070438 
z
" style="fill: #1f77b4"/>
    </g>
    <g id="text_27">
     <!-- datafusion -->
     <g transform="translate(352.893438 58.070438) scale(0.1 -0.1)">
      <defs>
       <path id="DejaVuSans-66" d="M 2375 4863 
L 2375 4384 
L 1825 4384 
Q 1516 4384 1395 4259 
Q 1275 4134 1275 3809 
L 1275 3500 
L 2222 3500 
L 2222 3053 
L 1275 3053 
L 1275 0 
L 697 0 
L 697 3053 
L 147 3053 
L 147 3500 
L 697 3500 
L 697 3744 
Q 697 4328 969 4595 
Q 1241 4863 1831 4863 
L 2375 4863 
z
" transform="scale(0.015625)"/>
      </defs>
      <use xlink:href="#DejaVuSans-64"/>
      <use xlink:href="#DejaVuSans-61" transform="translate(63.476562 0)"/>
      <use xlink:href="#DejaVuSans-74" transform="translate(124.755859 0)"/>
      <use xlink:href="#DejaVuSans-61" transform="translate(163.964844 0)"/>
      <use xlink:href="#DejaVuSans-66" transform="translate(225.244141 0)"/>
      <use xlink:href="#DejaVuSans-75" transform="translate(260.449219 0)"/>
      <use xlink:href="#DejaVuSans-73" transform="translate(323.828125 0)"/>
      <use xlink:href="#DejaVuSans-69" transform="translate(375.927734 0)"/>
      <use xlink:href="#DejaVuSans-6f" transform="translate(403.710938 0)"/>
      <use xlink:href="#DejaVuSans-6e" transform="translate(464.892578 0)"/>
     </g>
    </g>
    <g id="patch_77">
     <path d="M 324.893438 72.748563 
L 344.893438 72.748563 
L 344.893438 65.748563 
L 324.893438 65.748563 
z
" style="fill: #ff7f0e"/>
    </g>
    <g id="text_28">
     <!-- daft -->
     <g transform="translate(352.893438 72.748563) scale(0.1 -0.1)">
      <use xlink:href="#DejaVuSans-64"/>
      <use xlink:href="#DejaVuSans-61" transform="translate(63.476562 0)"/>
      <use xlink:href="#DejaVuSans-66" transform="translate(124.755859 0)"/>
      <use xlink:href="#DejaVuSans-74" transform="translate(158.210938 0)"/>
     </g>
    </g>
    <g id="patch_78">
     <path d="M 324.893438 87.426688 
L 344.893438 87.426688 
L 344.893438 80.426688 
L 324.893438 80.426688 
z
" style="fill: #2ca02c"/>
    </g>
    <g id="text_29">
     <!-- duckdb -->
     <g transform="translate(352.893438 87.426688) scale(0.1 -0.1)">
      <defs>
       <path id="DejaVuSans-62" d="M 3116 1747 
Q 3116 2381 2855 2742 
Q 2594 3103 2138 3103 
Q 1681 3103 1420 2742 
Q 1159 2381 1159 1747 
Q 1159 1113 1420 752 
Q 1681 391 2138 391 
Q 2594 391 2855 752 
Q 3116 1113 3116 1747 
z
M 1159 2969 
Q 1341 3281 1617 3432 
Q 1894 3584 2278 3584 
Q 2916 3584 3314 3078 
Q 3713 2572 3713 1747 
Q 3713 922 3314 415 
Q 2916 -91 2278 -91 
Q 1894 -91 1617 61 
Q 1341 213 1159 525 
L 1159 0 
L 581 0 
L 581 4863 
L 1159 4863 
L 1159 2969 
z
" transform="scale(0.015625)"/>
      </defs>
      <use xlink:href="#DejaVuSans-64"/>
      <use xlink:href="#DejaVuSans-75" transform="translate(63.476562 0)"/>
      <use xlink:href="#DejaVuSans-63" transform="translate(126.855469 0)"/>
      <use xlink:href="#DejaVuSans-6b" transform="translate(181.835938 0)"/>
      <use xlink:href="#DejaVuSans-64" transform="translate(239.746094 0)"/>
      <use xlink:href="#DejaVuSans-62" transform="translate(303.222656 0)"/>
     </g>
    </g>
    <g id="patch_79">
     <path d="M 324.893438 102.104813 
L 344.893438 102.104813 
L 344.893438 95.104813 
L 324.893438 95.104813 
z
" style="fill: #d62728"/>
    </g>
    <g id="text_30">
     <!-- polars -->
     <g transform="translate(352.893438 102.104813) scale(0.1 -0.1)">
      <defs>
       <path id="DejaVuSans-70" d="M 1159 525 
L 1159 -1331 
L 581 -1331 
L 581 3500 
L 1159 3500 
L 1159 2969 
Q 1341 3281 1617 3432 
Q 1894 3584 2278 3584 
Q 2916 3584 3314 3078 
Q 3713 2572 3713 1747 
Q 3713 922 3314 415 
Q 2916 -91 2278 -91 
Q 1894 -91 1617 61 
Q 1341 213 1159 525 
z
M 3116 1747 
Q 3116 2381 2855 2742 
Q 2594 3103 2138 3103 
Q 1681 3103 1420 2742 
Q 1159 2381 1159 1747 
Q 1159 1113 1420 752 
Q 1681 391 2138 391 
Q 2594 391 2855 752 
Q 3116 1113 3116 1747 
z
" transform="scale(0.015625)"/>
      </defs>
      <use xlink:href="#DejaVuSans-70"/>
      <use xlink:href="#DejaVuSans-6f" transform="translate(63.476562 0)"/>
      <use xlink:href="#DejaVuSans-6c" transform="translate(124.658203 0)"/>
      <use xlink:href="#DejaVuSans-61" transform="translate(152.441406 0)"/>
      <use xlink:href="#DejaVuSans-72" transform="translate(213.720703 0)"/>
      <use xlink:href="#DejaVuSans-73" transform="translate(254.833984 0)"/>
     </g>
    </g>
   </g>
  </g>
 </g>
 <defs>
  <clipPath id="p2f1eea3c67">
   <rect x="57.6" y="41.472" width="357.12" height="266.112"/>
  </clipPath>
 </defs>
</svg>
