<?xml version="1.0" encoding="utf-8" standalone="no"?>
<!DOCTYPE svg PUBLIC "-//W3C//DTD SVG 1.1//EN"
  "http://www.w3.org/Graphics/SVG/1.1/DTD/svg11.dtd">
<svg xmlns:xlink="http://www.w3.org/1999/xlink" width="460.8pt" height="345.6pt" viewBox="0 0 460.8 345.6" xmlns="http://www.w3.org/2000/svg" version="1.1">
 <metadata>
  <rdf:RDF xmlns:dc="http://purl.org/dc/elements/1.1/" xmlns:cc="http://creativecommons.org/ns#" xmlns:rdf="http://www.w3.org/1999/02/22-rdf-syntax-ns#">
   <cc:Work>
    <dc:type rdf:resource="http://purl.org/dc/dcmitype/StillImage"/>
    <dc:date>2025-07-16T16:28:43.506564</dc:date>
    <dc:format>image/svg+xml</dc:format>
    <dc:creator>
     <cc:Agent>
      <dc:title>Matplotlib v3.10.3, https://matplotlib.org/</dc:title>
     </cc:Agent>
    </dc:creator>
   </cc:Work>
  </rdf:RDF>
 </metadata>
 <defs>
  <style type="text/css">*{stroke-linejoin: round; stroke-linecap: butt}</style>
 </defs>
 <g id="figure_1">
  <g id="patch_1">
   <path d="M 0 345.6 
L 460.8 345.6 
L 460.8 0 
L 0 0 
z
" style="fill: #ffffff"/>
  </g>
  <g id="axes_1">
   <g id="patch_2">
    <path d="M 57.6 307.584 
L 414.72 307.584 
L 414.72 41.472 
L 57.6 41.472 
z
" style="fill: #ffffff"/>
   </g>
   <g id="patch_3">
    <path d="M 62.064 307.584 
L 64.296 307.584 
L 64.296 279.203564 
L 62.064 279.203564 
z
" clip-path="url(#p586408410a)" style="fill: #1f77b4"/>
   </g>
   <g id="patch_4">
    <path d="M 79.92 307.584 
L 82.152 307.584 
L 82.152 278.177347 
L 79.92 278.177347 
z
" clip-path="url(#p586408410a)" style="fill: #1f77b4"/>
   </g>
   <g id="patch_5">
    <path d="M 97.776 307.584 
L 100.008 307.584 
L 100.008 277.461599 
L 97.776 277.461599 
z
" clip-path="url(#p586408410a)" style="fill: #1f77b4"/>
   </g>
   <g id="patch_6">
    <path d="M 115.632 307.584 
L 117.864 307.584 
L 117.864 268.116109 
L 115.632 268.116109 
z
" clip-path="url(#p586408410a)" style="fill: #1f77b4"/>
   </g>
   <g id="patch_7">
    <path d="M 133.488 307.584 
L 135.72 307.584 
L 135.72 270.727313 
L 133.488 270.727313 
z
" clip-path="url(#p586408410a)" style="fill: #1f77b4"/>
   </g>
   <g id="patch_8">
    <path d="M 151.344 307.584 
L 153.576 307.584 
L 153.576 254.478522 
L 151.344 254.478522 
z
" clip-path="url(#p586408410a)" style="fill: #1f77b4"/>
   </g>
   <g id="patch_9">
    <path d="M 169.2 307.584 
L 171.432 307.584 
L 171.432 278.656368 
L 169.2 278.656368 
z
" clip-path="url(#p586408410a)" style="fill: #1f77b4"/>
   </g>
   <g id="patch_10">
    <path d="M 187.056 307.584 
L 189.288 307.584 
L 189.288 270.923867 
L 187.056 270.923867 
z
" clip-path="url(#p586408410a)" style="fill: #1f77b4"/>
   </g>
   <g id="patch_11">
    <path d="M 204.912 307.584 
L 207.144 307.584 
L 207.144 225.560291 
L 204.912 225.560291 
z
" clip-path="url(#p586408410a)" style="fill: #1f77b4"/>
   </g>
   <g id="patch_12">
    <path d="M 222.768 307.584 
L 225 307.584 
L 225 239.4608 
L 222.768 239.4608 
z
" clip-path="url(#p586408410a)" style="fill: #1f77b4"/>
   </g>
   <g id="patch_13">
    <path d="M 240.624 307.584 
L 242.856 307.584 
L 242.856 253.253848 
L 240.624 253.253848 
z
" clip-path="url(#p586408410a)" style="fill: #1f77b4"/>
   </g>
   <g id="patch_14">
    <path d="M 258.48 307.584 
L 260.712 307.584 
L 260.712 251.332556 
L 258.48 251.332556 
z
" clip-path="url(#p586408410a)" style="fill: #1f77b4"/>
   </g>
   <g id="patch_15">
    <path d="M 276.336 307.584 
L 278.568 307.584 
L 278.568 277.998388 
L 276.336 277.998388 
z
" clip-path="url(#p586408410a)" style="fill: #1f77b4"/>
   </g>
   <g id="patch_16">
    <path d="M 294.192 307.584 
L 296.424 307.584 
L 296.424 290.068872 
L 294.192 290.068872 
z
" clip-path="url(#p586408410a)" style="fill: #1f77b4"/>
   </g>
   <g id="patch_17">
    <path d="M 312.048 307.584 
L 314.28 307.584 
L 314.28 284.764036 
L 312.048 284.764036 
z
" clip-path="url(#p586408410a)" style="fill: #1f77b4"/>
   </g>
   <g id="patch_18">
    <path d="M 329.904 307.584 
L 332.136 307.584 
L 332.136 200.547109 
L 329.904 200.547109 
z
" clip-path="url(#p586408410a)" style="fill: #1f77b4"/>
   </g>
   <g id="patch_19">
    <path d="M 347.76 307.584 
L 349.992 307.584 
L 349.992 283.604851 
L 347.76 283.604851 
z
" clip-path="url(#p586408410a)" style="fill: #1f77b4"/>
   </g>
   <g id="patch_20">
    <path d="M 365.616 307.584 
L 367.848 307.584 
L 367.848 269.843949 
L 365.616 269.843949 
z
" clip-path="url(#p586408410a)" style="fill: #1f77b4"/>
   </g>
   <g id="patch_21">
    <path d="M 383.472 307.584 
L 385.704 307.584 
L 385.704 265.777198 
L 383.472 265.777198 
z
" clip-path="url(#p586408410a)" style="fill: #1f77b4"/>
   </g>
   <g id="patch_22">
    <path d="M 401.328 307.584 
L 403.56 307.584 
L 403.56 222.653053 
L 401.328 222.653053 
z
" clip-path="url(#p586408410a)" style="fill: #1f77b4"/>
   </g>
   <g id="patch_23">
    <path d="M 64.296 307.584 
L 66.528 307.584 
L 66.528 222.198593 
L 64.296 222.198593 
z
" clip-path="url(#p586408410a)" style="fill: #ff7f0e"/>
   </g>
   <g id="patch_24">
    <path d="M 82.152 307.584 
L 84.384 307.584 
L 84.384 218.34769 
L 82.152 218.34769 
z
" clip-path="url(#p586408410a)" style="fill: #ff7f0e"/>
   </g>
   <g id="patch_25">
    <path d="M 100.008 307.584 
L 102.24 307.584 
L 102.24 247.577345 
L 100.008 247.577345 
z
" clip-path="url(#p586408410a)" style="fill: #ff7f0e"/>
   </g>
   <g id="patch_26">
    <path d="M 117.864 307.584 
L 120.096 307.584 
L 120.096 260.041873 
L 117.864 260.041873 
z
" clip-path="url(#p586408410a)" style="fill: #ff7f0e"/>
   </g>
   <g id="patch_27">
    <path d="M 135.72 307.584 
L 137.952 307.584 
L 137.952 240.585588 
L 135.72 240.585588 
z
" clip-path="url(#p586408410a)" style="fill: #ff7f0e"/>
   </g>
   <g id="patch_28">
    <path d="M 153.576 307.584 
L 155.808 307.584 
L 155.808 200.981608 
L 153.576 200.981608 
z
" clip-path="url(#p586408410a)" style="fill: #ff7f0e"/>
   </g>
   <g id="patch_29">
    <path d="M 171.432 307.584 
L 173.664 307.584 
L 173.664 240.133881 
L 171.432 240.133881 
z
" clip-path="url(#p586408410a)" style="fill: #ff7f0e"/>
   </g>
   <g id="patch_30">
    <path d="M 189.288 307.584 
L 191.52 307.584 
L 191.52 205.026687 
L 189.288 205.026687 
z
" clip-path="url(#p586408410a)" style="fill: #ff7f0e"/>
   </g>
   <g id="patch_31">
    <path d="M 207.144 307.584 
L 209.376 307.584 
L 209.376 114.193158 
L 207.144 114.193158 
z
" clip-path="url(#p586408410a)" style="fill: #ff7f0e"/>
   </g>
   <g id="patch_32">
    <path d="M 225 307.584 
L 227.232 307.584 
L 227.232 102.088384 
L 225 102.088384 
z
" clip-path="url(#p586408410a)" style="fill: #ff7f0e"/>
   </g>
   <g id="patch_33">
    <path d="M 242.856 307.584 
L 245.088 307.584 
L 245.088 175.800936 
L 242.856 175.800936 
z
" clip-path="url(#p586408410a)" style="fill: #ff7f0e"/>
   </g>
   <g id="patch_34">
    <path d="M 260.712 307.584 
L 262.944 307.584 
L 262.944 198.967832 
L 260.712 198.967832 
z
" clip-path="url(#p586408410a)" style="fill: #ff7f0e"/>
   </g>
   <g id="patch_35">
    <path d="M 278.568 307.584 
L 280.8 307.584 
L 280.8 272.512816 
L 278.568 272.512816 
z
" clip-path="url(#p586408410a)" style="fill: #ff7f0e"/>
   </g>
   <g id="patch_36">
    <path d="M 296.424 307.584 
L 298.656 307.584 
L 298.656 276.560842 
L 296.424 276.560842 
z
" clip-path="url(#p586408410a)" style="fill: #ff7f0e"/>
   </g>
   <g id="patch_37">
    <path d="M 314.28 307.584 
L 316.512 307.584 
L 316.512 269.605375 
L 314.28 269.605375 
z
" clip-path="url(#p586408410a)" style="fill: #ff7f0e"/>
   </g>
   <g id="patch_38">
    <path d="M 332.136 307.584 
L 334.368 307.584 
L 334.368 159.854457 
L 332.136 159.854457 
z
" clip-path="url(#p586408410a)" style="fill: #ff7f0e"/>
   </g>
   <g id="patch_39">
    <path d="M 349.992 307.584 
L 352.224 307.584 
L 352.224 263.425475 
L 349.992 263.425475 
z
" clip-path="url(#p586408410a)" style="fill: #ff7f0e"/>
   </g>
   <g id="patch_40">
    <path d="M 367.848 307.584 
L 370.08 307.584 
L 370.08 182.060277 
L 367.848 182.060277 
z
" clip-path="url(#p586408410a)" style="fill: #ff7f0e"/>
   </g>
   <g id="patch_41">
    <path d="M 385.704 307.584 
L 387.936 307.584 
L 387.936 227.433206 
L 385.704 227.433206 
z
" clip-path="url(#p586408410a)" style="fill: #ff7f0e"/>
   </g>
   <g id="patch_42">
    <path d="M 403.56 307.584 
L 405.792 307.584 
L 405.792 307.584 
L 403.56 307.584 
z
" clip-path="url(#p586408410a)" style="fill: #ff7f0e"/>
   </g>
   <g id="patch_43">
    <path d="M 66.528 307.584 
L 68.76 307.584 
L 68.76 288.181339 
L 66.528 288.181339 
z
" clip-path="url(#p586408410a)" style="fill: #2ca02c"/>
   </g>
   <g id="patch_44">
    <path d="M 84.384 307.584 
L 86.616 307.584 
L 86.616 282.992283 
L 84.384 282.992283 
z
" clip-path="url(#p586408410a)" style="fill: #2ca02c"/>
   </g>
   <g id="patch_45">
    <path d="M 102.24 307.584 
L 104.472 307.584 
L 104.472 287.170514 
L 102.24 287.170514 
z
" clip-path="url(#p586408410a)" style="fill: #2ca02c"/>
   </g>
   <g id="patch_46">
    <path d="M 120.096 307.584 
L 122.328 307.584 
L 122.328 277.179817 
L 120.096 277.179817 
z
" clip-path="url(#p586408410a)" style="fill: #2ca02c"/>
   </g>
   <g id="patch_47">
    <path d="M 137.952 307.584 
L 140.184 307.584 
L 140.184 285.007431 
L 137.952 285.007431 
z
" clip-path="url(#p586408410a)" style="fill: #2ca02c"/>
   </g>
   <g id="patch_48">
    <path d="M 155.808 307.584 
L 158.04 307.584 
L 158.04 269.581549 
L 155.808 269.581549 
z
" clip-path="url(#p586408410a)" style="fill: #2ca02c"/>
   </g>
   <g id="patch_49">
    <path d="M 173.664 307.584 
L 175.896 307.584 
L 175.896 277.159691 
L 173.664 277.159691 
z
" clip-path="url(#p586408410a)" style="fill: #2ca02c"/>
   </g>
   <g id="patch_50">
    <path d="M 191.52 307.584 
L 193.752 307.584 
L 193.752 289.071467 
L 191.52 289.071467 
z
" clip-path="url(#p586408410a)" style="fill: #2ca02c"/>
   </g>
   <g id="patch_51">
    <path d="M 209.376 307.584 
L 211.608 307.584 
L 211.608 263.189307 
L 209.376 263.189307 
z
" clip-path="url(#p586408410a)" style="fill: #2ca02c"/>
   </g>
   <g id="patch_52">
    <path d="M 227.232 307.584 
L 229.464 307.584 
L 229.464 271.252809 
L 227.232 271.252809 
z
" clip-path="url(#p586408410a)" style="fill: #2ca02c"/>
   </g>
   <g id="patch_53">
    <path d="M 245.088 307.584 
L 247.32 307.584 
L 247.32 241.598191 
L 245.088 241.598191 
z
" clip-path="url(#p586408410a)" style="fill: #2ca02c"/>
   </g>
   <g id="patch_54">
    <path d="M 262.944 307.584 
L 265.176 307.584 
L 265.176 265.722289 
L 262.944 265.722289 
z
" clip-path="url(#p586408410a)" style="fill: #2ca02c"/>
   </g>
   <g id="patch_55">
    <path d="M 280.8 307.584 
L 283.032 307.584 
L 283.032 300.723162 
L 280.8 300.723162 
z
" clip-path="url(#p586408410a)" style="fill: #2ca02c"/>
   </g>
   <g id="patch_56">
    <path d="M 298.656 307.584 
L 300.888 307.584 
L 300.888 295.037181 
L 298.656 295.037181 
z
" clip-path="url(#p586408410a)" style="fill: #2ca02c"/>
   </g>
   <g id="patch_57">
    <path d="M 316.512 307.584 
L 318.744 307.584 
L 318.744 301.885429 
L 316.512 301.885429 
z
" clip-path="url(#p586408410a)" style="fill: #2ca02c"/>
   </g>
   <g id="patch_58">
    <path d="M 334.368 307.584 
L 336.6 307.584 
L 336.6 264.295641 
L 334.368 264.295641 
z
" clip-path="url(#p586408410a)" style="fill: #2ca02c"/>
   </g>
   <g id="patch_59">
    <path d="M 352.224 307.584 
L 354.456 307.584 
L 354.456 303.772595 
L 352.224 303.772595 
z
" clip-path="url(#p586408410a)" style="fill: #2ca02c"/>
   </g>
   <g id="patch_60">
    <path d="M 370.08 307.584 
L 372.312 307.584 
L 372.312 280.115393 
L 370.08 280.115393 
z
" clip-path="url(#p586408410a)" style="fill: #2ca02c"/>
   </g>
   <g id="patch_61">
    <path d="M 387.936 307.584 
L 390.168 307.584 
L 390.168 273.752611 
L 387.936 273.752611 
z
" clip-path="url(#p586408410a)" style="fill: #2ca02c"/>
   </g>
   <g id="patch_62">
    <path d="M 405.792 307.584 
L 408.024 307.584 
L 408.024 284.517202 
L 405.792 284.517202 
z
" clip-path="url(#p586408410a)" style="fill: #2ca02c"/>
   </g>
   <g id="patch_63">
    <path d="M 68.76 307.584 
L 70.992 307.584 
L 70.992 285.90953 
L 68.76 285.90953 
z
" clip-path="url(#p586408410a)" style="fill: #d62728"/>
   </g>
   <g id="patch_64">
    <path d="M 86.616 307.584 
L 88.848 307.584 
L 88.848 270.103633 
L 86.616 270.103633 
z
" clip-path="url(#p586408410a)" style="fill: #d62728"/>
   </g>
   <g id="patch_65">
    <path d="M 104.472 307.584 
L 106.704 307.584 
L 106.704 273.608705 
L 104.472 273.608705 
z
" clip-path="url(#p586408410a)" style="fill: #d62728"/>
   </g>
   <g id="patch_66">
    <path d="M 122.328 307.584 
L 124.56 307.584 
L 124.56 266.19072 
L 122.328 266.19072 
z
" clip-path="url(#p586408410a)" style="fill: #d62728"/>
   </g>
   <g id="patch_67">
    <path d="M 140.184 307.584 
L 142.416 307.584 
L 142.416 285.086137 
L 140.184 285.086137 
z
" clip-path="url(#p586408410a)" style="fill: #d62728"/>
   </g>
   <g id="patch_68">
    <path d="M 158.04 307.584 
L 160.272 307.584 
L 160.272 255.870927 
L 158.04 255.870927 
z
" clip-path="url(#p586408410a)" style="fill: #d62728"/>
   </g>
   <g id="patch_69">
    <path d="M 175.896 307.584 
L 178.128 307.584 
L 178.128 280.367097 
L 175.896 280.367097 
z
" clip-path="url(#p586408410a)" style="fill: #d62728"/>
   </g>
   <g id="patch_70">
    <path d="M 193.752 307.584 
L 195.984 307.584 
L 195.984 272.387104 
L 193.752 272.387104 
z
" clip-path="url(#p586408410a)" style="fill: #d62728"/>
   </g>
   <g id="patch_71">
    <path d="M 211.608 307.584 
L 213.84 307.584 
L 213.84 199.012653 
L 211.608 199.012653 
z
" clip-path="url(#p586408410a)" style="fill: #d62728"/>
   </g>
   <g id="patch_72">
    <path d="M 229.464 307.584 
L 231.696 307.584 
L 231.696 216.659609 
L 229.464 216.659609 
z
" clip-path="url(#p586408410a)" style="fill: #d62728"/>
   </g>
   <g id="patch_73">
    <path d="M 247.32 307.584 
L 249.552 307.584 
L 249.552 204.670016 
L 247.32 204.670016 
z
" clip-path="url(#p586408410a)" style="fill: #d62728"/>
   </g>
   <g id="patch_74">
    <path d="M 265.176 307.584 
L 267.408 307.584 
L 267.408 254.458135 
L 265.176 254.458135 
z
" clip-path="url(#p586408410a)" style="fill: #d62728"/>
   </g>
   <g id="patch_75">
    <path d="M 283.032 307.584 
L 285.264 307.584 
L 285.264 234.095722 
L 283.032 234.095722 
z
" clip-path="url(#p586408410a)" style="fill: #d62728"/>
   </g>
   <g id="patch_76">
    <path d="M 300.888 307.584 
L 303.12 307.584 
L 303.12 272.645861 
L 300.888 272.645861 
z
" clip-path="url(#p586408410a)" style="fill: #d62728"/>
   </g>
   <g id="patch_77">
    <path d="M 318.744 307.584 
L 320.976 307.584 
L 320.976 270.620568 
L 318.744 270.620568 
z
" clip-path="url(#p586408410a)" style="fill: #d62728"/>
   </g>
   <g id="patch_78">
    <path d="M 336.6 307.584 
L 338.832 307.584 
L 338.832 54.144 
L 336.6 54.144 
z
" clip-path="url(#p586408410a)" style="fill: #d62728"/>
   </g>
   <g id="patch_79">
    <path d="M 354.456 307.584 
L 356.688 307.584 
L 356.688 276.870093 
L 354.456 276.870093 
z
" clip-path="url(#p586408410a)" style="fill: #d62728"/>
   </g>
   <g id="patch_80">
    <path d="M 372.312 307.584 
L 374.544 307.584 
L 374.544 277.736597 
L 372.312 277.736597 
z
" clip-path="url(#p586408410a)" style="fill: #d62728"/>
   </g>
   <g id="patch_81">
    <path d="M 390.168 307.584 
L 392.4 307.584 
L 392.4 259.350549 
L 390.168 259.350549 
z
" clip-path="url(#p586408410a)" style="fill: #d62728"/>
   </g>
   <g id="patch_82">
    <path d="M 408.024 307.584 
L 410.256 307.584 
L 410.256 280.468007 
L 408.024 280.468007 
z
" clip-path="url(#p586408410a)" style="fill: #d62728"/>
   </g>
   <g id="matplotlib.axis_1">
    <g id="xtick_1">
     <g id="line2d_1">
      <defs>
       <path id="mfa481841a0" d="M 0 0 
L 0 3.5 
" style="stroke: #000000; stroke-width: 0.8"/>
      </defs>
      <g>
       <use xlink:href="#mfa481841a0" x="66.528" y="307.584" style="stroke: #000000; stroke-width: 0.8"/>
      </g>
     </g>
     <g id="text_1">
      <!-- q4 -->
      <g transform="translate(65.256589 321.764448) rotate(-45) scale(0.05 -0.05)">
       <defs>
        <path id="DejaVuSans-71" d="M 947 1747 
Q 947 1113 1208 752 
Q 1469 391 1925 391 
Q 2381 391 2643 752 
Q 2906 1113 2906 1747 
Q 2906 2381 2643 2742 
Q 2381 3103 1925 3103 
Q 1469 3103 1208 2742 
Q 947 2381 947 1747 
z
M 2906 525 
Q 2725 213 2448 61 
Q 2172 -91 1784 -91 
Q 1150 -91 751 415 
Q 353 922 353 1747 
Q 353 2572 751 3078 
Q 1150 3584 1784 3584 
Q 2172 3584 2448 3432 
Q 2725 3281 2906 2969 
L 2906 3500 
L 3481 3500 
L 3481 -1331 
L 2906 -1331 
L 2906 525 
z
" transform="scale(0.015625)"/>
        <path id="DejaVuSans-34" d="M 2419 4116 
L 825 1625 
L 2419 1625 
L 2419 4116 
z
M 2253 4666 
L 3047 4666 
L 3047 1625 
L 3713 1625 
L 3713 1100 
L 3047 1100 
L 3047 0 
L 2419 0 
L 2419 1100 
L 313 1100 
L 313 1709 
L 2253 4666 
z
" transform="scale(0.015625)"/>
       </defs>
       <use xlink:href="#DejaVuSans-71"/>
       <use xlink:href="#DejaVuSans-34" transform="translate(63.476562 0)"/>
      </g>
     </g>
    </g>
    <g id="xtick_2">
     <g id="line2d_2">
      <g>
       <use xlink:href="#mfa481841a0" x="84.384" y="307.584" style="stroke: #000000; stroke-width: 0.8"/>
      </g>
     </g>
     <g id="text_2">
      <!-- q5 -->
      <g transform="translate(83.112589 321.764448) rotate(-45) scale(0.05 -0.05)">
       <defs>
        <path id="DejaVuSans-35" d="M 691 4666 
L 3169 4666 
L 3169 4134 
L 1269 4134 
L 1269 2991 
Q 1406 3038 1543 3061 
Q 1681 3084 1819 3084 
Q 2600 3084 3056 2656 
Q 3513 2228 3513 1497 
Q 3513 744 3044 326 
Q 2575 -91 1722 -91 
Q 1428 -91 1123 -41 
Q 819 9 494 109 
L 494 744 
Q 775 591 1075 516 
Q 1375 441 1709 441 
Q 2250 441 2565 725 
Q 2881 1009 2881 1497 
Q 2881 1984 2565 2268 
Q 2250 2553 1709 2553 
Q 1456 2553 1204 2497 
Q 953 2441 691 2322 
L 691 4666 
z
" transform="scale(0.015625)"/>
       </defs>
       <use xlink:href="#DejaVuSans-71"/>
       <use xlink:href="#DejaVuSans-35" transform="translate(63.476562 0)"/>
      </g>
     </g>
    </g>
    <g id="xtick_3">
     <g id="line2d_3">
      <g>
       <use xlink:href="#mfa481841a0" x="102.24" y="307.584" style="stroke: #000000; stroke-width: 0.8"/>
      </g>
     </g>
     <g id="text_3">
      <!-- q8 -->
      <g transform="translate(100.968589 321.764448) rotate(-45) scale(0.05 -0.05)">
       <defs>
        <path id="DejaVuSans-38" d="M 2034 2216 
Q 1584 2216 1326 1975 
Q 1069 1734 1069 1313 
Q 1069 891 1326 650 
Q 1584 409 2034 409 
Q 2484 409 2743 651 
Q 3003 894 3003 1313 
Q 3003 1734 2745 1975 
Q 2488 2216 2034 2216 
z
M 1403 2484 
Q 997 2584 770 2862 
Q 544 3141 544 3541 
Q 544 4100 942 4425 
Q 1341 4750 2034 4750 
Q 2731 4750 3128 4425 
Q 3525 4100 3525 3541 
Q 3525 3141 3298 2862 
Q 3072 2584 2669 2484 
Q 3125 2378 3379 2068 
Q 3634 1759 3634 1313 
Q 3634 634 3220 271 
Q 2806 -91 2034 -91 
Q 1263 -91 848 271 
Q 434 634 434 1313 
Q 434 1759 690 2068 
Q 947 2378 1403 2484 
z
M 1172 3481 
Q 1172 3119 1398 2916 
Q 1625 2713 2034 2713 
Q 2441 2713 2670 2916 
Q 2900 3119 2900 3481 
Q 2900 3844 2670 4047 
Q 2441 4250 2034 4250 
Q 1625 4250 1398 4047 
Q 1172 3844 1172 3481 
z
" transform="scale(0.015625)"/>
       </defs>
       <use xlink:href="#DejaVuSans-71"/>
       <use xlink:href="#DejaVuSans-38" transform="translate(63.476562 0)"/>
      </g>
     </g>
    </g>
    <g id="xtick_4">
     <g id="line2d_4">
      <g>
       <use xlink:href="#mfa481841a0" x="120.096" y="307.584" style="stroke: #000000; stroke-width: 0.8"/>
      </g>
     </g>
     <g id="text_4">
      <!-- q9 -->
      <g transform="translate(118.824589 321.764448) rotate(-45) scale(0.05 -0.05)">
       <defs>
        <path id="DejaVuSans-39" d="M 703 97 
L 703 672 
Q 941 559 1184 500 
Q 1428 441 1663 441 
Q 2288 441 2617 861 
Q 2947 1281 2994 2138 
Q 2813 1869 2534 1725 
Q 2256 1581 1919 1581 
Q 1219 1581 811 2004 
Q 403 2428 403 3163 
Q 403 3881 828 4315 
Q 1253 4750 1959 4750 
Q 2769 4750 3195 4129 
Q 3622 3509 3622 2328 
Q 3622 1225 3098 567 
Q 2575 -91 1691 -91 
Q 1453 -91 1209 -44 
Q 966 3 703 97 
z
M 1959 2075 
Q 2384 2075 2632 2365 
Q 2881 2656 2881 3163 
Q 2881 3666 2632 3958 
Q 2384 4250 1959 4250 
Q 1534 4250 1286 3958 
Q 1038 3666 1038 3163 
Q 1038 2656 1286 2365 
Q 1534 2075 1959 2075 
z
" transform="scale(0.015625)"/>
       </defs>
       <use xlink:href="#DejaVuSans-71"/>
       <use xlink:href="#DejaVuSans-39" transform="translate(63.476562 0)"/>
      </g>
     </g>
    </g>
    <g id="xtick_5">
     <g id="line2d_5">
      <g>
       <use xlink:href="#mfa481841a0" x="137.952" y="307.584" style="stroke: #000000; stroke-width: 0.8"/>
      </g>
     </g>
     <g id="text_5">
      <!-- q12 -->
      <g transform="translate(135.555847 324.013932) rotate(-45) scale(0.05 -0.05)">
       <defs>
        <path id="DejaVuSans-31" d="M 794 531 
L 1825 531 
L 1825 4091 
L 703 3866 
L 703 4441 
L 1819 4666 
L 2450 4666 
L 2450 531 
L 3481 531 
L 3481 0 
L 794 0 
L 794 531 
z
" transform="scale(0.015625)"/>
        <path id="DejaVuSans-32" d="M 1228 531 
L 3431 531 
L 3431 0 
L 469 0 
L 469 531 
Q 828 903 1448 1529 
Q 2069 2156 2228 2338 
Q 2531 2678 2651 2914 
Q 2772 3150 2772 3378 
Q 2772 3750 2511 3984 
Q 2250 4219 1831 4219 
Q 1534 4219 1204 4116 
Q 875 4013 500 3803 
L 500 4441 
Q 881 4594 1212 4672 
Q 1544 4750 1819 4750 
Q 2544 4750 2975 4387 
Q 3406 4025 3406 3419 
Q 3406 3131 3298 2873 
Q 3191 2616 2906 2266 
Q 2828 2175 2409 1742 
Q 1991 1309 1228 531 
z
" transform="scale(0.015625)"/>
       </defs>
       <use xlink:href="#DejaVuSans-71"/>
       <use xlink:href="#DejaVuSans-31" transform="translate(63.476562 0)"/>
       <use xlink:href="#DejaVuSans-32" transform="translate(127.099609 0)"/>
      </g>
     </g>
    </g>
    <g id="xtick_6">
     <g id="line2d_6">
      <g>
       <use xlink:href="#mfa481841a0" x="155.808" y="307.584" style="stroke: #000000; stroke-width: 0.8"/>
      </g>
     </g>
     <g id="text_6">
      <!-- q13 -->
      <g transform="translate(153.411847 324.013932) rotate(-45) scale(0.05 -0.05)">
       <defs>
        <path id="DejaVuSans-33" d="M 2597 2516 
Q 3050 2419 3304 2112 
Q 3559 1806 3559 1356 
Q 3559 666 3084 287 
Q 2609 -91 1734 -91 
Q 1441 -91 1130 -33 
Q 819 25 488 141 
L 488 750 
Q 750 597 1062 519 
Q 1375 441 1716 441 
Q 2309 441 2620 675 
Q 2931 909 2931 1356 
Q 2931 1769 2642 2001 
Q 2353 2234 1838 2234 
L 1294 2234 
L 1294 2753 
L 1863 2753 
Q 2328 2753 2575 2939 
Q 2822 3125 2822 3475 
Q 2822 3834 2567 4026 
Q 2313 4219 1838 4219 
Q 1578 4219 1281 4162 
Q 984 4106 628 3988 
L 628 4550 
Q 988 4650 1302 4700 
Q 1616 4750 1894 4750 
Q 2613 4750 3031 4423 
Q 3450 4097 3450 3541 
Q 3450 3153 3228 2886 
Q 3006 2619 2597 2516 
z
" transform="scale(0.015625)"/>
       </defs>
       <use xlink:href="#DejaVuSans-71"/>
       <use xlink:href="#DejaVuSans-31" transform="translate(63.476562 0)"/>
       <use xlink:href="#DejaVuSans-33" transform="translate(127.099609 0)"/>
      </g>
     </g>
    </g>
    <g id="xtick_7">
     <g id="line2d_7">
      <g>
       <use xlink:href="#mfa481841a0" x="173.664" y="307.584" style="stroke: #000000; stroke-width: 0.8"/>
      </g>
     </g>
     <g id="text_7">
      <!-- q14 -->
      <g transform="translate(171.267847 324.013932) rotate(-45) scale(0.05 -0.05)">
       <use xlink:href="#DejaVuSans-71"/>
       <use xlink:href="#DejaVuSans-31" transform="translate(63.476562 0)"/>
       <use xlink:href="#DejaVuSans-34" transform="translate(127.099609 0)"/>
      </g>
     </g>
    </g>
    <g id="xtick_8">
     <g id="line2d_8">
      <g>
       <use xlink:href="#mfa481841a0" x="191.52" y="307.584" style="stroke: #000000; stroke-width: 0.8"/>
      </g>
     </g>
     <g id="text_8">
      <!-- q15 -->
      <g transform="translate(189.123847 324.013932) rotate(-45) scale(0.05 -0.05)">
       <use xlink:href="#DejaVuSans-71"/>
       <use xlink:href="#DejaVuSans-31" transform="translate(63.476562 0)"/>
       <use xlink:href="#DejaVuSans-35" transform="translate(127.099609 0)"/>
      </g>
     </g>
    </g>
    <g id="xtick_9">
     <g id="line2d_9">
      <g>
       <use xlink:href="#mfa481841a0" x="209.376" y="307.584" style="stroke: #000000; stroke-width: 0.8"/>
      </g>
     </g>
     <g id="text_9">
      <!-- q16 -->
      <g transform="translate(206.979847 324.013932) rotate(-45) scale(0.05 -0.05)">
       <defs>
        <path id="DejaVuSans-36" d="M 2113 2584 
Q 1688 2584 1439 2293 
Q 1191 2003 1191 1497 
Q 1191 994 1439 701 
Q 1688 409 2113 409 
Q 2538 409 2786 701 
Q 3034 994 3034 1497 
Q 3034 2003 2786 2293 
Q 2538 2584 2113 2584 
z
M 3366 4563 
L 3366 3988 
Q 3128 4100 2886 4159 
Q 2644 4219 2406 4219 
Q 1781 4219 1451 3797 
Q 1122 3375 1075 2522 
Q 1259 2794 1537 2939 
Q 1816 3084 2150 3084 
Q 2853 3084 3261 2657 
Q 3669 2231 3669 1497 
Q 3669 778 3244 343 
Q 2819 -91 2113 -91 
Q 1303 -91 875 529 
Q 447 1150 447 2328 
Q 447 3434 972 4092 
Q 1497 4750 2381 4750 
Q 2619 4750 2861 4703 
Q 3103 4656 3366 4563 
z
" transform="scale(0.015625)"/>
       </defs>
       <use xlink:href="#DejaVuSans-71"/>
       <use xlink:href="#DejaVuSans-31" transform="translate(63.476562 0)"/>
       <use xlink:href="#DejaVuSans-36" transform="translate(127.099609 0)"/>
      </g>
     </g>
    </g>
    <g id="xtick_10">
     <g id="line2d_10">
      <g>
       <use xlink:href="#mfa481841a0" x="227.232" y="307.584" style="stroke: #000000; stroke-width: 0.8"/>
      </g>
     </g>
     <g id="text_10">
      <!-- q17 -->
      <g transform="translate(224.835847 324.013932) rotate(-45) scale(0.05 -0.05)">
       <defs>
        <path id="DejaVuSans-37" d="M 525 4666 
L 3525 4666 
L 3525 4397 
L 1831 0 
L 1172 0 
L 2766 4134 
L 525 4134 
L 525 4666 
z
" transform="scale(0.015625)"/>
       </defs>
       <use xlink:href="#DejaVuSans-71"/>
       <use xlink:href="#DejaVuSans-31" transform="translate(63.476562 0)"/>
       <use xlink:href="#DejaVuSans-37" transform="translate(127.099609 0)"/>
      </g>
     </g>
    </g>
    <g id="xtick_11">
     <g id="line2d_11">
      <g>
       <use xlink:href="#mfa481841a0" x="245.088" y="307.584" style="stroke: #000000; stroke-width: 0.8"/>
      </g>
     </g>
     <g id="text_11">
      <!-- q20 -->
      <g transform="translate(242.691847 324.013932) rotate(-45) scale(0.05 -0.05)">
       <defs>
        <path id="DejaVuSans-30" d="M 2034 4250 
Q 1547 4250 1301 3770 
Q 1056 3291 1056 2328 
Q 1056 1369 1301 889 
Q 1547 409 2034 409 
Q 2525 409 2770 889 
Q 3016 1369 3016 2328 
Q 3016 3291 2770 3770 
Q 2525 4250 2034 4250 
z
M 2034 4750 
Q 2819 4750 3233 4129 
Q 3647 3509 3647 2328 
Q 3647 1150 3233 529 
Q 2819 -91 2034 -91 
Q 1250 -91 836 529 
Q 422 1150 422 2328 
Q 422 3509 836 4129 
Q 1250 4750 2034 4750 
z
" transform="scale(0.015625)"/>
       </defs>
       <use xlink:href="#DejaVuSans-71"/>
       <use xlink:href="#DejaVuSans-32" transform="translate(63.476562 0)"/>
       <use xlink:href="#DejaVuSans-30" transform="translate(127.099609 0)"/>
      </g>
     </g>
    </g>
    <g id="xtick_12">
     <g id="line2d_12">
      <g>
       <use xlink:href="#mfa481841a0" x="262.944" y="307.584" style="stroke: #000000; stroke-width: 0.8"/>
      </g>
     </g>
     <g id="text_12">
      <!-- q21 -->
      <g transform="translate(260.547847 324.013932) rotate(-45) scale(0.05 -0.05)">
       <use xlink:href="#DejaVuSans-71"/>
       <use xlink:href="#DejaVuSans-32" transform="translate(63.476562 0)"/>
       <use xlink:href="#DejaVuSans-31" transform="translate(127.099609 0)"/>
      </g>
     </g>
    </g>
    <g id="xtick_13">
     <g id="line2d_13">
      <g>
       <use xlink:href="#mfa481841a0" x="280.8" y="307.584" style="stroke: #000000; stroke-width: 0.8"/>
      </g>
     </g>
     <g id="text_13">
      <!-- q24 -->
      <g transform="translate(278.403847 324.013932) rotate(-45) scale(0.05 -0.05)">
       <use xlink:href="#DejaVuSans-71"/>
       <use xlink:href="#DejaVuSans-32" transform="translate(63.476562 0)"/>
       <use xlink:href="#DejaVuSans-34" transform="translate(127.099609 0)"/>
      </g>
     </g>
    </g>
    <g id="xtick_14">
     <g id="line2d_14">
      <g>
       <use xlink:href="#mfa481841a0" x="298.656" y="307.584" style="stroke: #000000; stroke-width: 0.8"/>
      </g>
     </g>
     <g id="text_14">
      <!-- q25 -->
      <g transform="translate(296.259847 324.013932) rotate(-45) scale(0.05 -0.05)">
       <use xlink:href="#DejaVuSans-71"/>
       <use xlink:href="#DejaVuSans-32" transform="translate(63.476562 0)"/>
       <use xlink:href="#DejaVuSans-35" transform="translate(127.099609 0)"/>
      </g>
     </g>
    </g>
    <g id="xtick_15">
     <g id="line2d_15">
      <g>
       <use xlink:href="#mfa481841a0" x="316.512" y="307.584" style="stroke: #000000; stroke-width: 0.8"/>
      </g>
     </g>
     <g id="text_15">
      <!-- q26 -->
      <g transform="translate(314.115847 324.013932) rotate(-45) scale(0.05 -0.05)">
       <use xlink:href="#DejaVuSans-71"/>
       <use xlink:href="#DejaVuSans-32" transform="translate(63.476562 0)"/>
       <use xlink:href="#DejaVuSans-36" transform="translate(127.099609 0)"/>
      </g>
     </g>
    </g>
    <g id="xtick_16">
     <g id="line2d_16">
      <g>
       <use xlink:href="#mfa481841a0" x="334.368" y="307.584" style="stroke: #000000; stroke-width: 0.8"/>
      </g>
     </g>
     <g id="text_16">
      <!-- q27 -->
      <g transform="translate(331.971847 324.013932) rotate(-45) scale(0.05 -0.05)">
       <use xlink:href="#DejaVuSans-71"/>
       <use xlink:href="#DejaVuSans-32" transform="translate(63.476562 0)"/>
       <use xlink:href="#DejaVuSans-37" transform="translate(127.099609 0)"/>
      </g>
     </g>
    </g>
    <g id="xtick_17">
     <g id="line2d_17">
      <g>
       <use xlink:href="#mfa481841a0" x="352.224" y="307.584" style="stroke: #000000; stroke-width: 0.8"/>
      </g>
     </g>
     <g id="text_17">
      <!-- q29 -->
      <g transform="translate(349.827847 324.013932) rotate(-45) scale(0.05 -0.05)">
       <use xlink:href="#DejaVuSans-71"/>
       <use xlink:href="#DejaVuSans-32" transform="translate(63.476562 0)"/>
       <use xlink:href="#DejaVuSans-39" transform="translate(127.099609 0)"/>
      </g>
     </g>
    </g>
    <g id="xtick_18">
     <g id="line2d_18">
      <g>
       <use xlink:href="#mfa481841a0" x="370.08" y="307.584" style="stroke: #000000; stroke-width: 0.8"/>
      </g>
     </g>
     <g id="text_18">
      <!-- q30 -->
      <g transform="translate(367.683847 324.013932) rotate(-45) scale(0.05 -0.05)">
       <use xlink:href="#DejaVuSans-71"/>
       <use xlink:href="#DejaVuSans-33" transform="translate(63.476562 0)"/>
       <use xlink:href="#DejaVuSans-30" transform="translate(127.099609 0)"/>
      </g>
     </g>
    </g>
    <g id="xtick_19">
     <g id="line2d_19">
      <g>
       <use xlink:href="#mfa481841a0" x="387.936" y="307.584" style="stroke: #000000; stroke-width: 0.8"/>
      </g>
     </g>
     <g id="text_19">
      <!-- q31 -->
      <g transform="translate(385.539847 324.013932) rotate(-45) scale(0.05 -0.05)">
       <use xlink:href="#DejaVuSans-71"/>
       <use xlink:href="#DejaVuSans-33" transform="translate(63.476562 0)"/>
       <use xlink:href="#DejaVuSans-31" transform="translate(127.099609 0)"/>
      </g>
     </g>
    </g>
    <g id="xtick_20">
     <g id="line2d_20">
      <g>
       <use xlink:href="#mfa481841a0" x="405.792" y="307.584" style="stroke: #000000; stroke-width: 0.8"/>
      </g>
     </g>
     <g id="text_20">
      <!-- q35 -->
      <g transform="translate(403.395847 324.013932) rotate(-45) scale(0.05 -0.05)">
       <use xlink:href="#DejaVuSans-71"/>
       <use xlink:href="#DejaVuSans-33" transform="translate(63.476562 0)"/>
       <use xlink:href="#DejaVuSans-35" transform="translate(127.099609 0)"/>
      </g>
     </g>
    </g>
    <g id="text_21">
     <!-- Queries -->
     <g transform="translate(216.852969 336.34765) scale(0.1 -0.1)">
      <defs>
       <path id="DejaVuSans-51" d="M 2522 4238 
Q 1834 4238 1429 3725 
Q 1025 3213 1025 2328 
Q 1025 1447 1429 934 
Q 1834 422 2522 422 
Q 3209 422 3611 934 
Q 4013 1447 4013 2328 
Q 4013 3213 3611 3725 
Q 3209 4238 2522 4238 
z
M 3406 84 
L 4238 -825 
L 3475 -825 
L 2784 -78 
Q 2681 -84 2626 -87 
Q 2572 -91 2522 -91 
Q 1538 -91 948 567 
Q 359 1225 359 2328 
Q 359 3434 948 4092 
Q 1538 4750 2522 4750 
Q 3503 4750 4090 4092 
Q 4678 3434 4678 2328 
Q 4678 1516 4351 937 
Q 4025 359 3406 84 
z
" transform="scale(0.015625)"/>
       <path id="DejaVuSans-75" d="M 544 1381 
L 544 3500 
L 1119 3500 
L 1119 1403 
Q 1119 906 1312 657 
Q 1506 409 1894 409 
Q 2359 409 2629 706 
Q 2900 1003 2900 1516 
L 2900 3500 
L 3475 3500 
L 3475 0 
L 2900 0 
L 2900 538 
Q 2691 219 2414 64 
Q 2138 -91 1772 -91 
Q 1169 -91 856 284 
Q 544 659 544 1381 
z
M 1991 3584 
L 1991 3584 
z
" transform="scale(0.015625)"/>
       <path id="DejaVuSans-65" d="M 3597 1894 
L 3597 1613 
L 953 1613 
Q 991 1019 1311 708 
Q 1631 397 2203 397 
Q 2534 397 2845 478 
Q 3156 559 3463 722 
L 3463 178 
Q 3153 47 2828 -22 
Q 2503 -91 2169 -91 
Q 1331 -91 842 396 
Q 353 884 353 1716 
Q 353 2575 817 3079 
Q 1281 3584 2069 3584 
Q 2775 3584 3186 3129 
Q 3597 2675 3597 1894 
z
M 3022 2063 
Q 3016 2534 2758 2815 
Q 2500 3097 2075 3097 
Q 1594 3097 1305 2825 
Q 1016 2553 972 2059 
L 3022 2063 
z
" transform="scale(0.015625)"/>
       <path id="DejaVuSans-72" d="M 2631 2963 
Q 2534 3019 2420 3045 
Q 2306 3072 2169 3072 
Q 1681 3072 1420 2755 
Q 1159 2438 1159 1844 
L 1159 0 
L 581 0 
L 581 3500 
L 1159 3500 
L 1159 2956 
Q 1341 3275 1631 3429 
Q 1922 3584 2338 3584 
Q 2397 3584 2469 3576 
Q 2541 3569 2628 3553 
L 2631 2963 
z
" transform="scale(0.015625)"/>
       <path id="DejaVuSans-69" d="M 603 3500 
L 1178 3500 
L 1178 0 
L 603 0 
L 603 3500 
z
M 603 4863 
L 1178 4863 
L 1178 4134 
L 603 4134 
L 603 4863 
z
" transform="scale(0.015625)"/>
       <path id="DejaVuSans-73" d="M 2834 3397 
L 2834 2853 
Q 2591 2978 2328 3040 
Q 2066 3103 1784 3103 
Q 1356 3103 1142 2972 
Q 928 2841 928 2578 
Q 928 2378 1081 2264 
Q 1234 2150 1697 2047 
L 1894 2003 
Q 2506 1872 2764 1633 
Q 3022 1394 3022 966 
Q 3022 478 2636 193 
Q 2250 -91 1575 -91 
Q 1294 -91 989 -36 
Q 684 19 347 128 
L 347 722 
Q 666 556 975 473 
Q 1284 391 1588 391 
Q 1994 391 2212 530 
Q 2431 669 2431 922 
Q 2431 1156 2273 1281 
Q 2116 1406 1581 1522 
L 1381 1569 
Q 847 1681 609 1914 
Q 372 2147 372 2553 
Q 372 3047 722 3315 
Q 1072 3584 1716 3584 
Q 2034 3584 2315 3537 
Q 2597 3491 2834 3397 
z
" transform="scale(0.015625)"/>
      </defs>
      <use xlink:href="#DejaVuSans-51"/>
      <use xlink:href="#DejaVuSans-75" transform="translate(78.710938 0)"/>
      <use xlink:href="#DejaVuSans-65" transform="translate(142.089844 0)"/>
      <use xlink:href="#DejaVuSans-72" transform="translate(203.613281 0)"/>
      <use xlink:href="#DejaVuSans-69" transform="translate(244.726562 0)"/>
      <use xlink:href="#DejaVuSans-65" transform="translate(272.509766 0)"/>
      <use xlink:href="#DejaVuSans-73" transform="translate(334.033203 0)"/>
     </g>
    </g>
   </g>
   <g id="matplotlib.axis_2">
    <g id="ytick_1">
     <g id="line2d_21">
      <defs>
       <path id="ma62b947180" d="M 0 0 
L -3.5 0 
" style="stroke: #000000; stroke-width: 0.8"/>
      </defs>
      <g>
       <use xlink:href="#ma62b947180" x="57.6" y="307.584" style="stroke: #000000; stroke-width: 0.8"/>
      </g>
     </g>
     <g id="text_22">
      <!-- 0 -->
      <g transform="translate(44.2375 311.383219) scale(0.1 -0.1)">
       <use xlink:href="#DejaVuSans-30"/>
      </g>
     </g>
    </g>
    <g id="ytick_2">
     <g id="line2d_22">
      <g>
       <use xlink:href="#ma62b947180" x="57.6" y="267.058771" style="stroke: #000000; stroke-width: 0.8"/>
      </g>
     </g>
     <g id="text_23">
      <!-- 1 -->
      <g transform="translate(44.2375 270.857989) scale(0.1 -0.1)">
       <use xlink:href="#DejaVuSans-31"/>
      </g>
     </g>
    </g>
    <g id="ytick_3">
     <g id="line2d_23">
      <g>
       <use xlink:href="#ma62b947180" x="57.6" y="226.533541" style="stroke: #000000; stroke-width: 0.8"/>
      </g>
     </g>
     <g id="text_24">
      <!-- 2 -->
      <g transform="translate(44.2375 230.33276) scale(0.1 -0.1)">
       <use xlink:href="#DejaVuSans-32"/>
      </g>
     </g>
    </g>
    <g id="ytick_4">
     <g id="line2d_24">
      <g>
       <use xlink:href="#ma62b947180" x="57.6" y="186.008312" style="stroke: #000000; stroke-width: 0.8"/>
      </g>
     </g>
     <g id="text_25">
      <!-- 3 -->
      <g transform="translate(44.2375 189.807531) scale(0.1 -0.1)">
       <use xlink:href="#DejaVuSans-33"/>
      </g>
     </g>
    </g>
    <g id="ytick_5">
     <g id="line2d_25">
      <g>
       <use xlink:href="#ma62b947180" x="57.6" y="145.483082" style="stroke: #000000; stroke-width: 0.8"/>
      </g>
     </g>
     <g id="text_26">
      <!-- 4 -->
      <g transform="translate(44.2375 149.282301) scale(0.1 -0.1)">
       <use xlink:href="#DejaVuSans-34"/>
      </g>
     </g>
    </g>
    <g id="ytick_6">
     <g id="line2d_26">
      <g>
       <use xlink:href="#ma62b947180" x="57.6" y="104.957853" style="stroke: #000000; stroke-width: 0.8"/>
      </g>
     </g>
     <g id="text_27">
      <!-- 5 -->
      <g transform="translate(44.2375 108.757072) scale(0.1 -0.1)">
       <use xlink:href="#DejaVuSans-35"/>
      </g>
     </g>
    </g>
    <g id="ytick_7">
     <g id="line2d_27">
      <g>
       <use xlink:href="#ma62b947180" x="57.6" y="64.432624" style="stroke: #000000; stroke-width: 0.8"/>
      </g>
     </g>
     <g id="text_28">
      <!-- 6 -->
      <g transform="translate(44.2375 68.231842) scale(0.1 -0.1)">
       <use xlink:href="#DejaVuSans-36"/>
      </g>
     </g>
    </g>
    <g id="text_29">
     <!-- Seconds -->
     <g transform="translate(38.157812 195.535031) rotate(-90) scale(0.1 -0.1)">
      <defs>
       <path id="DejaVuSans-53" d="M 3425 4513 
L 3425 3897 
Q 3066 4069 2747 4153 
Q 2428 4238 2131 4238 
Q 1616 4238 1336 4038 
Q 1056 3838 1056 3469 
Q 1056 3159 1242 3001 
Q 1428 2844 1947 2747 
L 2328 2669 
Q 3034 2534 3370 2195 
Q 3706 1856 3706 1288 
Q 3706 609 3251 259 
Q 2797 -91 1919 -91 
Q 1588 -91 1214 -16 
Q 841 59 441 206 
L 441 856 
Q 825 641 1194 531 
Q 1563 422 1919 422 
Q 2459 422 2753 634 
Q 3047 847 3047 1241 
Q 3047 1584 2836 1778 
Q 2625 1972 2144 2069 
L 1759 2144 
Q 1053 2284 737 2584 
Q 422 2884 422 3419 
Q 422 4038 858 4394 
Q 1294 4750 2059 4750 
Q 2388 4750 2728 4690 
Q 3069 4631 3425 4513 
z
" transform="scale(0.015625)"/>
       <path id="DejaVuSans-63" d="M 3122 3366 
L 3122 2828 
Q 2878 2963 2633 3030 
Q 2388 3097 2138 3097 
Q 1578 3097 1268 2742 
Q 959 2388 959 1747 
Q 959 1106 1268 751 
Q 1578 397 2138 397 
Q 2388 397 2633 464 
Q 2878 531 3122 666 
L 3122 134 
Q 2881 22 2623 -34 
Q 2366 -91 2075 -91 
Q 1284 -91 818 406 
Q 353 903 353 1747 
Q 353 2603 823 3093 
Q 1294 3584 2113 3584 
Q 2378 3584 2631 3529 
Q 2884 3475 3122 3366 
z
" transform="scale(0.015625)"/>
       <path id="DejaVuSans-6f" d="M 1959 3097 
Q 1497 3097 1228 2736 
Q 959 2375 959 1747 
Q 959 1119 1226 758 
Q 1494 397 1959 397 
Q 2419 397 2687 759 
Q 2956 1122 2956 1747 
Q 2956 2369 2687 2733 
Q 2419 3097 1959 3097 
z
M 1959 3584 
Q 2709 3584 3137 3096 
Q 3566 2609 3566 1747 
Q 3566 888 3137 398 
Q 2709 -91 1959 -91 
Q 1206 -91 779 398 
Q 353 888 353 1747 
Q 353 2609 779 3096 
Q 1206 3584 1959 3584 
z
" transform="scale(0.015625)"/>
       <path id="DejaVuSans-6e" d="M 3513 2113 
L 3513 0 
L 2938 0 
L 2938 2094 
Q 2938 2591 2744 2837 
Q 2550 3084 2163 3084 
Q 1697 3084 1428 2787 
Q 1159 2491 1159 1978 
L 1159 0 
L 581 0 
L 581 3500 
L 1159 3500 
L 1159 2956 
Q 1366 3272 1645 3428 
Q 1925 3584 2291 3584 
Q 2894 3584 3203 3211 
Q 3513 2838 3513 2113 
z
" transform="scale(0.015625)"/>
       <path id="DejaVuSans-64" d="M 2906 2969 
L 2906 4863 
L 3481 4863 
L 3481 0 
L 2906 0 
L 2906 525 
Q 2725 213 2448 61 
Q 2172 -91 1784 -91 
Q 1150 -91 751 415 
Q 353 922 353 1747 
Q 353 2572 751 3078 
Q 1150 3584 1784 3584 
Q 2172 3584 2448 3432 
Q 2725 3281 2906 2969 
z
M 947 1747 
Q 947 1113 1208 752 
Q 1469 391 1925 391 
Q 2381 391 2643 752 
Q 2906 1113 2906 1747 
Q 2906 2381 2643 2742 
Q 2381 3103 1925 3103 
Q 1469 3103 1208 2742 
Q 947 2381 947 1747 
z
" transform="scale(0.015625)"/>
      </defs>
      <use xlink:href="#DejaVuSans-53"/>
      <use xlink:href="#DejaVuSans-65" transform="translate(63.476562 0)"/>
      <use xlink:href="#DejaVuSans-63" transform="translate(125 0)"/>
      <use xlink:href="#DejaVuSans-6f" transform="translate(179.980469 0)"/>
      <use xlink:href="#DejaVuSans-6e" transform="translate(241.162109 0)"/>
      <use xlink:href="#DejaVuSans-64" transform="translate(304.541016 0)"/>
      <use xlink:href="#DejaVuSans-73" transform="translate(368.017578 0)"/>
     </g>
    </g>
   </g>
   <g id="patch_83">
    <path d="M 57.6 307.584 
L 57.6 41.472 
" style="fill: none; stroke: #000000; stroke-width: 0.8; stroke-linejoin: miter; stroke-linecap: square"/>
   </g>
   <g id="patch_84">
    <path d="M 414.72 307.584 
L 414.72 41.472 
" style="fill: none; stroke: #000000; stroke-width: 0.8; stroke-linejoin: miter; stroke-linecap: square"/>
   </g>
   <g id="patch_85">
    <path d="M 57.6 307.584 
L 414.72 307.584 
" style="fill: none; stroke: #000000; stroke-width: 0.8; stroke-linejoin: miter; stroke-linecap: square"/>
   </g>
   <g id="patch_86">
    <path d="M 57.6 41.472 
L 414.72 41.472 
" style="fill: none; stroke: #000000; stroke-width: 0.8; stroke-linejoin: miter; stroke-linecap: square"/>
   </g>
   <g id="text_30">
    <!-- ClickBench Fast Queries -->
    <g transform="translate(164.110313 35.472) scale(0.12 -0.12)">
     <defs>
      <path id="DejaVuSans-43" d="M 4122 4306 
L 4122 3641 
Q 3803 3938 3442 4084 
Q 3081 4231 2675 4231 
Q 1875 4231 1450 3742 
Q 1025 3253 1025 2328 
Q 1025 1406 1450 917 
Q 1875 428 2675 428 
Q 3081 428 3442 575 
Q 3803 722 4122 1019 
L 4122 359 
Q 3791 134 3420 21 
Q 3050 -91 2638 -91 
Q 1578 -91 968 557 
Q 359 1206 359 2328 
Q 359 3453 968 4101 
Q 1578 4750 2638 4750 
Q 3056 4750 3426 4639 
Q 3797 4528 4122 4306 
z
" transform="scale(0.015625)"/>
      <path id="DejaVuSans-6c" d="M 603 4863 
L 1178 4863 
L 1178 0 
L 603 0 
L 603 4863 
z
" transform="scale(0.015625)"/>
      <path id="DejaVuSans-6b" d="M 581 4863 
L 1159 4863 
L 1159 1991 
L 2875 3500 
L 3609 3500 
L 1753 1863 
L 3688 0 
L 2938 0 
L 1159 1709 
L 1159 0 
L 581 0 
L 581 4863 
z
" transform="scale(0.015625)"/>
      <path id="DejaVuSans-42" d="M 1259 2228 
L 1259 519 
L 2272 519 
Q 2781 519 3026 730 
Q 3272 941 3272 1375 
Q 3272 1813 3026 2020 
Q 2781 2228 2272 2228 
L 1259 2228 
z
M 1259 4147 
L 1259 2741 
L 2194 2741 
Q 2656 2741 2882 2914 
Q 3109 3088 3109 3444 
Q 3109 3797 2882 3972 
Q 2656 4147 2194 4147 
L 1259 4147 
z
M 628 4666 
L 2241 4666 
Q 2963 4666 3353 4366 
Q 3744 4066 3744 3513 
Q 3744 3084 3544 2831 
Q 3344 2578 2956 2516 
Q 3422 2416 3680 2098 
Q 3938 1781 3938 1306 
Q 3938 681 3513 340 
Q 3088 0 2303 0 
L 628 0 
L 628 4666 
z
" transform="scale(0.015625)"/>
      <path id="DejaVuSans-68" d="M 3513 2113 
L 3513 0 
L 2938 0 
L 2938 2094 
Q 2938 2591 2744 2837 
Q 2550 3084 2163 3084 
Q 1697 3084 1428 2787 
Q 1159 2491 1159 1978 
L 1159 0 
L 581 0 
L 581 4863 
L 1159 4863 
L 1159 2956 
Q 1366 3272 1645 3428 
Q 1925 3584 2291 3584 
Q 2894 3584 3203 3211 
Q 3513 2838 3513 2113 
z
" transform="scale(0.015625)"/>
      <path id="DejaVuSans-20" transform="scale(0.015625)"/>
      <path id="DejaVuSans-46" d="M 628 4666 
L 3309 4666 
L 3309 4134 
L 1259 4134 
L 1259 2759 
L 3109 2759 
L 3109 2228 
L 1259 2228 
L 1259 0 
L 628 0 
L 628 4666 
z
" transform="scale(0.015625)"/>
      <path id="DejaVuSans-61" d="M 2194 1759 
Q 1497 1759 1228 1600 
Q 959 1441 959 1056 
Q 959 750 1161 570 
Q 1363 391 1709 391 
Q 2188 391 2477 730 
Q 2766 1069 2766 1631 
L 2766 1759 
L 2194 1759 
z
M 3341 1997 
L 3341 0 
L 2766 0 
L 2766 531 
Q 2569 213 2275 61 
Q 1981 -91 1556 -91 
Q 1019 -91 701 211 
Q 384 513 384 1019 
Q 384 1609 779 1909 
Q 1175 2209 1959 2209 
L 2766 2209 
L 2766 2266 
Q 2766 2663 2505 2880 
Q 2244 3097 1772 3097 
Q 1472 3097 1187 3025 
Q 903 2953 641 2809 
L 641 3341 
Q 956 3463 1253 3523 
Q 1550 3584 1831 3584 
Q 2591 3584 2966 3190 
Q 3341 2797 3341 1997 
z
" transform="scale(0.015625)"/>
      <path id="DejaVuSans-74" d="M 1172 4494 
L 1172 3500 
L 2356 3500 
L 2356 3053 
L 1172 3053 
L 1172 1153 
Q 1172 725 1289 603 
Q 1406 481 1766 481 
L 2356 481 
L 2356 0 
L 1766 0 
Q 1100 0 847 248 
Q 594 497 594 1153 
L 594 3053 
L 172 3053 
L 172 3500 
L 594 3500 
L 594 4494 
L 1172 4494 
z
" transform="scale(0.015625)"/>
     </defs>
     <use xlink:href="#DejaVuSans-43"/>
     <use xlink:href="#DejaVuSans-6c" transform="translate(69.824219 0)"/>
     <use xlink:href="#DejaVuSans-69" transform="translate(97.607422 0)"/>
     <use xlink:href="#DejaVuSans-63" transform="translate(125.390625 0)"/>
     <use xlink:href="#DejaVuSans-6b" transform="translate(180.371094 0)"/>
     <use xlink:href="#DejaVuSans-42" transform="translate(238.28125 0)"/>
     <use xlink:href="#DejaVuSans-65" transform="translate(306.884766 0)"/>
     <use xlink:href="#DejaVuSans-6e" transform="translate(368.408203 0)"/>
     <use xlink:href="#DejaVuSans-63" transform="translate(431.787109 0)"/>
     <use xlink:href="#DejaVuSans-68" transform="translate(486.767578 0)"/>
     <use xlink:href="#DejaVuSans-20" transform="translate(550.146484 0)"/>
     <use xlink:href="#DejaVuSans-46" transform="translate(581.933594 0)"/>
     <use xlink:href="#DejaVuSans-61" transform="translate(630.328125 0)"/>
     <use xlink:href="#DejaVuSans-73" transform="translate(691.607422 0)"/>
     <use xlink:href="#DejaVuSans-74" transform="translate(743.707031 0)"/>
     <use xlink:href="#DejaVuSans-20" transform="translate(782.916016 0)"/>
     <use xlink:href="#DejaVuSans-51" transform="translate(814.703125 0)"/>
     <use xlink:href="#DejaVuSans-75" transform="translate(893.414062 0)"/>
     <use xlink:href="#DejaVuSans-65" transform="translate(956.792969 0)"/>
     <use xlink:href="#DejaVuSans-72" transform="translate(1018.316406 0)"/>
     <use xlink:href="#DejaVuSans-69" transform="translate(1059.429688 0)"/>
     <use xlink:href="#DejaVuSans-65" transform="translate(1087.212891 0)"/>
     <use xlink:href="#DejaVuSans-73" transform="translate(1148.736328 0)"/>
    </g>
   </g>
   <g id="legend_1">
    <g id="patch_87">
     <path d="M 64.6 108.1845 
L 149.426562 108.1845 
Q 151.426562 108.1845 151.426562 106.1845 
L 151.426562 48.472 
Q 151.426562 46.472 149.426562 46.472 
L 64.6 46.472 
Q 62.6 46.472 62.6 48.472 
L 62.6 106.1845 
Q 62.6 108.1845 64.6 108.1845 
z
" style="fill: #ffffff; opacity: 0.8; stroke: #cccccc; stroke-linejoin: miter"/>
    </g>
    <g id="patch_88">
     <path d="M 66.6 58.070438 
L 86.6 58.070438 
L 86.6 51.070438 
L 66.6 51.070438 
z
" style="fill: #1f77b4"/>
    </g>
    <g id="text_31">
     <!-- datafusion -->
     <g transform="translate(94.6 58.070438) scale(0.1 -0.1)">
      <defs>
       <path id="DejaVuSans-66" d="M 2375 4863 
L 2375 4384 
L 1825 4384 
Q 1516 4384 1395 4259 
Q 1275 4134 1275 3809 
L 1275 3500 
L 2222 3500 
L 2222 3053 
L 1275 3053 
L 1275 0 
L 697 0 
L 697 3053 
L 147 3053 
L 147 3500 
L 697 3500 
L 697 3744 
Q 697 4328 969 4595 
Q 1241 4863 1831 4863 
L 2375 4863 
z
" transform="scale(0.015625)"/>
      </defs>
      <use xlink:href="#DejaVuSans-64"/>
      <use xlink:href="#DejaVuSans-61" transform="translate(63.476562 0)"/>
      <use xlink:href="#DejaVuSans-74" transform="translate(124.755859 0)"/>
      <use xlink:href="#DejaVuSans-61" transform="translate(163.964844 0)"/>
      <use xlink:href="#DejaVuSans-66" transform="translate(225.244141 0)"/>
      <use xlink:href="#DejaVuSans-75" transform="translate(260.449219 0)"/>
      <use xlink:href="#DejaVuSans-73" transform="translate(323.828125 0)"/>
      <use xlink:href="#DejaVuSans-69" transform="translate(375.927734 0)"/>
      <use xlink:href="#DejaVuSans-6f" transform="translate(403.710938 0)"/>
      <use xlink:href="#DejaVuSans-6e" transform="translate(464.892578 0)"/>
     </g>
    </g>
    <g id="patch_89">
     <path d="M 66.6 72.748563 
L 86.6 72.748563 
L 86.6 65.748563 
L 66.6 65.748563 
z
" style="fill: #ff7f0e"/>
    </g>
    <g id="text_32">
     <!-- daft -->
     <g transform="translate(94.6 72.748563) scale(0.1 -0.1)">
      <use xlink:href="#DejaVuSans-64"/>
      <use xlink:href="#DejaVuSans-61" transform="translate(63.476562 0)"/>
      <use xlink:href="#DejaVuSans-66" transform="translate(124.755859 0)"/>
      <use xlink:href="#DejaVuSans-74" transform="translate(158.210938 0)"/>
     </g>
    </g>
    <g id="patch_90">
     <path d="M 66.6 87.426688 
L 86.6 87.426688 
L 86.6 80.426688 
L 66.6 80.426688 
z
" style="fill: #2ca02c"/>
    </g>
    <g id="text_33">
     <!-- duckdb -->
     <g transform="translate(94.6 87.426688) scale(0.1 -0.1)">
      <defs>
       <path id="DejaVuSans-62" d="M 3116 1747 
Q 3116 2381 2855 2742 
Q 2594 3103 2138 3103 
Q 1681 3103 1420 2742 
Q 1159 2381 1159 1747 
Q 1159 1113 1420 752 
Q 1681 391 2138 391 
Q 2594 391 2855 752 
Q 3116 1113 3116 1747 
z
M 1159 2969 
Q 1341 3281 1617 3432 
Q 1894 3584 2278 3584 
Q 2916 3584 3314 3078 
Q 3713 2572 3713 1747 
Q 3713 922 3314 415 
Q 2916 -91 2278 -91 
Q 1894 -91 1617 61 
Q 1341 213 1159 525 
L 1159 0 
L 581 0 
L 581 4863 
L 1159 4863 
L 1159 2969 
z
" transform="scale(0.015625)"/>
      </defs>
      <use xlink:href="#DejaVuSans-64"/>
      <use xlink:href="#DejaVuSans-75" transform="translate(63.476562 0)"/>
      <use xlink:href="#DejaVuSans-63" transform="translate(126.855469 0)"/>
      <use xlink:href="#DejaVuSans-6b" transform="translate(181.835938 0)"/>
      <use xlink:href="#DejaVuSans-64" transform="translate(239.746094 0)"/>
      <use xlink:href="#DejaVuSans-62" transform="translate(303.222656 0)"/>
     </g>
    </g>
    <g id="patch_91">
     <path d="M 66.6 102.104813 
L 86.6 102.104813 
L 86.6 95.104813 
L 66.6 95.104813 
z
" style="fill: #d62728"/>
    </g>
    <g id="text_34">
     <!-- polars -->
     <g transform="translate(94.6 102.104813) scale(0.1 -0.1)">
      <defs>
       <path id="DejaVuSans-70" d="M 1159 525 
L 1159 -1331 
L 581 -1331 
L 581 3500 
L 1159 3500 
L 1159 2969 
Q 1341 3281 1617 3432 
Q 1894 3584 2278 3584 
Q 2916 3584 3314 3078 
Q 3713 2572 3713 1747 
Q 3713 922 3314 415 
Q 2916 -91 2278 -91 
Q 1894 -91 1617 61 
Q 1341 213 1159 525 
z
M 3116 1747 
Q 3116 2381 2855 2742 
Q 2594 3103 2138 3103 
Q 1681 3103 1420 2742 
Q 1159 2381 1159 1747 
Q 1159 1113 1420 752 
Q 1681 391 2138 391 
Q 2594 391 2855 752 
Q 3116 1113 3116 1747 
z
" transform="scale(0.015625)"/>
      </defs>
      <use xlink:href="#DejaVuSans-70"/>
      <use xlink:href="#DejaVuSans-6f" transform="translate(63.476562 0)"/>
      <use xlink:href="#DejaVuSans-6c" transform="translate(124.658203 0)"/>
      <use xlink:href="#DejaVuSans-61" transform="translate(152.441406 0)"/>
      <use xlink:href="#DejaVuSans-72" transform="translate(213.720703 0)"/>
      <use xlink:href="#DejaVuSans-73" transform="translate(254.833984 0)"/>
     </g>
    </g>
   </g>
  </g>
 </g>
 <defs>
  <clipPath id="p586408410a">
   <rect x="57.6" y="41.472" width="357.12" height="266.112"/>
  </clipPath>
 </defs>
</svg>
