<?xml version="1.0" encoding="utf-8" standalone="no"?>
<!DOCTYPE svg PUBLIC "-//W3C//DTD SVG 1.1//EN"
  "http://www.w3.org/Graphics/SVG/1.1/DTD/svg11.dtd">
<svg xmlns:xlink="http://www.w3.org/1999/xlink" width="460.8pt" height="345.6pt" viewBox="0 0 460.8 345.6" xmlns="http://www.w3.org/2000/svg" version="1.1">
 <metadata>
  <rdf:RDF xmlns:dc="http://purl.org/dc/elements/1.1/" xmlns:cc="http://creativecommons.org/ns#" xmlns:rdf="http://www.w3.org/1999/02/22-rdf-syntax-ns#">
   <cc:Work>
    <dc:type rdf:resource="http://purl.org/dc/dcmitype/StillImage"/>
    <dc:date>2025-07-27T07:56:23.715981</dc:date>
    <dc:format>image/svg+xml</dc:format>
    <dc:creator>
     <cc:Agent>
      <dc:title>Matplotlib v3.10.3, https://matplotlib.org/</dc:title>
     </cc:Agent>
    </dc:creator>
   </cc:Work>
  </rdf:RDF>
 </metadata>
 <defs>
  <style type="text/css">*{stroke-linejoin: round; stroke-linecap: butt}</style>
 </defs>
 <g id="figure_1">
  <g id="patch_1">
   <path d="M 0 345.6 
L 460.8 345.6 
L 460.8 0 
L 0 0 
z
" style="fill: #ffffff"/>
  </g>
  <g id="axes_1">
   <g id="patch_2">
    <path d="M 57.6 307.584 
L 414.72 307.584 
L 414.72 41.472 
L 57.6 41.472 
z
" style="fill: #ffffff"/>
   </g>
   <g id="patch_3">
    <path d="M 61.658182 307.584 
L 65.716364 307.584 
L 65.716364 54.144 
L 61.658182 54.144 
z
" clip-path="url(#p035412d81a)" style="fill: #1f77b4"/>
   </g>
   <g id="patch_4">
    <path d="M 77.890909 307.584 
L 81.949091 307.584 
L 81.949091 248.87175 
L 77.890909 248.87175 
z
" clip-path="url(#p035412d81a)" style="fill: #1f77b4"/>
   </g>
   <g id="patch_5">
    <path d="M 94.123636 307.584 
L 98.181818 307.584 
L 98.181818 207.942919 
L 94.123636 207.942919 
z
" clip-path="url(#p035412d81a)" style="fill: #1f77b4"/>
   </g>
   <g id="patch_6">
    <path d="M 110.356364 307.584 
L 114.414545 307.584 
L 114.414545 237.290743 
L 110.356364 237.290743 
z
" clip-path="url(#p035412d81a)" style="fill: #1f77b4"/>
   </g>
   <g id="patch_7">
    <path d="M 126.589091 307.584 
L 130.647273 307.584 
L 130.647273 187.052761 
L 126.589091 187.052761 
z
" clip-path="url(#p035412d81a)" style="fill: #1f77b4"/>
   </g>
   <g id="patch_8">
    <path d="M 142.821818 307.584 
L 146.88 307.584 
L 146.88 277.154111 
L 142.821818 277.154111 
z
" clip-path="url(#p035412d81a)" style="fill: #1f77b4"/>
   </g>
   <g id="patch_9">
    <path d="M 159.054545 307.584 
L 163.112727 307.584 
L 163.112727 150.651779 
L 159.054545 150.651779 
z
" clip-path="url(#p035412d81a)" style="fill: #1f77b4"/>
   </g>
   <g id="patch_10">
    <path d="M 175.287273 307.584 
L 179.345455 307.584 
L 179.345455 214.749265 
L 175.287273 214.749265 
z
" clip-path="url(#p035412d81a)" style="fill: #1f77b4"/>
   </g>
   <g id="patch_11">
    <path d="M 191.52 307.584 
L 195.578182 307.584 
L 195.578182 168.58904 
L 191.52 168.58904 
z
" clip-path="url(#p035412d81a)" style="fill: #1f77b4"/>
   </g>
   <g id="patch_12">
    <path d="M 207.752727 307.584 
L 211.810909 307.584 
L 211.810909 193.576508 
L 207.752727 193.576508 
z
" clip-path="url(#p035412d81a)" style="fill: #1f77b4"/>
   </g>
   <g id="patch_13">
    <path d="M 223.985455 307.584 
L 228.043636 307.584 
L 228.043636 202.862786 
L 223.985455 202.862786 
z
" clip-path="url(#p035412d81a)" style="fill: #1f77b4"/>
   </g>
   <g id="patch_14">
    <path d="M 240.218182 307.584 
L 244.276364 307.584 
L 244.276364 198.076687 
L 240.218182 198.076687 
z
" clip-path="url(#p035412d81a)" style="fill: #1f77b4"/>
   </g>
   <g id="patch_15">
    <path d="M 256.450909 307.584 
L 260.509091 307.584 
L 260.509091 200.307962 
L 256.450909 200.307962 
z
" clip-path="url(#p035412d81a)" style="fill: #1f77b4"/>
   </g>
   <g id="patch_16">
    <path d="M 272.683636 307.584 
L 276.741818 307.584 
L 276.741818 195.362118 
L 272.683636 195.362118 
z
" clip-path="url(#p035412d81a)" style="fill: #1f77b4"/>
   </g>
   <g id="patch_17">
    <path d="M 288.916364 307.584 
L 292.974545 307.584 
L 292.974545 163.128542 
L 288.916364 163.128542 
z
" clip-path="url(#p035412d81a)" style="fill: #1f77b4"/>
   </g>
   <g id="patch_18">
    <path d="M 305.149091 307.584 
L 309.207273 307.584 
L 309.207273 190.916171 
L 305.149091 190.916171 
z
" clip-path="url(#p035412d81a)" style="fill: #1f77b4"/>
   </g>
   <g id="patch_19">
    <path d="M 321.381818 307.584 
L 325.44 307.584 
L 325.44 193.398685 
L 321.381818 193.398685 
z
" clip-path="url(#p035412d81a)" style="fill: #1f77b4"/>
   </g>
   <g id="patch_20">
    <path d="M 337.614545 307.584 
L 341.672727 307.584 
L 341.672727 201.28894 
L 337.614545 201.28894 
z
" clip-path="url(#p035412d81a)" style="fill: #1f77b4"/>
   </g>
   <g id="patch_21">
    <path d="M 353.847273 307.584 
L 357.905455 307.584 
L 357.905455 195.539203 
L 353.847273 195.539203 
z
" clip-path="url(#p035412d81a)" style="fill: #1f77b4"/>
   </g>
   <g id="patch_22">
    <path d="M 370.08 307.584 
L 374.138182 307.584 
L 374.138182 206.671963 
L 370.08 206.671963 
z
" clip-path="url(#p035412d81a)" style="fill: #1f77b4"/>
   </g>
   <g id="patch_23">
    <path d="M 386.312727 307.584 
L 390.370909 307.584 
L 390.370909 196.839673 
L 386.312727 196.839673 
z
" clip-path="url(#p035412d81a)" style="fill: #1f77b4"/>
   </g>
   <g id="patch_24">
    <path d="M 402.545455 307.584 
L 406.603636 307.584 
L 406.603636 203.653029 
L 402.545455 203.653029 
z
" clip-path="url(#p035412d81a)" style="fill: #1f77b4"/>
   </g>
   <g id="patch_25">
    <path d="M 65.716364 307.584 
L 69.774545 307.584 
L 69.774545 106.088641 
L 65.716364 106.088641 
z
" clip-path="url(#p035412d81a)" style="fill: #ff7f0e"/>
   </g>
   <g id="patch_26">
    <path d="M 81.949091 307.584 
L 86.007273 307.584 
L 86.007273 274.850527 
L 81.949091 274.850527 
z
" clip-path="url(#p035412d81a)" style="fill: #ff7f0e"/>
   </g>
   <g id="patch_27">
    <path d="M 98.181818 307.584 
L 102.24 307.584 
L 102.24 253.817963 
L 98.181818 253.817963 
z
" clip-path="url(#p035412d81a)" style="fill: #ff7f0e"/>
   </g>
   <g id="patch_28">
    <path d="M 114.414545 307.584 
L 118.472727 307.584 
L 118.472727 264.930432 
L 114.414545 264.930432 
z
" clip-path="url(#p035412d81a)" style="fill: #ff7f0e"/>
   </g>
   <g id="patch_29">
    <path d="M 130.647273 307.584 
L 134.705455 307.584 
L 134.705455 255.67662 
L 130.647273 255.67662 
z
" clip-path="url(#p035412d81a)" style="fill: #ff7f0e"/>
   </g>
   <g id="patch_30">
    <path d="M 146.88 307.584 
L 150.938182 307.584 
L 150.938182 279.57317 
L 146.88 279.57317 
z
" clip-path="url(#p035412d81a)" style="fill: #ff7f0e"/>
   </g>
   <g id="patch_31">
    <path d="M 163.112727 307.584 
L 167.170909 307.584 
L 167.170909 250.502041 
L 163.112727 250.502041 
z
" clip-path="url(#p035412d81a)" style="fill: #ff7f0e"/>
   </g>
   <g id="patch_32">
    <path d="M 179.345455 307.584 
L 183.403636 307.584 
L 183.403636 235.232865 
L 179.345455 235.232865 
z
" clip-path="url(#p035412d81a)" style="fill: #ff7f0e"/>
   </g>
   <g id="patch_33">
    <path d="M 195.578182 307.584 
L 199.636364 307.584 
L 199.636364 187.829723 
L 195.578182 187.829723 
z
" clip-path="url(#p035412d81a)" style="fill: #ff7f0e"/>
   </g>
   <g id="patch_34">
    <path d="M 211.810909 307.584 
L 215.869091 307.584 
L 215.869091 228.501411 
L 211.810909 228.501411 
z
" clip-path="url(#p035412d81a)" style="fill: #ff7f0e"/>
   </g>
   <g id="patch_35">
    <path d="M 228.043636 307.584 
L 232.101818 307.584 
L 232.101818 290.172829 
L 228.043636 290.172829 
z
" clip-path="url(#p035412d81a)" style="fill: #ff7f0e"/>
   </g>
   <g id="patch_36">
    <path d="M 244.276364 307.584 
L 248.334545 307.584 
L 248.334545 262.545315 
L 244.276364 262.545315 
z
" clip-path="url(#p035412d81a)" style="fill: #ff7f0e"/>
   </g>
   <g id="patch_37">
    <path d="M 260.509091 307.584 
L 264.567273 307.584 
L 264.567273 201.287096 
L 260.509091 201.287096 
z
" clip-path="url(#p035412d81a)" style="fill: #ff7f0e"/>
   </g>
   <g id="patch_38">
    <path d="M 276.741818 307.584 
L 280.8 307.584 
L 280.8 261.287641 
L 276.741818 261.287641 
z
" clip-path="url(#p035412d81a)" style="fill: #ff7f0e"/>
   </g>
   <g id="patch_39">
    <path d="M 292.974545 307.584 
L 297.032727 307.584 
L 297.032727 307.584 
L 292.974545 307.584 
z
" clip-path="url(#p035412d81a)" style="fill: #ff7f0e"/>
   </g>
   <g id="patch_40">
    <path d="M 309.207273 307.584 
L 313.265455 307.584 
L 313.265455 274.331815 
L 309.207273 274.331815 
z
" clip-path="url(#p035412d81a)" style="fill: #ff7f0e"/>
   </g>
   <g id="patch_41">
    <path d="M 325.44 307.584 
L 329.498182 307.584 
L 329.498182 242.984772 
L 325.44 242.984772 
z
" clip-path="url(#p035412d81a)" style="fill: #ff7f0e"/>
   </g>
   <g id="patch_42">
    <path d="M 341.672727 307.584 
L 345.730909 307.584 
L 345.730909 239.970264 
L 341.672727 239.970264 
z
" clip-path="url(#p035412d81a)" style="fill: #ff7f0e"/>
   </g>
   <g id="patch_43">
    <path d="M 357.905455 307.584 
L 361.963636 307.584 
L 361.963636 244.199651 
L 357.905455 244.199651 
z
" clip-path="url(#p035412d81a)" style="fill: #ff7f0e"/>
   </g>
   <g id="patch_44">
    <path d="M 374.138182 307.584 
L 378.196364 307.584 
L 378.196364 257.901623 
L 374.138182 257.901623 
z
" clip-path="url(#p035412d81a)" style="fill: #ff7f0e"/>
   </g>
   <g id="patch_45">
    <path d="M 390.370909 307.584 
L 394.429091 307.584 
L 394.429091 175.984194 
L 390.370909 175.984194 
z
" clip-path="url(#p035412d81a)" style="fill: #ff7f0e"/>
   </g>
   <g id="patch_46">
    <path d="M 406.603636 307.584 
L 410.661818 307.584 
L 410.661818 282.970993 
L 406.603636 282.970993 
z
" clip-path="url(#p035412d81a)" style="fill: #ff7f0e"/>
   </g>
   <g id="matplotlib.axis_1">
    <g id="xtick_1">
     <g id="line2d_1">
      <defs>
       <path id="m1f412ed0e9" d="M 0 0 
L 0 3.5 
" style="stroke: #000000; stroke-width: 0.8"/>
      </defs>
      <g>
       <use xlink:href="#m1f412ed0e9" x="65.716364" y="307.584" style="stroke: #000000; stroke-width: 0.8"/>
      </g>
     </g>
     <g id="text_1">
      <!-- q1 -->
      <g transform="translate(63.173541 328.944897) rotate(-45) scale(0.1 -0.1)">
       <defs>
        <path id="DejaVuSans-71" d="M 947 1747 
Q 947 1113 1208 752 
Q 1469 391 1925 391 
Q 2381 391 2643 752 
Q 2906 1113 2906 1747 
Q 2906 2381 2643 2742 
Q 2381 3103 1925 3103 
Q 1469 3103 1208 2742 
Q 947 2381 947 1747 
z
M 2906 525 
Q 2725 213 2448 61 
Q 2172 -91 1784 -91 
Q 1150 -91 751 415 
Q 353 922 353 1747 
Q 353 2572 751 3078 
Q 1150 3584 1784 3584 
Q 2172 3584 2448 3432 
Q 2725 3281 2906 2969 
L 2906 3500 
L 3481 3500 
L 3481 -1331 
L 2906 -1331 
L 2906 525 
z
" transform="scale(0.015625)"/>
        <path id="DejaVuSans-31" d="M 794 531 
L 1825 531 
L 1825 4091 
L 703 3866 
L 703 4441 
L 1819 4666 
L 2450 4666 
L 2450 531 
L 3481 531 
L 3481 0 
L 794 0 
L 794 531 
z
" transform="scale(0.015625)"/>
       </defs>
       <use xlink:href="#DejaVuSans-71"/>
       <use xlink:href="#DejaVuSans-31" transform="translate(63.476562 0)"/>
      </g>
     </g>
    </g>
    <g id="xtick_2">
     <g id="line2d_2">
      <g>
       <use xlink:href="#m1f412ed0e9" x="81.949091" y="307.584" style="stroke: #000000; stroke-width: 0.8"/>
      </g>
     </g>
     <g id="text_2">
      <!-- q2 -->
      <g transform="translate(79.406269 328.944897) rotate(-45) scale(0.1 -0.1)">
       <defs>
        <path id="DejaVuSans-32" d="M 1228 531 
L 3431 531 
L 3431 0 
L 469 0 
L 469 531 
Q 828 903 1448 1529 
Q 2069 2156 2228 2338 
Q 2531 2678 2651 2914 
Q 2772 3150 2772 3378 
Q 2772 3750 2511 3984 
Q 2250 4219 1831 4219 
Q 1534 4219 1204 4116 
Q 875 4013 500 3803 
L 500 4441 
Q 881 4594 1212 4672 
Q 1544 4750 1819 4750 
Q 2544 4750 2975 4387 
Q 3406 4025 3406 3419 
Q 3406 3131 3298 2873 
Q 3191 2616 2906 2266 
Q 2828 2175 2409 1742 
Q 1991 1309 1228 531 
z
" transform="scale(0.015625)"/>
       </defs>
       <use xlink:href="#DejaVuSans-71"/>
       <use xlink:href="#DejaVuSans-32" transform="translate(63.476562 0)"/>
      </g>
     </g>
    </g>
    <g id="xtick_3">
     <g id="line2d_3">
      <g>
       <use xlink:href="#m1f412ed0e9" x="98.181818" y="307.584" style="stroke: #000000; stroke-width: 0.8"/>
      </g>
     </g>
     <g id="text_3">
      <!-- q3 -->
      <g transform="translate(95.638996 328.944897) rotate(-45) scale(0.1 -0.1)">
       <defs>
        <path id="DejaVuSans-33" d="M 2597 2516 
Q 3050 2419 3304 2112 
Q 3559 1806 3559 1356 
Q 3559 666 3084 287 
Q 2609 -91 1734 -91 
Q 1441 -91 1130 -33 
Q 819 25 488 141 
L 488 750 
Q 750 597 1062 519 
Q 1375 441 1716 441 
Q 2309 441 2620 675 
Q 2931 909 2931 1356 
Q 2931 1769 2642 2001 
Q 2353 2234 1838 2234 
L 1294 2234 
L 1294 2753 
L 1863 2753 
Q 2328 2753 2575 2939 
Q 2822 3125 2822 3475 
Q 2822 3834 2567 4026 
Q 2313 4219 1838 4219 
Q 1578 4219 1281 4162 
Q 984 4106 628 3988 
L 628 4550 
Q 988 4650 1302 4700 
Q 1616 4750 1894 4750 
Q 2613 4750 3031 4423 
Q 3450 4097 3450 3541 
Q 3450 3153 3228 2886 
Q 3006 2619 2597 2516 
z
" transform="scale(0.015625)"/>
       </defs>
       <use xlink:href="#DejaVuSans-71"/>
       <use xlink:href="#DejaVuSans-33" transform="translate(63.476562 0)"/>
      </g>
     </g>
    </g>
    <g id="xtick_4">
     <g id="line2d_4">
      <g>
       <use xlink:href="#m1f412ed0e9" x="114.414545" y="307.584" style="stroke: #000000; stroke-width: 0.8"/>
      </g>
     </g>
     <g id="text_4">
      <!-- q4 -->
      <g transform="translate(111.871723 328.944897) rotate(-45) scale(0.1 -0.1)">
       <defs>
        <path id="DejaVuSans-34" d="M 2419 4116 
L 825 1625 
L 2419 1625 
L 2419 4116 
z
M 2253 4666 
L 3047 4666 
L 3047 1625 
L 3713 1625 
L 3713 1100 
L 3047 1100 
L 3047 0 
L 2419 0 
L 2419 1100 
L 313 1100 
L 313 1709 
L 2253 4666 
z
" transform="scale(0.015625)"/>
       </defs>
       <use xlink:href="#DejaVuSans-71"/>
       <use xlink:href="#DejaVuSans-34" transform="translate(63.476562 0)"/>
      </g>
     </g>
    </g>
    <g id="xtick_5">
     <g id="line2d_5">
      <g>
       <use xlink:href="#m1f412ed0e9" x="130.647273" y="307.584" style="stroke: #000000; stroke-width: 0.8"/>
      </g>
     </g>
     <g id="text_5">
      <!-- q5 -->
      <g transform="translate(128.10445 328.944897) rotate(-45) scale(0.1 -0.1)">
       <defs>
        <path id="DejaVuSans-35" d="M 691 4666 
L 3169 4666 
L 3169 4134 
L 1269 4134 
L 1269 2991 
Q 1406 3038 1543 3061 
Q 1681 3084 1819 3084 
Q 2600 3084 3056 2656 
Q 3513 2228 3513 1497 
Q 3513 744 3044 326 
Q 2575 -91 1722 -91 
Q 1428 -91 1123 -41 
Q 819 9 494 109 
L 494 744 
Q 775 591 1075 516 
Q 1375 441 1709 441 
Q 2250 441 2565 725 
Q 2881 1009 2881 1497 
Q 2881 1984 2565 2268 
Q 2250 2553 1709 2553 
Q 1456 2553 1204 2497 
Q 953 2441 691 2322 
L 691 4666 
z
" transform="scale(0.015625)"/>
       </defs>
       <use xlink:href="#DejaVuSans-71"/>
       <use xlink:href="#DejaVuSans-35" transform="translate(63.476562 0)"/>
      </g>
     </g>
    </g>
    <g id="xtick_6">
     <g id="line2d_6">
      <g>
       <use xlink:href="#m1f412ed0e9" x="146.88" y="307.584" style="stroke: #000000; stroke-width: 0.8"/>
      </g>
     </g>
     <g id="text_6">
      <!-- q6 -->
      <g transform="translate(144.337178 328.944897) rotate(-45) scale(0.1 -0.1)">
       <defs>
        <path id="DejaVuSans-36" d="M 2113 2584 
Q 1688 2584 1439 2293 
Q 1191 2003 1191 1497 
Q 1191 994 1439 701 
Q 1688 409 2113 409 
Q 2538 409 2786 701 
Q 3034 994 3034 1497 
Q 3034 2003 2786 2293 
Q 2538 2584 2113 2584 
z
M 3366 4563 
L 3366 3988 
Q 3128 4100 2886 4159 
Q 2644 4219 2406 4219 
Q 1781 4219 1451 3797 
Q 1122 3375 1075 2522 
Q 1259 2794 1537 2939 
Q 1816 3084 2150 3084 
Q 2853 3084 3261 2657 
Q 3669 2231 3669 1497 
Q 3669 778 3244 343 
Q 2819 -91 2113 -91 
Q 1303 -91 875 529 
Q 447 1150 447 2328 
Q 447 3434 972 4092 
Q 1497 4750 2381 4750 
Q 2619 4750 2861 4703 
Q 3103 4656 3366 4563 
z
" transform="scale(0.015625)"/>
       </defs>
       <use xlink:href="#DejaVuSans-71"/>
       <use xlink:href="#DejaVuSans-36" transform="translate(63.476562 0)"/>
      </g>
     </g>
    </g>
    <g id="xtick_7">
     <g id="line2d_7">
      <g>
       <use xlink:href="#m1f412ed0e9" x="163.112727" y="307.584" style="stroke: #000000; stroke-width: 0.8"/>
      </g>
     </g>
     <g id="text_7">
      <!-- q7 -->
      <g transform="translate(160.569905 328.944897) rotate(-45) scale(0.1 -0.1)">
       <defs>
        <path id="DejaVuSans-37" d="M 525 4666 
L 3525 4666 
L 3525 4397 
L 1831 0 
L 1172 0 
L 2766 4134 
L 525 4134 
L 525 4666 
z
" transform="scale(0.015625)"/>
       </defs>
       <use xlink:href="#DejaVuSans-71"/>
       <use xlink:href="#DejaVuSans-37" transform="translate(63.476562 0)"/>
      </g>
     </g>
    </g>
    <g id="xtick_8">
     <g id="line2d_8">
      <g>
       <use xlink:href="#m1f412ed0e9" x="179.345455" y="307.584" style="stroke: #000000; stroke-width: 0.8"/>
      </g>
     </g>
     <g id="text_8">
      <!-- q8 -->
      <g transform="translate(176.802632 328.944897) rotate(-45) scale(0.1 -0.1)">
       <defs>
        <path id="DejaVuSans-38" d="M 2034 2216 
Q 1584 2216 1326 1975 
Q 1069 1734 1069 1313 
Q 1069 891 1326 650 
Q 1584 409 2034 409 
Q 2484 409 2743 651 
Q 3003 894 3003 1313 
Q 3003 1734 2745 1975 
Q 2488 2216 2034 2216 
z
M 1403 2484 
Q 997 2584 770 2862 
Q 544 3141 544 3541 
Q 544 4100 942 4425 
Q 1341 4750 2034 4750 
Q 2731 4750 3128 4425 
Q 3525 4100 3525 3541 
Q 3525 3141 3298 2862 
Q 3072 2584 2669 2484 
Q 3125 2378 3379 2068 
Q 3634 1759 3634 1313 
Q 3634 634 3220 271 
Q 2806 -91 2034 -91 
Q 1263 -91 848 271 
Q 434 634 434 1313 
Q 434 1759 690 2068 
Q 947 2378 1403 2484 
z
M 1172 3481 
Q 1172 3119 1398 2916 
Q 1625 2713 2034 2713 
Q 2441 2713 2670 2916 
Q 2900 3119 2900 3481 
Q 2900 3844 2670 4047 
Q 2441 4250 2034 4250 
Q 1625 4250 1398 4047 
Q 1172 3844 1172 3481 
z
" transform="scale(0.015625)"/>
       </defs>
       <use xlink:href="#DejaVuSans-71"/>
       <use xlink:href="#DejaVuSans-38" transform="translate(63.476562 0)"/>
      </g>
     </g>
    </g>
    <g id="xtick_9">
     <g id="line2d_9">
      <g>
       <use xlink:href="#m1f412ed0e9" x="195.578182" y="307.584" style="stroke: #000000; stroke-width: 0.8"/>
      </g>
     </g>
     <g id="text_9">
      <!-- q9 -->
      <g transform="translate(193.03536 328.944897) rotate(-45) scale(0.1 -0.1)">
       <defs>
        <path id="DejaVuSans-39" d="M 703 97 
L 703 672 
Q 941 559 1184 500 
Q 1428 441 1663 441 
Q 2288 441 2617 861 
Q 2947 1281 2994 2138 
Q 2813 1869 2534 1725 
Q 2256 1581 1919 1581 
Q 1219 1581 811 2004 
Q 403 2428 403 3163 
Q 403 3881 828 4315 
Q 1253 4750 1959 4750 
Q 2769 4750 3195 4129 
Q 3622 3509 3622 2328 
Q 3622 1225 3098 567 
Q 2575 -91 1691 -91 
Q 1453 -91 1209 -44 
Q 966 3 703 97 
z
M 1959 2075 
Q 2384 2075 2632 2365 
Q 2881 2656 2881 3163 
Q 2881 3666 2632 3958 
Q 2384 4250 1959 4250 
Q 1534 4250 1286 3958 
Q 1038 3666 1038 3163 
Q 1038 2656 1286 2365 
Q 1534 2075 1959 2075 
z
" transform="scale(0.015625)"/>
       </defs>
       <use xlink:href="#DejaVuSans-71"/>
       <use xlink:href="#DejaVuSans-39" transform="translate(63.476562 0)"/>
      </g>
     </g>
    </g>
    <g id="xtick_10">
     <g id="line2d_10">
      <g>
       <use xlink:href="#m1f412ed0e9" x="211.810909" y="307.584" style="stroke: #000000; stroke-width: 0.8"/>
      </g>
     </g>
     <g id="text_10">
      <!-- q10 -->
      <g transform="translate(207.018603 333.443864) rotate(-45) scale(0.1 -0.1)">
       <defs>
        <path id="DejaVuSans-30" d="M 2034 4250 
Q 1547 4250 1301 3770 
Q 1056 3291 1056 2328 
Q 1056 1369 1301 889 
Q 1547 409 2034 409 
Q 2525 409 2770 889 
Q 3016 1369 3016 2328 
Q 3016 3291 2770 3770 
Q 2525 4250 2034 4250 
z
M 2034 4750 
Q 2819 4750 3233 4129 
Q 3647 3509 3647 2328 
Q 3647 1150 3233 529 
Q 2819 -91 2034 -91 
Q 1250 -91 836 529 
Q 422 1150 422 2328 
Q 422 3509 836 4129 
Q 1250 4750 2034 4750 
z
" transform="scale(0.015625)"/>
       </defs>
       <use xlink:href="#DejaVuSans-71"/>
       <use xlink:href="#DejaVuSans-31" transform="translate(63.476562 0)"/>
       <use xlink:href="#DejaVuSans-30" transform="translate(127.099609 0)"/>
      </g>
     </g>
    </g>
    <g id="xtick_11">
     <g id="line2d_11">
      <g>
       <use xlink:href="#m1f412ed0e9" x="228.043636" y="307.584" style="stroke: #000000; stroke-width: 0.8"/>
      </g>
     </g>
     <g id="text_11">
      <!-- q11 -->
      <g transform="translate(223.251331 333.443864) rotate(-45) scale(0.1 -0.1)">
       <use xlink:href="#DejaVuSans-71"/>
       <use xlink:href="#DejaVuSans-31" transform="translate(63.476562 0)"/>
       <use xlink:href="#DejaVuSans-31" transform="translate(127.099609 0)"/>
      </g>
     </g>
    </g>
    <g id="xtick_12">
     <g id="line2d_12">
      <g>
       <use xlink:href="#m1f412ed0e9" x="244.276364" y="307.584" style="stroke: #000000; stroke-width: 0.8"/>
      </g>
     </g>
     <g id="text_12">
      <!-- q12 -->
      <g transform="translate(239.484058 333.443864) rotate(-45) scale(0.1 -0.1)">
       <use xlink:href="#DejaVuSans-71"/>
       <use xlink:href="#DejaVuSans-31" transform="translate(63.476562 0)"/>
       <use xlink:href="#DejaVuSans-32" transform="translate(127.099609 0)"/>
      </g>
     </g>
    </g>
    <g id="xtick_13">
     <g id="line2d_13">
      <g>
       <use xlink:href="#m1f412ed0e9" x="260.509091" y="307.584" style="stroke: #000000; stroke-width: 0.8"/>
      </g>
     </g>
     <g id="text_13">
      <!-- q13 -->
      <g transform="translate(255.716785 333.443864) rotate(-45) scale(0.1 -0.1)">
       <use xlink:href="#DejaVuSans-71"/>
       <use xlink:href="#DejaVuSans-31" transform="translate(63.476562 0)"/>
       <use xlink:href="#DejaVuSans-33" transform="translate(127.099609 0)"/>
      </g>
     </g>
    </g>
    <g id="xtick_14">
     <g id="line2d_14">
      <g>
       <use xlink:href="#m1f412ed0e9" x="276.741818" y="307.584" style="stroke: #000000; stroke-width: 0.8"/>
      </g>
     </g>
     <g id="text_14">
      <!-- q14 -->
      <g transform="translate(271.949512 333.443864) rotate(-45) scale(0.1 -0.1)">
       <use xlink:href="#DejaVuSans-71"/>
       <use xlink:href="#DejaVuSans-31" transform="translate(63.476562 0)"/>
       <use xlink:href="#DejaVuSans-34" transform="translate(127.099609 0)"/>
      </g>
     </g>
    </g>
    <g id="xtick_15">
     <g id="line2d_15">
      <g>
       <use xlink:href="#m1f412ed0e9" x="292.974545" y="307.584" style="stroke: #000000; stroke-width: 0.8"/>
      </g>
     </g>
     <g id="text_15">
      <!-- q15 -->
      <g transform="translate(288.18224 333.443864) rotate(-45) scale(0.1 -0.1)">
       <use xlink:href="#DejaVuSans-71"/>
       <use xlink:href="#DejaVuSans-31" transform="translate(63.476562 0)"/>
       <use xlink:href="#DejaVuSans-35" transform="translate(127.099609 0)"/>
      </g>
     </g>
    </g>
    <g id="xtick_16">
     <g id="line2d_16">
      <g>
       <use xlink:href="#m1f412ed0e9" x="309.207273" y="307.584" style="stroke: #000000; stroke-width: 0.8"/>
      </g>
     </g>
     <g id="text_16">
      <!-- q16 -->
      <g transform="translate(304.414967 333.443864) rotate(-45) scale(0.1 -0.1)">
       <use xlink:href="#DejaVuSans-71"/>
       <use xlink:href="#DejaVuSans-31" transform="translate(63.476562 0)"/>
       <use xlink:href="#DejaVuSans-36" transform="translate(127.099609 0)"/>
      </g>
     </g>
    </g>
    <g id="xtick_17">
     <g id="line2d_17">
      <g>
       <use xlink:href="#m1f412ed0e9" x="325.44" y="307.584" style="stroke: #000000; stroke-width: 0.8"/>
      </g>
     </g>
     <g id="text_17">
      <!-- q17 -->
      <g transform="translate(320.647694 333.443864) rotate(-45) scale(0.1 -0.1)">
       <use xlink:href="#DejaVuSans-71"/>
       <use xlink:href="#DejaVuSans-31" transform="translate(63.476562 0)"/>
       <use xlink:href="#DejaVuSans-37" transform="translate(127.099609 0)"/>
      </g>
     </g>
    </g>
    <g id="xtick_18">
     <g id="line2d_18">
      <g>
       <use xlink:href="#m1f412ed0e9" x="341.672727" y="307.584" style="stroke: #000000; stroke-width: 0.8"/>
      </g>
     </g>
     <g id="text_18">
      <!-- q18 -->
      <g transform="translate(336.880422 333.443864) rotate(-45) scale(0.1 -0.1)">
       <use xlink:href="#DejaVuSans-71"/>
       <use xlink:href="#DejaVuSans-31" transform="translate(63.476562 0)"/>
       <use xlink:href="#DejaVuSans-38" transform="translate(127.099609 0)"/>
      </g>
     </g>
    </g>
    <g id="xtick_19">
     <g id="line2d_19">
      <g>
       <use xlink:href="#m1f412ed0e9" x="357.905455" y="307.584" style="stroke: #000000; stroke-width: 0.8"/>
      </g>
     </g>
     <g id="text_19">
      <!-- q19 -->
      <g transform="translate(353.113149 333.443864) rotate(-45) scale(0.1 -0.1)">
       <use xlink:href="#DejaVuSans-71"/>
       <use xlink:href="#DejaVuSans-31" transform="translate(63.476562 0)"/>
       <use xlink:href="#DejaVuSans-39" transform="translate(127.099609 0)"/>
      </g>
     </g>
    </g>
    <g id="xtick_20">
     <g id="line2d_20">
      <g>
       <use xlink:href="#m1f412ed0e9" x="374.138182" y="307.584" style="stroke: #000000; stroke-width: 0.8"/>
      </g>
     </g>
     <g id="text_20">
      <!-- q20 -->
      <g transform="translate(369.345876 333.443864) rotate(-45) scale(0.1 -0.1)">
       <use xlink:href="#DejaVuSans-71"/>
       <use xlink:href="#DejaVuSans-32" transform="translate(63.476562 0)"/>
       <use xlink:href="#DejaVuSans-30" transform="translate(127.099609 0)"/>
      </g>
     </g>
    </g>
    <g id="xtick_21">
     <g id="line2d_21">
      <g>
       <use xlink:href="#m1f412ed0e9" x="390.370909" y="307.584" style="stroke: #000000; stroke-width: 0.8"/>
      </g>
     </g>
     <g id="text_21">
      <!-- q21 -->
      <g transform="translate(385.578603 333.443864) rotate(-45) scale(0.1 -0.1)">
       <use xlink:href="#DejaVuSans-71"/>
       <use xlink:href="#DejaVuSans-32" transform="translate(63.476562 0)"/>
       <use xlink:href="#DejaVuSans-31" transform="translate(127.099609 0)"/>
      </g>
     </g>
    </g>
    <g id="xtick_22">
     <g id="line2d_22">
      <g>
       <use xlink:href="#m1f412ed0e9" x="406.603636" y="307.584" style="stroke: #000000; stroke-width: 0.8"/>
      </g>
     </g>
     <g id="text_22">
      <!-- q22 -->
      <g transform="translate(401.811331 333.443864) rotate(-45) scale(0.1 -0.1)">
       <use xlink:href="#DejaVuSans-71"/>
       <use xlink:href="#DejaVuSans-32" transform="translate(63.476562 0)"/>
       <use xlink:href="#DejaVuSans-32" transform="translate(127.099609 0)"/>
      </g>
     </g>
    </g>
    <g id="text_23">
     <!-- Queries -->
     <g transform="translate(216.852969 346.512862) scale(0.1 -0.1)">
      <defs>
       <path id="DejaVuSans-51" d="M 2522 4238 
Q 1834 4238 1429 3725 
Q 1025 3213 1025 2328 
Q 1025 1447 1429 934 
Q 1834 422 2522 422 
Q 3209 422 3611 934 
Q 4013 1447 4013 2328 
Q 4013 3213 3611 3725 
Q 3209 4238 2522 4238 
z
M 3406 84 
L 4238 -825 
L 3475 -825 
L 2784 -78 
Q 2681 -84 2626 -87 
Q 2572 -91 2522 -91 
Q 1538 -91 948 567 
Q 359 1225 359 2328 
Q 359 3434 948 4092 
Q 1538 4750 2522 4750 
Q 3503 4750 4090 4092 
Q 4678 3434 4678 2328 
Q 4678 1516 4351 937 
Q 4025 359 3406 84 
z
" transform="scale(0.015625)"/>
       <path id="DejaVuSans-75" d="M 544 1381 
L 544 3500 
L 1119 3500 
L 1119 1403 
Q 1119 906 1312 657 
Q 1506 409 1894 409 
Q 2359 409 2629 706 
Q 2900 1003 2900 1516 
L 2900 3500 
L 3475 3500 
L 3475 0 
L 2900 0 
L 2900 538 
Q 2691 219 2414 64 
Q 2138 -91 1772 -91 
Q 1169 -91 856 284 
Q 544 659 544 1381 
z
M 1991 3584 
L 1991 3584 
z
" transform="scale(0.015625)"/>
       <path id="DejaVuSans-65" d="M 3597 1894 
L 3597 1613 
L 953 1613 
Q 991 1019 1311 708 
Q 1631 397 2203 397 
Q 2534 397 2845 478 
Q 3156 559 3463 722 
L 3463 178 
Q 3153 47 2828 -22 
Q 2503 -91 2169 -91 
Q 1331 -91 842 396 
Q 353 884 353 1716 
Q 353 2575 817 3079 
Q 1281 3584 2069 3584 
Q 2775 3584 3186 3129 
Q 3597 2675 3597 1894 
z
M 3022 2063 
Q 3016 2534 2758 2815 
Q 2500 3097 2075 3097 
Q 1594 3097 1305 2825 
Q 1016 2553 972 2059 
L 3022 2063 
z
" transform="scale(0.015625)"/>
       <path id="DejaVuSans-72" d="M 2631 2963 
Q 2534 3019 2420 3045 
Q 2306 3072 2169 3072 
Q 1681 3072 1420 2755 
Q 1159 2438 1159 1844 
L 1159 0 
L 581 0 
L 581 3500 
L 1159 3500 
L 1159 2956 
Q 1341 3275 1631 3429 
Q 1922 3584 2338 3584 
Q 2397 3584 2469 3576 
Q 2541 3569 2628 3553 
L 2631 2963 
z
" transform="scale(0.015625)"/>
       <path id="DejaVuSans-69" d="M 603 3500 
L 1178 3500 
L 1178 0 
L 603 0 
L 603 3500 
z
M 603 4863 
L 1178 4863 
L 1178 4134 
L 603 4134 
L 603 4863 
z
" transform="scale(0.015625)"/>
       <path id="DejaVuSans-73" d="M 2834 3397 
L 2834 2853 
Q 2591 2978 2328 3040 
Q 2066 3103 1784 3103 
Q 1356 3103 1142 2972 
Q 928 2841 928 2578 
Q 928 2378 1081 2264 
Q 1234 2150 1697 2047 
L 1894 2003 
Q 2506 1872 2764 1633 
Q 3022 1394 3022 966 
Q 3022 478 2636 193 
Q 2250 -91 1575 -91 
Q 1294 -91 989 -36 
Q 684 19 347 128 
L 347 722 
Q 666 556 975 473 
Q 1284 391 1588 391 
Q 1994 391 2212 530 
Q 2431 669 2431 922 
Q 2431 1156 2273 1281 
Q 2116 1406 1581 1522 
L 1381 1569 
Q 847 1681 609 1914 
Q 372 2147 372 2553 
Q 372 3047 722 3315 
Q 1072 3584 1716 3584 
Q 2034 3584 2315 3537 
Q 2597 3491 2834 3397 
z
" transform="scale(0.015625)"/>
      </defs>
      <use xlink:href="#DejaVuSans-51"/>
      <use xlink:href="#DejaVuSans-75" transform="translate(78.710938 0)"/>
      <use xlink:href="#DejaVuSans-65" transform="translate(142.089844 0)"/>
      <use xlink:href="#DejaVuSans-72" transform="translate(203.613281 0)"/>
      <use xlink:href="#DejaVuSans-69" transform="translate(244.726562 0)"/>
      <use xlink:href="#DejaVuSans-65" transform="translate(272.509766 0)"/>
      <use xlink:href="#DejaVuSans-73" transform="translate(334.033203 0)"/>
     </g>
    </g>
   </g>
   <g id="matplotlib.axis_2">
    <g id="ytick_1">
     <g id="line2d_23">
      <defs>
       <path id="me5e5dd05a0" d="M 0 0 
L -3.5 0 
" style="stroke: #000000; stroke-width: 0.8"/>
      </defs>
      <g>
       <use xlink:href="#me5e5dd05a0" x="57.6" y="307.584" style="stroke: #000000; stroke-width: 0.8"/>
      </g>
     </g>
     <g id="text_24">
      <!-- 0.00 -->
      <g transform="translate(28.334375 311.383219) scale(0.1 -0.1)">
       <defs>
        <path id="DejaVuSans-2e" d="M 684 794 
L 1344 794 
L 1344 0 
L 684 0 
L 684 794 
z
" transform="scale(0.015625)"/>
       </defs>
       <use xlink:href="#DejaVuSans-30"/>
       <use xlink:href="#DejaVuSans-2e" transform="translate(63.623047 0)"/>
       <use xlink:href="#DejaVuSans-30" transform="translate(95.410156 0)"/>
       <use xlink:href="#DejaVuSans-30" transform="translate(159.033203 0)"/>
      </g>
     </g>
    </g>
    <g id="ytick_2">
     <g id="line2d_24">
      <g>
       <use xlink:href="#me5e5dd05a0" x="57.6" y="276.636107" style="stroke: #000000; stroke-width: 0.8"/>
      </g>
     </g>
     <g id="text_25">
      <!-- 0.02 -->
      <g transform="translate(28.334375 280.435326) scale(0.1 -0.1)">
       <use xlink:href="#DejaVuSans-30"/>
       <use xlink:href="#DejaVuSans-2e" transform="translate(63.623047 0)"/>
       <use xlink:href="#DejaVuSans-30" transform="translate(95.410156 0)"/>
       <use xlink:href="#DejaVuSans-32" transform="translate(159.033203 0)"/>
      </g>
     </g>
    </g>
    <g id="ytick_3">
     <g id="line2d_25">
      <g>
       <use xlink:href="#me5e5dd05a0" x="57.6" y="245.688215" style="stroke: #000000; stroke-width: 0.8"/>
      </g>
     </g>
     <g id="text_26">
      <!-- 0.04 -->
      <g transform="translate(28.334375 249.487433) scale(0.1 -0.1)">
       <use xlink:href="#DejaVuSans-30"/>
       <use xlink:href="#DejaVuSans-2e" transform="translate(63.623047 0)"/>
       <use xlink:href="#DejaVuSans-30" transform="translate(95.410156 0)"/>
       <use xlink:href="#DejaVuSans-34" transform="translate(159.033203 0)"/>
      </g>
     </g>
    </g>
    <g id="ytick_4">
     <g id="line2d_26">
      <g>
       <use xlink:href="#me5e5dd05a0" x="57.6" y="214.740322" style="stroke: #000000; stroke-width: 0.8"/>
      </g>
     </g>
     <g id="text_27">
      <!-- 0.06 -->
      <g transform="translate(28.334375 218.539541) scale(0.1 -0.1)">
       <use xlink:href="#DejaVuSans-30"/>
       <use xlink:href="#DejaVuSans-2e" transform="translate(63.623047 0)"/>
       <use xlink:href="#DejaVuSans-30" transform="translate(95.410156 0)"/>
       <use xlink:href="#DejaVuSans-36" transform="translate(159.033203 0)"/>
      </g>
     </g>
    </g>
    <g id="ytick_5">
     <g id="line2d_27">
      <g>
       <use xlink:href="#me5e5dd05a0" x="57.6" y="183.792429" style="stroke: #000000; stroke-width: 0.8"/>
      </g>
     </g>
     <g id="text_28">
      <!-- 0.08 -->
      <g transform="translate(28.334375 187.591648) scale(0.1 -0.1)">
       <use xlink:href="#DejaVuSans-30"/>
       <use xlink:href="#DejaVuSans-2e" transform="translate(63.623047 0)"/>
       <use xlink:href="#DejaVuSans-30" transform="translate(95.410156 0)"/>
       <use xlink:href="#DejaVuSans-38" transform="translate(159.033203 0)"/>
      </g>
     </g>
    </g>
    <g id="ytick_6">
     <g id="line2d_28">
      <g>
       <use xlink:href="#me5e5dd05a0" x="57.6" y="152.844537" style="stroke: #000000; stroke-width: 0.8"/>
      </g>
     </g>
     <g id="text_29">
      <!-- 0.10 -->
      <g transform="translate(28.334375 156.643756) scale(0.1 -0.1)">
       <use xlink:href="#DejaVuSans-30"/>
       <use xlink:href="#DejaVuSans-2e" transform="translate(63.623047 0)"/>
       <use xlink:href="#DejaVuSans-31" transform="translate(95.410156 0)"/>
       <use xlink:href="#DejaVuSans-30" transform="translate(159.033203 0)"/>
      </g>
     </g>
    </g>
    <g id="ytick_7">
     <g id="line2d_29">
      <g>
       <use xlink:href="#me5e5dd05a0" x="57.6" y="121.896644" style="stroke: #000000; stroke-width: 0.8"/>
      </g>
     </g>
     <g id="text_30">
      <!-- 0.12 -->
      <g transform="translate(28.334375 125.695863) scale(0.1 -0.1)">
       <use xlink:href="#DejaVuSans-30"/>
       <use xlink:href="#DejaVuSans-2e" transform="translate(63.623047 0)"/>
       <use xlink:href="#DejaVuSans-31" transform="translate(95.410156 0)"/>
       <use xlink:href="#DejaVuSans-32" transform="translate(159.033203 0)"/>
      </g>
     </g>
    </g>
    <g id="ytick_8">
     <g id="line2d_30">
      <g>
       <use xlink:href="#me5e5dd05a0" x="57.6" y="90.948752" style="stroke: #000000; stroke-width: 0.8"/>
      </g>
     </g>
     <g id="text_31">
      <!-- 0.14 -->
      <g transform="translate(28.334375 94.74797) scale(0.1 -0.1)">
       <use xlink:href="#DejaVuSans-30"/>
       <use xlink:href="#DejaVuSans-2e" transform="translate(63.623047 0)"/>
       <use xlink:href="#DejaVuSans-31" transform="translate(95.410156 0)"/>
       <use xlink:href="#DejaVuSans-34" transform="translate(159.033203 0)"/>
      </g>
     </g>
    </g>
    <g id="ytick_9">
     <g id="line2d_31">
      <g>
       <use xlink:href="#me5e5dd05a0" x="57.6" y="60.000859" style="stroke: #000000; stroke-width: 0.8"/>
      </g>
     </g>
     <g id="text_32">
      <!-- 0.16 -->
      <g transform="translate(28.334375 63.800078) scale(0.1 -0.1)">
       <use xlink:href="#DejaVuSans-30"/>
       <use xlink:href="#DejaVuSans-2e" transform="translate(63.623047 0)"/>
       <use xlink:href="#DejaVuSans-31" transform="translate(95.410156 0)"/>
       <use xlink:href="#DejaVuSans-36" transform="translate(159.033203 0)"/>
      </g>
     </g>
    </g>
    <g id="text_33">
     <!-- Seconds -->
     <g transform="translate(22.254687 195.535031) rotate(-90) scale(0.1 -0.1)">
      <defs>
       <path id="DejaVuSans-53" d="M 3425 4513 
L 3425 3897 
Q 3066 4069 2747 4153 
Q 2428 4238 2131 4238 
Q 1616 4238 1336 4038 
Q 1056 3838 1056 3469 
Q 1056 3159 1242 3001 
Q 1428 2844 1947 2747 
L 2328 2669 
Q 3034 2534 3370 2195 
Q 3706 1856 3706 1288 
Q 3706 609 3251 259 
Q 2797 -91 1919 -91 
Q 1588 -91 1214 -16 
Q 841 59 441 206 
L 441 856 
Q 825 641 1194 531 
Q 1563 422 1919 422 
Q 2459 422 2753 634 
Q 3047 847 3047 1241 
Q 3047 1584 2836 1778 
Q 2625 1972 2144 2069 
L 1759 2144 
Q 1053 2284 737 2584 
Q 422 2884 422 3419 
Q 422 4038 858 4394 
Q 1294 4750 2059 4750 
Q 2388 4750 2728 4690 
Q 3069 4631 3425 4513 
z
" transform="scale(0.015625)"/>
       <path id="DejaVuSans-63" d="M 3122 3366 
L 3122 2828 
Q 2878 2963 2633 3030 
Q 2388 3097 2138 3097 
Q 1578 3097 1268 2742 
Q 959 2388 959 1747 
Q 959 1106 1268 751 
Q 1578 397 2138 397 
Q 2388 397 2633 464 
Q 2878 531 3122 666 
L 3122 134 
Q 2881 22 2623 -34 
Q 2366 -91 2075 -91 
Q 1284 -91 818 406 
Q 353 903 353 1747 
Q 353 2603 823 3093 
Q 1294 3584 2113 3584 
Q 2378 3584 2631 3529 
Q 2884 3475 3122 3366 
z
" transform="scale(0.015625)"/>
       <path id="DejaVuSans-6f" d="M 1959 3097 
Q 1497 3097 1228 2736 
Q 959 2375 959 1747 
Q 959 1119 1226 758 
Q 1494 397 1959 397 
Q 2419 397 2687 759 
Q 2956 1122 2956 1747 
Q 2956 2369 2687 2733 
Q 2419 3097 1959 3097 
z
M 1959 3584 
Q 2709 3584 3137 3096 
Q 3566 2609 3566 1747 
Q 3566 888 3137 398 
Q 2709 -91 1959 -91 
Q 1206 -91 779 398 
Q 353 888 353 1747 
Q 353 2609 779 3096 
Q 1206 3584 1959 3584 
z
" transform="scale(0.015625)"/>
       <path id="DejaVuSans-6e" d="M 3513 2113 
L 3513 0 
L 2938 0 
L 2938 2094 
Q 2938 2591 2744 2837 
Q 2550 3084 2163 3084 
Q 1697 3084 1428 2787 
Q 1159 2491 1159 1978 
L 1159 0 
L 581 0 
L 581 3500 
L 1159 3500 
L 1159 2956 
Q 1366 3272 1645 3428 
Q 1925 3584 2291 3584 
Q 2894 3584 3203 3211 
Q 3513 2838 3513 2113 
z
" transform="scale(0.015625)"/>
       <path id="DejaVuSans-64" d="M 2906 2969 
L 2906 4863 
L 3481 4863 
L 3481 0 
L 2906 0 
L 2906 525 
Q 2725 213 2448 61 
Q 2172 -91 1784 -91 
Q 1150 -91 751 415 
Q 353 922 353 1747 
Q 353 2572 751 3078 
Q 1150 3584 1784 3584 
Q 2172 3584 2448 3432 
Q 2725 3281 2906 2969 
z
M 947 1747 
Q 947 1113 1208 752 
Q 1469 391 1925 391 
Q 2381 391 2643 752 
Q 2906 1113 2906 1747 
Q 2906 2381 2643 2742 
Q 2381 3103 1925 3103 
Q 1469 3103 1208 2742 
Q 947 2381 947 1747 
z
" transform="scale(0.015625)"/>
      </defs>
      <use xlink:href="#DejaVuSans-53"/>
      <use xlink:href="#DejaVuSans-65" transform="translate(63.476562 0)"/>
      <use xlink:href="#DejaVuSans-63" transform="translate(125 0)"/>
      <use xlink:href="#DejaVuSans-6f" transform="translate(179.980469 0)"/>
      <use xlink:href="#DejaVuSans-6e" transform="translate(241.162109 0)"/>
      <use xlink:href="#DejaVuSans-64" transform="translate(304.541016 0)"/>
      <use xlink:href="#DejaVuSans-73" transform="translate(368.017578 0)"/>
     </g>
    </g>
   </g>
   <g id="patch_47">
    <path d="M 57.6 307.584 
L 57.6 41.472 
" style="fill: none; stroke: #000000; stroke-width: 0.8; stroke-linejoin: miter; stroke-linecap: square"/>
   </g>
   <g id="patch_48">
    <path d="M 414.72 307.584 
L 414.72 41.472 
" style="fill: none; stroke: #000000; stroke-width: 0.8; stroke-linejoin: miter; stroke-linecap: square"/>
   </g>
   <g id="patch_49">
    <path d="M 57.6 307.584 
L 414.72 307.584 
" style="fill: none; stroke: #000000; stroke-width: 0.8; stroke-linejoin: miter; stroke-linecap: square"/>
   </g>
   <g id="patch_50">
    <path d="M 57.6 41.472 
L 414.72 41.472 
" style="fill: none; stroke: #000000; stroke-width: 0.8; stroke-linejoin: miter; stroke-linecap: square"/>
   </g>
   <g id="text_34">
    <!-- TPC H Scale Factor 1 -->
    <g transform="translate(174.2175 35.472) scale(0.12 -0.12)">
     <defs>
      <path id="DejaVuSans-54" d="M -19 4666 
L 3928 4666 
L 3928 4134 
L 2272 4134 
L 2272 0 
L 1638 0 
L 1638 4134 
L -19 4134 
L -19 4666 
z
" transform="scale(0.015625)"/>
      <path id="DejaVuSans-50" d="M 1259 4147 
L 1259 2394 
L 2053 2394 
Q 2494 2394 2734 2622 
Q 2975 2850 2975 3272 
Q 2975 3691 2734 3919 
Q 2494 4147 2053 4147 
L 1259 4147 
z
M 628 4666 
L 2053 4666 
Q 2838 4666 3239 4311 
Q 3641 3956 3641 3272 
Q 3641 2581 3239 2228 
Q 2838 1875 2053 1875 
L 1259 1875 
L 1259 0 
L 628 0 
L 628 4666 
z
" transform="scale(0.015625)"/>
      <path id="DejaVuSans-43" d="M 4122 4306 
L 4122 3641 
Q 3803 3938 3442 4084 
Q 3081 4231 2675 4231 
Q 1875 4231 1450 3742 
Q 1025 3253 1025 2328 
Q 1025 1406 1450 917 
Q 1875 428 2675 428 
Q 3081 428 3442 575 
Q 3803 722 4122 1019 
L 4122 359 
Q 3791 134 3420 21 
Q 3050 -91 2638 -91 
Q 1578 -91 968 557 
Q 359 1206 359 2328 
Q 359 3453 968 4101 
Q 1578 4750 2638 4750 
Q 3056 4750 3426 4639 
Q 3797 4528 4122 4306 
z
" transform="scale(0.015625)"/>
      <path id="DejaVuSans-20" transform="scale(0.015625)"/>
      <path id="DejaVuSans-48" d="M 628 4666 
L 1259 4666 
L 1259 2753 
L 3553 2753 
L 3553 4666 
L 4184 4666 
L 4184 0 
L 3553 0 
L 3553 2222 
L 1259 2222 
L 1259 0 
L 628 0 
L 628 4666 
z
" transform="scale(0.015625)"/>
      <path id="DejaVuSans-61" d="M 2194 1759 
Q 1497 1759 1228 1600 
Q 959 1441 959 1056 
Q 959 750 1161 570 
Q 1363 391 1709 391 
Q 2188 391 2477 730 
Q 2766 1069 2766 1631 
L 2766 1759 
L 2194 1759 
z
M 3341 1997 
L 3341 0 
L 2766 0 
L 2766 531 
Q 2569 213 2275 61 
Q 1981 -91 1556 -91 
Q 1019 -91 701 211 
Q 384 513 384 1019 
Q 384 1609 779 1909 
Q 1175 2209 1959 2209 
L 2766 2209 
L 2766 2266 
Q 2766 2663 2505 2880 
Q 2244 3097 1772 3097 
Q 1472 3097 1187 3025 
Q 903 2953 641 2809 
L 641 3341 
Q 956 3463 1253 3523 
Q 1550 3584 1831 3584 
Q 2591 3584 2966 3190 
Q 3341 2797 3341 1997 
z
" transform="scale(0.015625)"/>
      <path id="DejaVuSans-6c" d="M 603 4863 
L 1178 4863 
L 1178 0 
L 603 0 
L 603 4863 
z
" transform="scale(0.015625)"/>
      <path id="DejaVuSans-46" d="M 628 4666 
L 3309 4666 
L 3309 4134 
L 1259 4134 
L 1259 2759 
L 3109 2759 
L 3109 2228 
L 1259 2228 
L 1259 0 
L 628 0 
L 628 4666 
z
" transform="scale(0.015625)"/>
      <path id="DejaVuSans-74" d="M 1172 4494 
L 1172 3500 
L 2356 3500 
L 2356 3053 
L 1172 3053 
L 1172 1153 
Q 1172 725 1289 603 
Q 1406 481 1766 481 
L 2356 481 
L 2356 0 
L 1766 0 
Q 1100 0 847 248 
Q 594 497 594 1153 
L 594 3053 
L 172 3053 
L 172 3500 
L 594 3500 
L 594 4494 
L 1172 4494 
z
" transform="scale(0.015625)"/>
     </defs>
     <use xlink:href="#DejaVuSans-54"/>
     <use xlink:href="#DejaVuSans-50" transform="translate(61.083984 0)"/>
     <use xlink:href="#DejaVuSans-43" transform="translate(121.386719 0)"/>
     <use xlink:href="#DejaVuSans-20" transform="translate(191.210938 0)"/>
     <use xlink:href="#DejaVuSans-48" transform="translate(222.998047 0)"/>
     <use xlink:href="#DejaVuSans-20" transform="translate(298.193359 0)"/>
     <use xlink:href="#DejaVuSans-53" transform="translate(329.980469 0)"/>
     <use xlink:href="#DejaVuSans-63" transform="translate(393.457031 0)"/>
     <use xlink:href="#DejaVuSans-61" transform="translate(448.4375 0)"/>
     <use xlink:href="#DejaVuSans-6c" transform="translate(509.716797 0)"/>
     <use xlink:href="#DejaVuSans-65" transform="translate(537.5 0)"/>
     <use xlink:href="#DejaVuSans-20" transform="translate(599.023438 0)"/>
     <use xlink:href="#DejaVuSans-46" transform="translate(630.810547 0)"/>
     <use xlink:href="#DejaVuSans-61" transform="translate(679.205078 0)"/>
     <use xlink:href="#DejaVuSans-63" transform="translate(740.484375 0)"/>
     <use xlink:href="#DejaVuSans-74" transform="translate(795.464844 0)"/>
     <use xlink:href="#DejaVuSans-6f" transform="translate(834.673828 0)"/>
     <use xlink:href="#DejaVuSans-72" transform="translate(895.855469 0)"/>
     <use xlink:href="#DejaVuSans-20" transform="translate(936.96875 0)"/>
     <use xlink:href="#DejaVuSans-31" transform="translate(968.755859 0)"/>
    </g>
   </g>
   <g id="legend_1">
    <g id="patch_51">
     <path d="M 322.893438 78.82825 
L 407.72 78.82825 
Q 409.72 78.82825 409.72 76.82825 
L 409.72 48.472 
Q 409.72 46.472 407.72 46.472 
L 322.893438 46.472 
Q 320.893438 46.472 320.893438 48.472 
L 320.893438 76.82825 
Q 320.893438 78.82825 322.893438 78.82825 
z
" style="fill: #ffffff; opacity: 0.8; stroke: #cccccc; stroke-linejoin: miter"/>
    </g>
    <g id="patch_52">
     <path d="M 324.893438 58.070437 
L 344.893438 58.070437 
L 344.893438 51.070437 
L 324.893438 51.070437 
z
" style="fill: #1f77b4"/>
    </g>
    <g id="text_35">
     <!-- datafusion -->
     <g transform="translate(352.893438 58.070437) scale(0.1 -0.1)">
      <defs>
       <path id="DejaVuSans-66" d="M 2375 4863 
L 2375 4384 
L 1825 4384 
Q 1516 4384 1395 4259 
Q 1275 4134 1275 3809 
L 1275 3500 
L 2222 3500 
L 2222 3053 
L 1275 3053 
L 1275 0 
L 697 0 
L 697 3053 
L 147 3053 
L 147 3500 
L 697 3500 
L 697 3744 
Q 697 4328 969 4595 
Q 1241 4863 1831 4863 
L 2375 4863 
z
" transform="scale(0.015625)"/>
      </defs>
      <use xlink:href="#DejaVuSans-64"/>
      <use xlink:href="#DejaVuSans-61" transform="translate(63.476562 0)"/>
      <use xlink:href="#DejaVuSans-74" transform="translate(124.755859 0)"/>
      <use xlink:href="#DejaVuSans-61" transform="translate(163.964844 0)"/>
      <use xlink:href="#DejaVuSans-66" transform="translate(225.244141 0)"/>
      <use xlink:href="#DejaVuSans-75" transform="translate(260.449219 0)"/>
      <use xlink:href="#DejaVuSans-73" transform="translate(323.828125 0)"/>
      <use xlink:href="#DejaVuSans-69" transform="translate(375.927734 0)"/>
      <use xlink:href="#DejaVuSans-6f" transform="translate(403.710938 0)"/>
      <use xlink:href="#DejaVuSans-6e" transform="translate(464.892578 0)"/>
     </g>
    </g>
    <g id="patch_53">
     <path d="M 324.893438 72.748562 
L 344.893438 72.748562 
L 344.893438 65.748562 
L 324.893438 65.748562 
z
" style="fill: #ff7f0e"/>
    </g>
    <g id="text_36">
     <!-- duckdb -->
     <g transform="translate(352.893438 72.748562) scale(0.1 -0.1)">
      <defs>
       <path id="DejaVuSans-6b" d="M 581 4863 
L 1159 4863 
L 1159 1991 
L 2875 3500 
L 3609 3500 
L 1753 1863 
L 3688 0 
L 2938 0 
L 1159 1709 
L 1159 0 
L 581 0 
L 581 4863 
z
" transform="scale(0.015625)"/>
       <path id="DejaVuSans-62" d="M 3116 1747 
Q 3116 2381 2855 2742 
Q 2594 3103 2138 3103 
Q 1681 3103 1420 2742 
Q 1159 2381 1159 1747 
Q 1159 1113 1420 752 
Q 1681 391 2138 391 
Q 2594 391 2855 752 
Q 3116 1113 3116 1747 
z
M 1159 2969 
Q 1341 3281 1617 3432 
Q 1894 3584 2278 3584 
Q 2916 3584 3314 3078 
Q 3713 2572 3713 1747 
Q 3713 922 3314 415 
Q 2916 -91 2278 -91 
Q 1894 -91 1617 61 
Q 1341 213 1159 525 
L 1159 0 
L 581 0 
L 581 4863 
L 1159 4863 
L 1159 2969 
z
" transform="scale(0.015625)"/>
      </defs>
      <use xlink:href="#DejaVuSans-64"/>
      <use xlink:href="#DejaVuSans-75" transform="translate(63.476562 0)"/>
      <use xlink:href="#DejaVuSans-63" transform="translate(126.855469 0)"/>
      <use xlink:href="#DejaVuSans-6b" transform="translate(181.835938 0)"/>
      <use xlink:href="#DejaVuSans-64" transform="translate(239.746094 0)"/>
      <use xlink:href="#DejaVuSans-62" transform="translate(303.222656 0)"/>
     </g>
    </g>
   </g>
  </g>
 </g>
 <defs>
  <clipPath id="p035412d81a">
   <rect x="57.6" y="41.472" width="357.12" height="266.112"/>
  </clipPath>
 </defs>
</svg>
